# Blender v2.74 (sub 0) OBJ File: 'Rennstrecke_Parted.blend'
# www.blender.org
mtllib 01_Start.mtl
o 01_Start_Mesh.016
v 26.178310 -0.080977 25.208824
v 26.178253 -0.058003 25.208813
v 26.177853 -0.038847 25.208740
v 26.176773 -0.023165 25.208542
v 26.174667 -0.010607 25.208158
v 26.171192 -0.000827 25.207523
v 26.166012 0.006523 25.206577
v 26.158783 0.011789 25.205257
v 26.149162 0.015319 25.203503
v 26.136806 0.017460 25.201244
v 26.121376 0.018560 25.198429
v 26.102535 0.018965 25.194988
v 26.079933 0.019023 25.190861
v 25.956673 0.019023 25.168354
v 25.831707 0.019023 25.145535
v 25.703327 0.019023 25.122093
v 25.569820 0.019023 25.097715
v 25.429482 0.019023 25.072090
v 25.280605 0.019023 25.044907
v 25.121479 0.019023 25.015850
v 24.950401 0.019023 24.984612
v 24.765656 0.019023 24.950878
v 24.565540 0.019023 24.914337
v 24.348343 0.019023 24.874678
v 24.112360 0.019023 24.831587
v 24.089758 0.018965 24.827461
v 24.070913 0.018560 24.824020
v 24.055485 0.017460 24.821201
v 24.043131 0.015319 24.818947
v 24.033508 0.011789 24.817188
v 24.026279 0.006523 24.815868
v 24.021099 -0.000827 24.814922
v 24.017624 -0.010607 24.814289
v 24.015518 -0.023165 24.813904
v 24.014437 -0.038847 24.813705
v 24.014038 -0.058003 24.813633
v 24.013981 -0.080977 24.813623
v 25.763271 -0.080977 27.620125
v 25.763214 -0.058003 27.620113
v 25.762814 -0.038847 27.620045
v 25.761730 -0.023165 27.619862
v 25.759621 -0.010607 27.619499
v 25.756142 -0.000827 27.618902
v 25.750950 0.006523 27.618011
v 25.743706 0.011789 27.616772
v 25.734066 0.015319 27.615120
v 25.721687 0.017460 27.612999
v 25.706230 0.018560 27.610348
v 25.687351 0.018965 27.607113
v 25.664707 0.019023 27.603233
v 25.541218 0.019023 27.582069
v 25.416019 0.019023 27.560612
v 25.287395 0.019023 27.538567
v 25.153641 0.019023 27.515644
v 25.013039 0.019023 27.491547
v 24.863884 0.019023 27.465984
v 24.704460 0.019023 27.438660
v 24.533058 0.019023 27.409286
v 24.347967 0.019023 27.377563
v 24.147476 0.019023 27.343203
v 23.929873 0.019023 27.305908
v 23.693447 0.019023 27.265388
v 23.670803 0.018965 27.261509
v 23.651924 0.018560 27.258274
v 23.636467 0.017460 27.255623
v 23.624088 0.015319 27.253502
v 23.614449 0.011789 27.251850
v 23.607204 0.006523 27.250610
v 23.602013 -0.000827 27.249720
v 23.598534 -0.010607 27.249123
v 23.596424 -0.023165 27.248760
v 23.595341 -0.038847 27.248577
v 23.594940 -0.058003 27.248508
v 23.594883 -0.080977 27.248497
vt 0.276842 0.774566
vt 0.276223 0.774564
vt 0.276283 0.739294
vt 0.277461 0.774568
vt 0.276889 0.739278
vt 0.278078 0.774570
vt 0.277496 0.739260
vt 0.278696 0.774571
vt 0.278102 0.739242
vt 0.279314 0.774571
vt 0.278709 0.739224
vt 0.279932 0.774572
vt 0.279315 0.739205
vt 0.280550 0.774572
vt 0.279922 0.739185
vt 0.281168 0.774572
vt 0.280530 0.739166
vt 0.281787 0.774572
vt 0.281139 0.739146
vt 0.282406 0.774573
vt 0.281749 0.739126
vt 0.283025 0.774574
vt 0.282360 0.739106
vt 0.283645 0.774576
vt 0.282972 0.739087
vt 0.285467 0.774588
vt 0.283585 0.739068
vt 0.287315 0.774600
vt 0.285408 0.739056
vt 0.289216 0.774612
vt 0.287262 0.739040
vt 0.291193 0.774623
vt 0.289170 0.739023
vt 0.293273 0.774633
vt 0.291159 0.739004
vt 0.295480 0.774643
vt 0.293253 0.738984
vt 0.297839 0.774651
vt 0.295477 0.738963
vt 0.300377 0.774658
vt 0.297855 0.738940
vt 0.303118 0.774663
vt 0.300413 0.738916
vt 0.306088 0.774664
vt 0.303173 0.738888
vt 0.309311 0.774661
vt 0.306159 0.738853
vt 0.312810 0.774652
vt 0.309389 0.738805
vt 0.313434 0.774650
vt 0.312880 0.738733
vt 0.314057 0.774647
vt 0.313498 0.738737
vt 0.314680 0.774645
vt 0.314115 0.738739
vt 0.315303 0.774642
vt 0.314731 0.738741
vt 0.315926 0.774639
vt 0.315346 0.738742
vt 0.316548 0.774635
vt 0.315961 0.738743
vt 0.317171 0.774632
vt 0.316576 0.738743
vt 0.317793 0.774629
vt 0.317191 0.738743
vt 0.318416 0.774626
vt 0.317806 0.738742
vt 0.319039 0.774624
vt 0.318420 0.738742
vt 0.319663 0.774622
vt 0.319035 0.738742
vt 0.320266 0.738741
vt 0.320288 0.774621
vt 0.319650 0.738741
vn 0.985400 0.011900 0.169600
vn 0.985500 0.002600 0.169600
vn 0.984500 0.045600 0.169400
vn 0.985400 0.011800 0.169600
vn 0.978500 0.119100 0.168400
vn 0.984500 0.045400 0.169400
vn 0.953000 0.254800 0.164000
vn 0.872200 0.465500 0.150100
vn 0.952900 0.255100 0.164000
vn 0.696700 0.707200 0.119900
vn 0.872000 0.465800 0.150100
vn 0.458600 0.885100 0.078900
vn 0.696300 0.707600 0.119800
vn 0.251100 0.967000 0.043200
vn 0.458000 0.885400 0.078800
vn 0.117400 0.992900 0.020200
vn 0.250500 0.967100 0.043100
vn 0.044900 0.999000 0.007700
vn 0.117100 0.992900 0.020100
vn 0.011600 0.999900 0.002000
vn 0.044700 0.999000 0.007700
vn 0.001200 1.000000 0.000200
vn 0.000000 1.000000 0.000000
vn -0.001200 1.000000 -0.000200
vn -0.011700 0.999900 -0.002000
vn -0.044900 0.998900 -0.007700
vn -0.117400 0.992900 -0.020200
vn -0.045000 0.998900 -0.007800
vn -0.251000 0.967000 -0.043200
vn -0.117700 0.992800 -0.020300
vn -0.458700 0.885100 -0.078900
vn -0.251600 0.966800 -0.043300
vn -0.697000 0.707000 -0.119900
vn -0.459400 0.884700 -0.079100
vn -0.872300 0.465300 -0.150100
vn -0.697400 0.706600 -0.120000
vn -0.953000 0.254700 -0.164000
vn -0.872400 0.465200 -0.150200
vn -0.978500 0.119100 -0.168400
vn -0.984500 0.045700 -0.169400
vn -0.978500 0.119000 -0.168400
vn -0.985400 0.012000 -0.169600
vn -0.984500 0.045300 -0.169400
vn -0.985500 0.002500 -0.169600
vn -0.985500 0.002600 -0.169600
vn -0.985400 0.011700 -0.169600
usemtl Material
s 1
f 39/1/1 38/2/2 1/3/2
f 40/4/3 39/1/1 2/5/4
f 41/6/5 40/4/3 3/7/6
f 42/8/7 41/6/5 4/9/5
f 43/10/8 42/8/7 5/11/9
f 44/12/10 43/10/8 6/13/11
f 45/14/12 44/12/10 7/15/13
f 46/16/14 45/14/12 8/17/15
f 47/18/16 46/16/14 9/19/17
f 48/20/18 47/18/16 10/21/19
f 49/22/20 48/20/18 11/23/21
f 50/24/22 49/22/20 12/25/20
f 51/26/23 50/24/22 13/27/22
f 52/28/23 51/26/23 14/29/23
f 53/30/23 52/28/23 15/31/23
f 54/32/23 53/30/23 16/33/23
f 55/34/23 54/32/23 17/35/23
f 56/36/23 55/34/23 18/37/23
f 57/38/23 56/36/23 19/39/23
f 58/40/23 57/38/23 20/41/23
f 59/42/23 58/40/23 21/43/23
f 60/44/23 59/42/23 22/45/23
f 61/46/23 60/44/23 23/47/23
f 62/48/24 61/46/23 24/49/23
f 63/50/25 62/48/24 25/51/24
f 64/52/26 63/50/25 26/53/25
f 65/54/27 64/52/26 27/55/28
f 66/56/29 65/54/27 28/57/30
f 67/58/31 66/56/29 29/59/32
f 68/60/33 67/58/31 30/61/34
f 69/62/35 68/60/33 31/63/36
f 70/64/37 69/62/35 32/65/38
f 71/66/39 70/64/37 33/67/37
f 72/68/40 71/66/39 34/69/41
f 73/70/42 72/68/40 35/71/43
f 37/72/44 74/73/45 73/70/42
f 2/5/4 39/1/1 1/3/2
f 3/7/6 40/4/3 2/5/4
f 4/9/5 41/6/5 3/7/6
f 5/11/9 42/8/7 4/9/5
f 6/13/11 43/10/8 5/11/9
f 7/15/13 44/12/10 6/13/11
f 8/17/15 45/14/12 7/15/13
f 9/19/17 46/16/14 8/17/15
f 10/21/19 47/18/16 9/19/17
f 11/23/21 48/20/18 10/21/19
f 12/25/20 49/22/20 11/23/21
f 13/27/22 50/24/22 12/25/20
f 14/29/23 51/26/23 13/27/22
f 15/31/23 52/28/23 14/29/23
f 16/33/23 53/30/23 15/31/23
f 17/35/23 54/32/23 16/33/23
f 18/37/23 55/34/23 17/35/23
f 19/39/23 56/36/23 18/37/23
f 20/41/23 57/38/23 19/39/23
f 21/43/23 58/40/23 20/41/23
f 22/45/23 59/42/23 21/43/23
f 23/47/23 60/44/23 22/45/23
f 24/49/23 61/46/23 23/47/23
f 25/51/24 62/48/24 24/49/23
f 26/53/25 63/50/25 25/51/24
f 27/55/28 64/52/26 26/53/25
f 28/57/30 65/54/27 27/55/28
f 29/59/32 66/56/29 28/57/30
f 30/61/34 67/58/31 29/59/32
f 31/63/36 68/60/33 30/61/34
f 32/65/38 69/62/35 31/63/36
f 33/67/37 70/64/37 32/65/38
f 34/69/41 71/66/39 33/67/37
f 35/71/43 72/68/40 34/69/41
f 36/74/46 73/70/42 35/71/43
f 36/74/46 37/72/44 73/70/42
