# Blender v2.74 (sub 0) OBJ File: 'Rennstrecke_Parted.blend'
# www.blender.org
mtllib 03_CP_1.mtl
o 03_CP_1_Mesh.018
v 1.997401 -0.080977 38.000751
v 1.997449 -0.058003 38.000717
v 1.997785 -0.038847 38.000492
v 1.998694 -0.023165 37.999874
v 2.000466 -0.010607 37.998672
v 2.003388 -0.000827 37.996693
v 2.007747 0.006523 37.993736
v 2.013831 0.011789 37.989613
v 2.021926 0.015319 37.984123
v 2.032321 0.017460 37.977077
v 2.045300 0.018560 37.968277
v 2.061156 0.018965 37.957527
v 2.080173 0.019023 37.944637
v 2.183879 0.019023 37.874332
v 2.289021 0.019023 37.803055
v 2.397037 0.019023 37.729824
v 2.509364 0.019023 37.653675
v 2.627440 0.019023 37.573627
v 2.752700 0.019023 37.488708
v 2.886582 0.019023 37.397949
v 3.030524 0.019023 37.300362
v 3.185964 0.019023 37.194988
v 3.354335 0.019023 37.080841
v 3.537076 0.019023 36.956955
v 3.735625 0.019023 36.822357
v 3.754642 0.018965 36.809464
v 3.770495 0.018560 36.798714
v 3.783477 0.017460 36.789913
v 3.793872 0.015319 36.782867
v 3.801967 0.011789 36.777382
v 3.808051 0.006523 36.773254
v 3.812409 -0.000827 36.770302
v 3.815331 -0.010607 36.768318
v 3.817103 -0.023165 36.767120
v 3.818013 -0.038847 36.766502
v 3.818349 -0.058003 36.766273
v 3.818397 -0.080977 36.766243
v 0.698911 -0.080977 36.097633
v 0.698958 -0.058003 36.097599
v 0.699286 -0.038847 36.097363
v 0.700181 -0.023165 36.096722
v 0.701922 -0.010607 36.095474
v 0.704791 -0.000827 36.093414
v 0.709071 0.006523 36.090347
v 0.715045 0.011789 36.086060
v 0.722995 0.015319 36.080360
v 0.733203 0.017460 36.073036
v 0.745950 0.018560 36.063896
v 0.761519 0.018965 36.052727
v 0.780192 0.019023 36.039333
v 0.882031 0.019023 35.966293
v 0.985280 0.019023 35.892239
v 1.091352 0.019023 35.816162
v 1.201655 0.019023 35.737045
v 1.317605 0.019023 35.653881
v 1.440610 0.019023 35.565659
v 1.572083 0.019023 35.471359
v 1.713433 0.019023 35.369980
v 1.866073 0.019023 35.260502
v 2.031411 0.019023 35.141914
v 2.210862 0.019023 35.013206
v 2.405837 0.019023 34.873363
v 2.424510 0.018965 34.859970
v 2.440080 0.018560 34.848801
v 2.452826 0.017460 34.839661
v 2.463035 0.015319 34.832336
v 2.470984 0.011789 34.826637
v 2.476958 0.006523 34.822350
v 2.481238 -0.000827 34.819283
v 2.484107 -0.010607 34.817223
v 2.485848 -0.023165 34.815975
v 2.486741 -0.038847 34.815334
v 2.487071 -0.058003 34.815098
v 2.487119 -0.080977 34.815063
vt 0.340329 0.735969
vt 0.340031 0.772760
vt 0.339390 0.772765
vt 0.340978 0.735953
vt 0.340671 0.772760
vt 0.341626 0.735937
vt 0.341311 0.772761
vt 0.342275 0.735923
vt 0.341952 0.772763
vt 0.342923 0.735908
vt 0.342592 0.772765
vt 0.343571 0.735894
vt 0.343233 0.772768
vt 0.344219 0.735880
vt 0.343874 0.772771
vt 0.344867 0.735866
vt 0.344516 0.772774
vt 0.345515 0.735851
vt 0.345159 0.772776
vt 0.346164 0.735836
vt 0.345803 0.772779
vt 0.346813 0.735821
vt 0.346448 0.772781
vt 0.347463 0.735805
vt 0.346804 0.772686
vt 0.349496 0.735748
vt 0.350378 0.773071
vt 0.351558 0.735691
vt 0.352433 0.773069
vt 0.353676 0.735633
vt 0.354543 0.773067
vt 0.355879 0.735574
vt 0.356737 0.773065
vt 0.358195 0.735513
vt 0.359044 0.773063
vt 0.360651 0.735450
vt 0.361490 0.773062
vt 0.363277 0.735384
vt 0.364104 0.773059
vt 0.366100 0.735314
vt 0.366914 0.773057
vt 0.369147 0.735241
vt 0.369948 0.773055
vt 0.372448 0.735163
vt 0.373233 0.773053
vt 0.376029 0.735082
vt 0.376797 0.773050
vt 0.379917 0.734995
vt 0.379794 0.772854
vt 0.380568 0.734985
vt 0.380465 0.772857
vt 0.381219 0.734974
vt 0.381136 0.772861
vt 0.381869 0.734963
vt 0.381807 0.772865
vt 0.382519 0.734953
vt 0.382478 0.772869
vt 0.383169 0.734942
vt 0.383150 0.772872
vt 0.383819 0.734931
vt 0.383822 0.772876
vt 0.384469 0.734919
vt 0.384496 0.772880
vt 0.385119 0.734907
vt 0.385170 0.772883
vt 0.385769 0.734894
vt 0.385845 0.772885
vt 0.386420 0.734881
vt 0.386520 0.772887
vt 0.387071 0.734866
vt 0.387195 0.772887
vt 0.387866 0.772882
vt 0.339680 0.735990
vt 0.387723 0.734848
vn -0.826000 0.011800 0.563600
vn -0.826000 0.002500 0.563600
vn -0.825200 0.045500 0.563000
vn -0.825200 0.045600 0.563000
vn -0.820200 0.119100 0.559600
vn -0.820100 0.119300 0.559600
vn -0.798800 0.254800 0.545000
vn -0.798700 0.255100 0.544900
vn -0.731100 0.465500 0.498800
vn -0.730800 0.466100 0.498600
vn -0.583900 0.707300 0.398400
vn -0.583100 0.708300 0.397800
vn -0.384200 0.885200 0.262200
vn -0.383100 0.886000 0.261400
vn -0.210300 0.967000 0.143500
vn -0.209400 0.967300 0.142900
vn -0.098300 0.992900 0.067100
vn -0.097800 0.993000 0.066700
vn -0.037600 0.999000 0.025600
vn -0.037300 0.999000 0.025500
vn -0.009700 0.999900 0.006700
vn -0.009600 0.999900 0.006600
vn -0.001000 1.000000 0.000700
vn 0.000000 1.000000 0.000000
vn 0.001000 1.000000 -0.000700
vn 0.009800 0.999900 -0.006700
vn 0.009900 0.999900 -0.006700
vn 0.037700 0.998900 -0.025700
vn 0.037900 0.998900 -0.025900
vn 0.098500 0.992900 -0.067200
vn 0.099000 0.992800 -0.067500
vn 0.210600 0.966900 -0.143700
vn 0.211500 0.966600 -0.144300
vn 0.384500 0.885000 -0.262400
vn 0.385700 0.884300 -0.263200
vn 0.584200 0.706900 -0.398600
vn 0.585100 0.705800 -0.399200
vn 0.731200 0.465300 -0.498900
vn 0.731500 0.464500 -0.499100
vn 0.798800 0.254700 -0.545000
vn 0.798800 0.254500 -0.545000
vn 0.820200 0.119100 -0.559600
vn 0.820200 0.119000 -0.559600
vn 0.825200 0.045600 -0.563000
vn 0.825200 0.045500 -0.563000
vn 0.826000 0.011800 -0.563600
vn 0.826000 0.002500 -0.563600
vn 0.826000 0.002400 -0.563600
usemtl Material
s 1
f 2/1/1 39/2/1 38/3/2
f 3/4/3 40/5/4 39/2/1
f 4/6/5 41/7/6 40/5/4
f 5/8/7 42/9/8 41/7/6
f 6/10/9 43/11/10 42/9/8
f 7/12/11 44/13/12 43/11/10
f 8/14/13 45/15/14 44/13/12
f 9/16/15 46/17/16 45/15/14
f 10/18/17 47/19/18 46/17/16
f 11/20/19 48/21/20 47/19/18
f 12/22/21 49/23/22 48/21/20
f 13/24/23 50/25/23 49/23/22
f 14/26/24 51/27/24 50/25/23
f 15/28/24 52/29/24 51/27/24
f 16/30/24 53/31/24 52/29/24
f 17/32/24 54/33/24 53/31/24
f 18/34/24 55/35/24 54/33/24
f 19/36/24 56/37/24 55/35/24
f 20/38/24 57/39/24 56/37/24
f 21/40/24 58/41/24 57/39/24
f 22/42/24 59/43/24 58/41/24
f 23/44/24 60/45/24 59/43/24
f 24/46/24 61/47/24 60/45/24
f 25/48/25 62/49/25 61/47/24
f 26/50/26 63/51/27 62/49/25
f 27/52/28 64/53/29 63/51/27
f 28/54/30 65/55/31 64/53/29
f 29/56/32 66/57/33 65/55/31
f 30/58/34 67/59/35 66/57/33
f 31/60/36 68/61/37 67/59/35
f 32/62/38 69/63/39 68/61/37
f 33/64/40 70/65/41 69/63/39
f 34/66/42 71/67/43 70/65/41
f 35/68/44 72/69/45 71/67/43
f 36/70/46 73/71/46 72/69/45
f 74/72/47 73/71/46 36/70/46
f 1/73/2 2/1/1 38/3/2
f 2/1/1 3/4/3 39/2/1
f 3/4/3 4/6/5 40/5/4
f 4/6/5 5/8/7 41/7/6
f 5/8/7 6/10/9 42/9/8
f 6/10/9 7/12/11 43/11/10
f 7/12/11 8/14/13 44/13/12
f 8/14/13 9/16/15 45/15/14
f 9/16/15 10/18/17 46/17/16
f 10/18/17 11/20/19 47/19/18
f 11/20/19 12/22/21 48/21/20
f 12/22/21 13/24/23 49/23/22
f 13/24/23 14/26/24 50/25/23
f 14/26/24 15/28/24 51/27/24
f 15/28/24 16/30/24 52/29/24
f 16/30/24 17/32/24 53/31/24
f 17/32/24 18/34/24 54/33/24
f 18/34/24 19/36/24 55/35/24
f 19/36/24 20/38/24 56/37/24
f 20/38/24 21/40/24 57/39/24
f 21/40/24 22/42/24 58/41/24
f 22/42/24 23/44/24 59/43/24
f 23/44/24 24/46/24 60/45/24
f 24/46/24 25/48/25 61/47/24
f 25/48/25 26/50/26 62/49/25
f 26/50/26 27/52/28 63/51/27
f 27/52/28 28/54/30 64/53/29
f 28/54/30 29/56/32 65/55/31
f 29/56/32 30/58/34 66/57/33
f 30/58/34 31/60/36 67/59/35
f 31/60/36 32/62/38 68/61/37
f 32/62/38 33/64/40 69/63/39
f 33/64/40 34/66/42 70/65/41
f 34/66/42 35/68/44 71/67/43
f 35/68/44 36/70/46 72/69/45
f 37/74/48 74/72/47 36/70/46
