# Blender v2.74 (sub 0) OBJ File: 'Rennstrecke_Parted.blend'
# www.blender.org
mtllib 03_CP_1.mtl
o 03_CP_1_Mesh.018
v 1.997401 -0.080977 38.000751
v 1.997449 -0.058003 38.000717
v 1.997785 -0.038847 38.000492
v 1.998694 -0.023165 37.999874
v 2.000466 -0.010607 37.998672
v 2.003388 -0.000827 37.996693
v 2.007747 0.006523 37.993736
v 2.013831 0.011789 37.989613
v 2.021926 0.015319 37.984123
v 2.032321 0.017460 37.977077
v 2.045300 0.018560 37.968277
v 2.061156 0.018965 37.957527
v 2.080173 0.019023 37.944637
v 2.183879 0.019023 37.874332
v 2.289021 0.019023 37.803055
v 2.397037 0.019023 37.729824
v 2.509364 0.019023 37.653675
v 2.627440 0.019023 37.573627
v 2.752700 0.019023 37.488708
v 2.886582 0.019023 37.397949
v 3.030524 0.019023 37.300362
v 3.185964 0.019023 37.194988
v 3.354335 0.019023 37.080841
v 3.537076 0.019023 36.956955
v 3.735625 0.019023 36.822357
v 3.754642 0.018965 36.809464
v 3.770495 0.018560 36.798714
v 3.783477 0.017460 36.789913
v 3.793872 0.015319 36.782867
v 3.801967 0.011789 36.777382
v 3.808051 0.006523 36.773254
v 3.812409 -0.000827 36.770302
v 3.815331 -0.010607 36.768318
v 3.817103 -0.023165 36.767120
v 3.818013 -0.038847 36.766502
v 3.818349 -0.058003 36.766273
v 3.818397 -0.080977 36.766243
v 0.698911 -0.080977 36.097633
v 0.698958 -0.058003 36.097599
v 0.699286 -0.038847 36.097363
v 0.700181 -0.023165 36.096722
v 0.701922 -0.010607 36.095474
v 0.704791 -0.000827 36.093414
v 0.709071 0.006523 36.090347
v 0.715045 0.011789 36.086060
v 0.722995 0.015319 36.080360
v 0.733203 0.017460 36.073036
v 0.745950 0.018560 36.063896
v 0.761519 0.018965 36.052727
v 0.780192 0.019023 36.039333
v 0.882031 0.019023 35.966293
v 0.985280 0.019023 35.892239
v 1.091352 0.019023 35.816162
v 1.201655 0.019023 35.737045
v 1.317605 0.019023 35.653881
v 1.440610 0.019023 35.565659
v 1.572083 0.019023 35.471359
v 1.713433 0.019023 35.369980
v 1.866073 0.019023 35.260502
v 2.031411 0.019023 35.141914
v 2.210862 0.019023 35.013206
v 2.405837 0.019023 34.873363
v 2.424510 0.018965 34.859970
v 2.440080 0.018560 34.848801
v 2.452826 0.017460 34.839661
v 2.463035 0.015319 34.832336
v 2.470984 0.011789 34.826637
v 2.476958 0.006523 34.822350
v 2.481238 -0.000827 34.819283
v 2.484107 -0.010607 34.817223
v 2.485848 -0.023165 34.815975
v 2.486741 -0.038847 34.815334
v 2.487071 -0.058003 34.815098
v 2.487119 -0.080977 34.815063
vt 0.341120 0.736736
vt 0.342029 0.771837
vt 0.341422 0.771842
vt 0.341734 0.736721
vt 0.342635 0.771838
vt 0.342348 0.736706
vt 0.343241 0.771839
vt 0.342962 0.736692
vt 0.343848 0.771841
vt 0.343575 0.736678
vt 0.344454 0.771843
vt 0.344189 0.736665
vt 0.345060 0.771845
vt 0.344802 0.736652
vt 0.345667 0.771848
vt 0.345415 0.736638
vt 0.346275 0.771851
vt 0.346029 0.736624
vt 0.346884 0.771853
vt 0.346643 0.736611
vt 0.347493 0.771856
vt 0.347258 0.736596
vt 0.348104 0.771858
vt 0.347873 0.736581
vt 0.348715 0.771859
vt 0.349797 0.736527
vt 0.350633 0.771857
vt 0.351749 0.736473
vt 0.352577 0.771856
vt 0.353754 0.736418
vt 0.354575 0.771854
vt 0.355839 0.736362
vt 0.356652 0.771852
vt 0.358032 0.736305
vt 0.358835 0.771850
vt 0.360357 0.736245
vt 0.361151 0.771848
vt 0.362843 0.736182
vt 0.363626 0.771846
vt 0.365515 0.736116
vt 0.366286 0.771844
vt 0.368400 0.736047
vt 0.369157 0.771842
vt 0.371524 0.735973
vt 0.372267 0.771840
vt 0.374914 0.735896
vt 0.375641 0.771838
vt 0.378594 0.735814
vt 0.379303 0.771835
vt 0.379211 0.735804
vt 0.379938 0.771838
vt 0.379827 0.735794
vt 0.380573 0.771842
vt 0.380442 0.735784
vt 0.381208 0.771845
vt 0.381058 0.735774
vt 0.381844 0.771849
vt 0.381673 0.735764
vt 0.382479 0.771852
vt 0.382288 0.735753
vt 0.383116 0.771856
vt 0.382903 0.735742
vt 0.383754 0.771859
vt 0.383519 0.735731
vt 0.384392 0.771862
vt 0.384134 0.735719
vt 0.385030 0.771865
vt 0.384750 0.735706
vt 0.385669 0.771866
vt 0.385366 0.735692
vt 0.386308 0.771867
vt 0.386944 0.771861
vt 0.340505 0.736756
vt 0.385983 0.735675
vn -0.826000 0.011800 0.563600
vn -0.826000 0.002500 0.563600
vn -0.825200 0.045500 0.563000
vn -0.825200 0.045600 0.563000
vn -0.820200 0.119100 0.559600
vn -0.820100 0.119300 0.559600
vn -0.798800 0.254800 0.545000
vn -0.798700 0.255100 0.544900
vn -0.731100 0.465500 0.498800
vn -0.730800 0.466100 0.498600
vn -0.583900 0.707300 0.398400
vn -0.583100 0.708300 0.397800
vn -0.384200 0.885200 0.262200
vn -0.383100 0.886000 0.261400
vn -0.210300 0.967000 0.143500
vn -0.209400 0.967300 0.142900
vn -0.098300 0.992900 0.067100
vn -0.097800 0.993000 0.066700
vn -0.037600 0.999000 0.025600
vn -0.037300 0.999000 0.025500
vn -0.009700 0.999900 0.006700
vn -0.009600 0.999900 0.006600
vn -0.001000 1.000000 0.000700
vn 0.000000 1.000000 0.000000
vn 0.001000 1.000000 -0.000700
vn 0.009800 0.999900 -0.006700
vn 0.009900 0.999900 -0.006700
vn 0.037700 0.998900 -0.025700
vn 0.037900 0.998900 -0.025900
vn 0.098500 0.992900 -0.067200
vn 0.099000 0.992800 -0.067500
vn 0.210600 0.966900 -0.143700
vn 0.211500 0.966600 -0.144300
vn 0.384500 0.885000 -0.262400
vn 0.385700 0.884300 -0.263200
vn 0.584200 0.706900 -0.398600
vn 0.585100 0.705800 -0.399200
vn 0.731200 0.465300 -0.498900
vn 0.731500 0.464500 -0.499100
vn 0.798800 0.254700 -0.545000
vn 0.798800 0.254500 -0.545000
vn 0.820200 0.119100 -0.559600
vn 0.820200 0.119000 -0.559600
vn 0.825200 0.045600 -0.563000
vn 0.825200 0.045500 -0.563000
vn 0.826000 0.011800 -0.563600
vn 0.826000 0.002500 -0.563600
vn 0.826000 0.002400 -0.563600
usemtl Material
s 1
f 2/1/1 39/2/1 38/3/2
f 3/4/3 40/5/4 39/2/1
f 4/6/5 41/7/6 40/5/4
f 5/8/7 42/9/8 41/7/6
f 6/10/9 43/11/10 42/9/8
f 7/12/11 44/13/12 43/11/10
f 8/14/13 45/15/14 44/13/12
f 9/16/15 46/17/16 45/15/14
f 10/18/17 47/19/18 46/17/16
f 11/20/19 48/21/20 47/19/18
f 12/22/21 49/23/22 48/21/20
f 13/24/23 50/25/23 49/23/22
f 14/26/24 51/27/24 50/25/23
f 15/28/24 52/29/24 51/27/24
f 16/30/24 53/31/24 52/29/24
f 17/32/24 54/33/24 53/31/24
f 18/34/24 55/35/24 54/33/24
f 19/36/24 56/37/24 55/35/24
f 20/38/24 57/39/24 56/37/24
f 21/40/24 58/41/24 57/39/24
f 22/42/24 59/43/24 58/41/24
f 23/44/24 60/45/24 59/43/24
f 24/46/24 61/47/24 60/45/24
f 25/48/25 62/49/25 61/47/24
f 26/50/26 63/51/27 62/49/25
f 27/52/28 64/53/29 63/51/27
f 28/54/30 65/55/31 64/53/29
f 29/56/32 66/57/33 65/55/31
f 30/58/34 67/59/35 66/57/33
f 31/60/36 68/61/37 67/59/35
f 32/62/38 69/63/39 68/61/37
f 33/64/40 70/65/41 69/63/39
f 34/66/42 71/67/43 70/65/41
f 35/68/44 72/69/45 71/67/43
f 36/70/46 73/71/46 72/69/45
f 74/72/47 73/71/46 36/70/46
f 1/73/2 2/1/1 38/3/2
f 2/1/1 3/4/3 39/2/1
f 3/4/3 4/6/5 40/5/4
f 4/6/5 5/8/7 41/7/6
f 5/8/7 6/10/9 42/9/8
f 6/10/9 7/12/11 43/11/10
f 7/12/11 8/14/13 44/13/12
f 8/14/13 9/16/15 45/15/14
f 9/16/15 10/18/17 46/17/16
f 10/18/17 11/20/19 47/19/18
f 11/20/19 12/22/21 48/21/20
f 12/22/21 13/24/23 49/23/22
f 13/24/23 14/26/24 50/25/23
f 14/26/24 15/28/24 51/27/24
f 15/28/24 16/30/24 52/29/24
f 16/30/24 17/32/24 53/31/24
f 17/32/24 18/34/24 54/33/24
f 18/34/24 19/36/24 55/35/24
f 19/36/24 20/38/24 56/37/24
f 20/38/24 21/40/24 57/39/24
f 21/40/24 22/42/24 58/41/24
f 22/42/24 23/44/24 59/43/24
f 23/44/24 24/46/24 60/45/24
f 24/46/24 25/48/25 61/47/24
f 25/48/25 26/50/26 62/49/25
f 26/50/26 27/52/28 63/51/27
f 27/52/28 28/54/30 64/53/29
f 28/54/30 29/56/32 65/55/31
f 29/56/32 30/58/34 66/57/33
f 30/58/34 31/60/36 67/59/35
f 31/60/36 32/62/38 68/61/37
f 32/62/38 33/64/40 69/63/39
f 33/64/40 34/66/42 70/65/41
f 34/66/42 35/68/44 71/67/43
f 35/68/44 36/70/46 72/69/45
f 37/74/48 74/72/47 36/70/46
