# Blender v2.74 (sub 0) OBJ File: 'Rennstrecke_Parted.blend'
# www.blender.org
mtllib 06_CP_2.mtl
o 06_CP_2_Mesh.028
v -22.570255 -0.080977 -3.286692
v -22.570210 -0.058003 -3.286726
v -22.569889 -0.038847 -3.286978
v -22.569016 -0.023165 -3.287649
v -22.567322 -0.010607 -3.288965
v -22.564526 -0.000827 -3.291128
v -22.560356 0.006523 -3.294359
v -22.554535 0.011789 -3.298868
v -22.546791 0.015319 -3.304869
v -22.536850 0.017460 -3.312571
v -22.524433 0.018560 -3.322191
v -22.509262 0.018965 -3.333941
v -22.491074 0.019023 -3.348036
v -22.391865 0.019023 -3.424894
v -22.291286 0.019023 -3.502813
v -22.187954 0.019023 -3.582869
v -22.080502 0.019023 -3.666113
v -21.967548 0.019023 -3.753622
v -21.847721 0.019023 -3.846453
v -21.719646 0.019023 -3.945677
v -21.581951 0.019023 -4.052355
v -21.433258 0.019023 -4.167551
v -21.272190 0.019023 -4.292334
v -21.097378 0.019023 -4.427763
v -20.907440 0.019023 -4.574911
v -20.889252 0.018965 -4.589006
v -20.874084 0.018560 -4.600756
v -20.861664 0.017460 -4.610376
v -20.851723 0.015319 -4.618078
v -20.843979 0.011789 -4.624079
v -20.838158 0.006523 -4.628588
v -20.833988 -0.000827 -4.631819
v -20.831192 -0.010607 -4.633982
v -20.829498 -0.023165 -4.635298
v -20.828625 -0.038847 -4.635969
v -20.828304 -0.058003 -4.636221
v -20.828259 -0.080977 -4.636255
v -23.858749 -0.080977 -4.766722
v -23.858707 -0.058003 -4.766764
v -23.858410 -0.038847 -4.767035
v -23.857597 -0.023165 -4.767782
v -23.856022 -0.010607 -4.769232
v -23.853424 -0.000827 -4.771620
v -23.849545 0.006523 -4.775187
v -23.844131 0.011789 -4.780165
v -23.836933 0.015319 -4.786787
v -23.827686 0.017460 -4.795290
v -23.816135 0.018560 -4.805910
v -23.802032 0.018965 -4.818880
v -23.785114 0.019023 -4.834440
v -23.692860 0.019023 -4.919279
v -23.599327 0.019023 -5.005297
v -23.503235 0.019023 -5.093664
v -23.403313 0.019023 -5.185560
v -23.298271 0.019023 -5.282160
v -23.186840 0.019023 -5.384634
v -23.067741 0.019023 -5.494165
v -22.939693 0.019023 -5.611921
v -22.801414 0.019023 -5.739088
v -22.651634 0.019023 -5.876833
v -22.489067 0.019023 -6.026331
v -22.312443 0.019023 -6.188765
v -22.295525 0.018965 -6.204325
v -22.281422 0.018560 -6.217295
v -22.269871 0.017460 -6.227915
v -22.260624 0.015319 -6.236418
v -22.253426 0.011789 -6.243040
v -22.248013 0.006523 -6.248018
v -22.244133 -0.000827 -6.251585
v -22.241535 -0.010607 -6.253973
v -22.239960 -0.023165 -6.255423
v -22.239147 -0.038847 -6.256170
v -22.238850 -0.058003 -6.256441
v -22.238808 -0.080977 -6.256483
vt 0.405889 0.769365
vt 0.405390 0.769362
vt 0.404697 0.741266
vt 0.406389 0.769366
vt 0.405176 0.741226
vt 0.406888 0.769367
vt 0.405654 0.741186
vt 0.407388 0.769367
vt 0.406133 0.741145
vt 0.407887 0.769367
vt 0.406612 0.741103
vt 0.408387 0.769366
vt 0.407091 0.741060
vt 0.408888 0.769365
vt 0.407571 0.741017
vt 0.409389 0.769364
vt 0.408051 0.740973
vt 0.409892 0.769362
vt 0.408533 0.740929
vt 0.410395 0.769361
vt 0.409017 0.740885
vt 0.410900 0.769360
vt 0.409503 0.740840
vt 0.411405 0.769359
vt 0.409990 0.740796
vt 0.413201 0.769358
vt 0.410478 0.740752
vt 0.415023 0.769360
vt 0.412332 0.740575
vt 0.416897 0.769366
vt 0.414212 0.740400
vt 0.418846 0.769375
vt 0.416143 0.740227
vt 0.420897 0.769387
vt 0.418150 0.740052
vt 0.423074 0.769405
vt 0.420259 0.739873
vt 0.425402 0.769428
vt 0.422495 0.739689
vt 0.427906 0.769457
vt 0.424882 0.739498
vt 0.430611 0.769494
vt 0.427446 0.739298
vt 0.433543 0.769540
vt 0.430210 0.739088
vt 0.436726 0.769597
vt 0.433199 0.738866
vt 0.440184 0.769667
vt 0.436436 0.738632
vt 0.440724 0.769677
vt 0.439942 0.738383
vt 0.441263 0.769686
vt 0.440490 0.738350
vt 0.441803 0.769696
vt 0.441038 0.738316
vt 0.442343 0.769705
vt 0.441587 0.738281
vt 0.442883 0.769714
vt 0.442136 0.738246
vt 0.443425 0.769723
vt 0.442687 0.738211
vt 0.443967 0.769732
vt 0.443239 0.738176
vt 0.444511 0.769742
vt 0.443793 0.738141
vt 0.445055 0.769753
vt 0.444349 0.738106
vt 0.445599 0.769764
vt 0.444905 0.738071
vt 0.446144 0.769775
vt 0.445461 0.738037
vt 0.446689 0.769788
vt 0.446018 0.738004
vt 0.446574 0.737972
vn -0.754100 0.011700 0.656500
vn -0.754200 0.002500 0.656600
vn -0.753400 0.045500 0.655900
vn -0.754100 0.011900 0.656500
vn -0.748800 0.119300 0.651900
vn -0.753400 0.045700 0.655900
vn -0.729200 0.255200 0.634900
vn -0.748800 0.119400 0.651900
vn -0.667100 0.466500 0.580800
vn -0.729200 0.255400 0.634800
vn -0.532100 0.708700 0.463200
vn -0.666800 0.467200 0.580500
vn -0.349600 0.886100 0.304300
vn -0.531100 0.710000 0.462400
vn -0.191100 0.967300 0.166400
vn -0.348000 0.887100 0.303000
vn -0.089200 0.993000 0.077700
vn -0.189900 0.967800 0.165300
vn -0.034000 0.999000 0.029600
vn -0.088500 0.993100 0.077100
vn -0.008800 0.999900 0.007700
vn -0.033700 0.999000 0.029300
vn -0.000900 1.000000 0.000800
vn -0.008700 0.999900 0.007500
vn 0.000000 1.000000 0.000000
vn 0.000900 1.000000 -0.000800
vn 0.009000 0.999900 -0.007900
vn 0.001000 1.000000 -0.000900
vn 0.034700 0.998900 -0.030200
vn 0.009200 0.999900 -0.008000
vn 0.090500 0.992800 -0.078800
vn 0.035000 0.998900 -0.030500
vn 0.193300 0.966600 -0.168300
vn 0.091200 0.992600 -0.079400
vn 0.352400 0.884100 -0.306800
vn 0.194500 0.966200 -0.169300
vn 0.534300 0.705800 -0.465100
vn 0.353900 0.883100 -0.308100
vn 0.667900 0.464400 -0.581500
vn 0.535500 0.704100 -0.466200
vn 0.729400 0.254200 -0.635000
vn 0.668400 0.463300 -0.581900
vn 0.748800 0.119100 -0.651900
vn 0.729500 0.254000 -0.635100
vn 0.753400 0.045600 -0.655900
vn 0.748900 0.119000 -0.651900
vn 0.754100 0.011800 -0.656500
vn 0.753400 0.045500 -0.655900
vn 0.754200 0.002600 -0.656600
vn 0.754100 0.011900 -0.656500
usemtl Material
s 1
f 39/1/1 38/2/2 1/3/2
f 40/4/3 39/1/1 2/5/4
f 41/6/5 40/4/3 3/7/6
f 42/8/7 41/6/5 4/9/8
f 43/10/9 42/8/7 5/11/10
f 44/12/11 43/10/9 6/13/12
f 45/14/13 44/12/11 7/15/14
f 46/16/15 45/14/13 8/17/16
f 47/18/17 46/16/15 9/19/18
f 48/20/19 47/18/17 10/21/20
f 49/22/21 48/20/19 11/23/22
f 50/24/23 49/22/21 12/25/24
f 51/26/25 50/24/23 13/27/23
f 52/28/25 51/26/25 14/29/25
f 53/30/25 52/28/25 15/31/25
f 54/32/25 53/30/25 16/33/25
f 55/34/25 54/32/25 17/35/25
f 56/36/25 55/34/25 18/37/25
f 57/38/25 56/36/25 19/39/25
f 58/40/25 57/38/25 20/41/25
f 59/42/25 58/40/25 21/43/25
f 60/44/25 59/42/25 22/45/25
f 61/46/25 60/44/25 23/47/25
f 62/48/26 61/46/25 24/49/25
f 63/50/27 62/48/26 25/51/28
f 64/52/29 63/50/27 26/53/30
f 65/54/31 64/52/29 27/55/32
f 66/56/33 65/54/31 28/57/34
f 67/58/35 66/56/33 29/59/36
f 68/60/37 67/58/35 30/61/38
f 69/62/39 68/60/37 31/63/40
f 70/64/41 69/62/39 32/65/42
f 71/66/43 70/64/41 33/67/44
f 72/68/45 71/66/43 34/69/46
f 73/70/47 72/68/45 35/71/48
f 74/72/49 73/70/47 36/73/50
f 2/5/4 39/1/1 1/3/2
f 3/7/6 40/4/3 2/5/4
f 4/9/8 41/6/5 3/7/6
f 5/11/10 42/8/7 4/9/8
f 6/13/12 43/10/9 5/11/10
f 7/15/14 44/12/11 6/13/12
f 8/17/16 45/14/13 7/15/14
f 9/19/18 46/16/15 8/17/16
f 10/21/20 47/18/17 9/19/18
f 11/23/22 48/20/19 10/21/20
f 12/25/24 49/22/21 11/23/22
f 13/27/23 50/24/23 12/25/24
f 14/29/25 51/26/25 13/27/23
f 15/31/25 52/28/25 14/29/25
f 16/33/25 53/30/25 15/31/25
f 17/35/25 54/32/25 16/33/25
f 18/37/25 55/34/25 17/35/25
f 19/39/25 56/36/25 18/37/25
f 20/41/25 57/38/25 19/39/25
f 21/43/25 58/40/25 20/41/25
f 22/45/25 59/42/25 21/43/25
f 23/47/25 60/44/25 22/45/25
f 24/49/25 61/46/25 23/47/25
f 25/51/28 62/48/26 24/49/25
f 26/53/30 63/50/27 25/51/28
f 27/55/32 64/52/29 26/53/30
f 28/57/34 65/54/31 27/55/32
f 29/59/36 66/56/33 28/57/34
f 30/61/38 67/58/35 29/59/36
f 31/63/40 68/60/37 30/61/38
f 32/65/42 69/62/39 31/63/40
f 33/67/44 70/64/41 32/65/42
f 34/69/46 71/66/43 33/67/44
f 35/71/48 72/68/45 34/69/46
f 36/73/50 73/70/47 35/71/48
f 37/74/49 74/72/49 36/73/50
