# Blender v2.74 (sub 0) OBJ File: ''
# www.blender.org
mtllib 01_Start.mtl
o 01_Start_Mesh.000
v 0.769926 -0.058013 1.449606
v 0.769983 -0.080986 1.449617
v 1.185022 -0.080985 -0.961683
v 0.769526 -0.038856 1.449537
v 1.184965 -0.058011 -0.961695
v 0.768442 -0.023173 1.449354
v 1.184565 -0.038855 -0.961767
v 0.766333 -0.010615 1.448992
v 1.183485 -0.023173 -0.961966
v 0.762854 -0.000835 1.448395
v 1.181379 -0.010615 -0.962349
v 0.757662 0.006515 1.447504
v 1.177904 -0.000835 -0.962984
v 0.750418 0.011781 1.446264
v 1.172724 0.006515 -0.963930
v 0.740778 0.015311 1.444613
v 1.165495 0.011781 -0.965250
v 0.728399 0.017452 1.442492
v 1.155874 0.015311 -0.967005
v 0.712942 0.018552 1.439840
v 1.143518 0.017452 -0.969263
v 0.694063 0.018957 1.436605
v 1.128088 0.018552 -0.972078
v 0.671419 0.019015 1.432726
v 1.109247 0.018957 -0.975519
v 0.547930 0.019015 1.411562
v 1.086645 0.019015 -0.979647
v 0.422731 0.019015 1.390104
v 0.963385 0.019015 -1.002153
v 0.294107 0.019015 1.368059
v 0.838419 0.019015 -1.024973
v 0.160353 0.019015 1.345137
v 0.710039 0.019015 -1.048414
v 0.019751 0.019015 1.321039
v 0.576532 0.019015 -1.072792
v -0.129404 0.019015 1.295477
v 0.436193 0.019015 -1.098417
v -0.288828 0.019015 1.268152
v 0.287317 0.019015 -1.125601
v -0.460230 0.019015 1.238779
v 0.128191 0.019015 -1.154657
v -0.645321 0.019015 1.207056
v -0.042887 0.019015 -1.185896
v -0.845812 0.019015 1.172695
v -0.227633 0.019015 -1.219629
v -1.063416 0.019015 1.135401
v -0.427748 0.019015 -1.256170
v -1.299841 0.019015 1.094881
v -0.644945 0.019015 -1.295830
v -1.322485 0.018957 1.091002
v -0.880928 0.019015 -1.338921
v -1.341364 0.018552 1.087767
v -0.903530 0.018957 -1.343046
v -1.356821 0.017452 1.085115
v -0.922375 0.018552 -1.346487
v -1.369200 0.015311 1.082994
v -0.937803 0.017452 -1.349306
v -1.378839 0.011781 1.081343
v -0.950157 0.015311 -1.351561
v -1.386084 0.006515 1.080103
v -0.959780 0.011781 -1.353319
v -1.391275 -0.000835 1.079212
v -0.967009 0.006515 -1.354639
v -1.394754 -0.010615 1.078615
v -0.972189 -0.000835 -1.355585
v -1.396864 -0.023173 1.078253
v -0.975664 -0.010615 -1.356218
v -1.397947 -0.038855 1.078070
v -0.977770 -0.023173 -1.356604
v -1.398348 -0.058011 1.078001
v -0.978851 -0.038855 -1.356802
v -0.979307 -0.080985 -1.356884
v -1.398405 -0.080985 1.077990
v -0.979250 -0.058011 -1.356874
vt 0.273768 0.774869
vt 0.273056 0.774866
vt 0.273432 0.738999
vt 0.274479 0.774871
vt 0.274130 0.738983
vt 0.275191 0.774873
vt 0.274827 0.738965
vt 0.275901 0.774873
vt 0.275525 0.738947
vt 0.276612 0.774874
vt 0.276223 0.738928
vt 0.277323 0.774874
vt 0.276921 0.738908
vt 0.278034 0.774875
vt 0.277620 0.738889
vt 0.278746 0.774875
vt 0.278319 0.738869
vt 0.279458 0.774875
vt 0.279020 0.738849
vt 0.280170 0.774876
vt 0.279721 0.738829
vt 0.280883 0.774877
vt 0.280424 0.738809
vt 0.281596 0.774878
vt 0.281129 0.738789
vt 0.283692 0.774891
vt 0.281834 0.738769
vt 0.285820 0.774903
vt 0.283625 0.738757
vt 0.288007 0.774915
vt 0.285758 0.738741
vt 0.290282 0.774926
vt 0.287954 0.738723
vt 0.292675 0.774937
vt 0.290243 0.738704
vt 0.295215 0.774947
vt 0.292652 0.738684
vt 0.297930 0.774955
vt 0.295211 0.738662
vt 0.300850 0.774962
vt 0.297949 0.738640
vt 0.304005 0.774967
vt 0.300892 0.738615
vt 0.307422 0.774968
vt 0.304068 0.738586
vt 0.311131 0.774965
vt 0.307504 0.738550
vt 0.315158 0.774955
vt 0.311221 0.738502
vt 0.315876 0.774954
vt 0.315239 0.738429
vt 0.316593 0.774951
vt 0.315949 0.738433
vt 0.317310 0.774948
vt 0.316659 0.738435
vt 0.318027 0.774945
vt 0.317368 0.738437
vt 0.318743 0.774942
vt 0.318076 0.738438
vt 0.319459 0.774939
vt 0.318784 0.738439
vt 0.320176 0.774935
vt 0.319492 0.738439
vt 0.320892 0.774932
vt 0.320199 0.738439
vt 0.321609 0.774930
vt 0.320907 0.738438
vt 0.322326 0.774927
vt 0.321614 0.738438
vt 0.323044 0.774926
vt 0.322321 0.738438
vt 0.323737 0.738437
vt 0.323763 0.774925
vt 0.323029 0.738437
vn 0.985400 0.011900 0.169600
vn 0.985500 0.002500 0.169600
vn 0.984500 0.045600 0.169500
vn 0.978500 0.119100 0.168400
vn 0.984500 0.045500 0.169500
vn 0.953000 0.254800 0.164000
vn 0.872300 0.465400 0.150100
vn 0.952900 0.255000 0.164000
vn 0.696800 0.707200 0.119900
vn 0.872100 0.465800 0.150100
vn 0.458600 0.885100 0.078900
vn 0.696400 0.707600 0.119900
vn 0.251000 0.967000 0.043200
vn 0.458000 0.885400 0.078800
vn 0.117400 0.992900 0.020200
vn 0.250600 0.967100 0.043100
vn 0.044900 0.999000 0.007700
vn 0.117100 0.992900 0.020200
vn 0.011700 0.999900 0.002000
vn 0.044800 0.999000 0.007700
vn 0.001200 1.000000 0.000200
vn 0.011600 0.999900 0.002000
vn -0.000000 1.000000 0.000000
vn -0.001200 1.000000 -0.000200
vn -0.011700 0.999900 -0.002000
vn -0.001300 1.000000 -0.000200
vn -0.044900 0.999000 -0.007700
vn -0.117400 0.992900 -0.020200
vn -0.045100 0.999000 -0.007800
vn -0.251100 0.967000 -0.043200
vn -0.117700 0.992800 -0.020300
vn -0.458700 0.885100 -0.078900
vn -0.251600 0.966900 -0.043300
vn -0.696900 0.707100 -0.119900
vn -0.459300 0.884700 -0.079100
vn -0.872300 0.465400 -0.150100
vn -0.697400 0.706500 -0.120000
vn -0.953000 0.254800 -0.164000
vn -0.872400 0.465100 -0.150200
vn -0.978500 0.119100 -0.168400
vn -0.953000 0.254700 -0.164000
vn -0.984500 0.045600 -0.169500
vn -0.985400 0.011900 -0.169600
vn -0.984500 0.045500 -0.169500
vn -0.985500 0.002500 -0.169600
vn -0.985400 0.011800 -0.169600
usemtl Material.004
s 1
f 1/1/1 2/2/2 3/3/2
f 4/4/3 1/1/1 5/5/1
f 6/6/4 4/4/3 7/7/5
f 8/8/6 6/6/4 9/9/4
f 10/10/7 8/8/6 11/11/8
f 12/12/9 10/10/7 13/13/10
f 14/14/11 12/12/9 15/15/12
f 16/16/13 14/14/11 17/17/14
f 18/18/15 16/16/13 19/19/16
f 20/20/17 18/18/15 21/21/18
f 22/22/19 20/20/17 23/23/20
f 24/24/21 22/22/19 25/25/22
f 26/26/23 24/24/21 27/27/21
f 28/28/23 26/26/23 29/29/23
f 30/30/23 28/28/23 31/31/23
f 32/32/23 30/30/23 33/33/23
f 34/34/23 32/32/23 35/35/23
f 36/36/23 34/34/23 37/37/23
f 38/38/23 36/36/23 39/39/23
f 40/40/23 38/38/23 41/41/23
f 42/42/23 40/40/23 43/43/23
f 44/44/23 42/42/23 45/45/23
f 46/46/23 44/44/23 47/47/23
f 48/48/24 46/46/23 49/49/23
f 50/50/25 48/48/24 51/51/26
f 52/52/27 50/50/25 53/53/25
f 54/54/28 52/52/27 55/55/29
f 56/56/30 54/54/28 57/57/31
f 58/58/32 56/56/30 59/59/33
f 60/60/34 58/58/32 61/61/35
f 62/62/36 60/60/34 63/63/37
f 64/64/38 62/62/36 65/65/39
f 66/66/40 64/64/38 67/67/41
f 68/68/42 66/66/40 69/69/40
f 70/70/43 68/68/42 71/71/44
f 72/72/45 73/73/45 70/70/43
f 5/5/1 1/1/1 3/3/2
f 7/7/5 4/4/3 5/5/1
f 9/9/4 6/6/4 7/7/5
f 11/11/8 8/8/6 9/9/4
f 13/13/10 10/10/7 11/11/8
f 15/15/12 12/12/9 13/13/10
f 17/17/14 14/14/11 15/15/12
f 19/19/16 16/16/13 17/17/14
f 21/21/18 18/18/15 19/19/16
f 23/23/20 20/20/17 21/21/18
f 25/25/22 22/22/19 23/23/20
f 27/27/21 24/24/21 25/25/22
f 29/29/23 26/26/23 27/27/21
f 31/31/23 28/28/23 29/29/23
f 33/33/23 30/30/23 31/31/23
f 35/35/23 32/32/23 33/33/23
f 37/37/23 34/34/23 35/35/23
f 39/39/23 36/36/23 37/37/23
f 41/41/23 38/38/23 39/39/23
f 43/43/23 40/40/23 41/41/23
f 45/45/23 42/42/23 43/43/23
f 47/47/23 44/44/23 45/45/23
f 49/49/23 46/46/23 47/47/23
f 51/51/26 48/48/24 49/49/23
f 53/53/25 50/50/25 51/51/26
f 55/55/29 52/52/27 53/53/25
f 57/57/31 54/54/28 55/55/29
f 59/59/33 56/56/30 57/57/31
f 61/61/35 58/58/32 59/59/33
f 63/63/37 60/60/34 61/61/35
f 65/65/39 62/62/36 63/63/37
f 67/67/41 64/64/38 65/65/39
f 69/69/40 66/66/40 67/67/41
f 71/71/44 68/68/42 69/69/40
f 74/74/46 70/70/43 71/71/44
f 74/74/46 72/72/45 70/70/43
