# Blender v2.74 (sub 0) OBJ File: ''
# www.blender.org
mtllib 05_Abkz_1_p2.mtl
o 14_Sekt_3_Mesh.008
v -0.237411 0.015671 -1.764803
v 1.484330 0.015671 -0.353472
v 0.744401 0.015671 1.017023
v 1.610680 0.015672 -3.298080
v 3.875024 0.015672 -4.359026
v 4.661996 0.015671 -2.314219
v 2.791054 0.015671 -1.437603
v 6.403798 0.015672 -5.131889
v 6.974652 0.015671 -3.021030
v 9.079755 0.015672 -5.763042
v 9.571965 0.015672 -3.633636
v 11.777772 0.015672 -6.374008
v 14.360929 0.015672 -7.072935
v 15.035611 0.015672 -4.991365
v 12.304749 0.015672 -4.252476
v 16.684132 0.015672 -7.954376
v 17.635334 0.015672 -5.977722
v 18.607880 0.015672 -9.092915
v 20.036499 0.015673 -10.554190
v 21.858299 0.015673 -9.291300
v 19.969109 0.015672 -7.358925
v 22.857609 0.015673 -11.441233
v 23.313164 0.015673 -11.708881
v 20.937813 0.015673 -12.477625
v 21.164806 0.015673 -14.209986
v 23.448811 0.015674 -15.483854
v 24.043446 0.015673 -14.827850
v 23.758820 0.015673 -11.817956
v 25.329876 0.015673 -13.602722
v 24.502575 0.015673 -11.399915
v 25.992928 0.015673 -12.998673
v 25.096184 0.015673 -10.833714
v 26.647602 0.015673 -12.374225
v 25.617043 0.015673 -10.279870
v 27.275089 0.015673 -11.707002
v 26.052288 0.015673 -9.726719
v 27.852386 0.015673 -10.973314
v 28.350212 0.015673 -10.151597
v 26.645073 0.015672 -8.559397
v 26.395344 0.015672 -9.160466
v 28.733856 0.015673 -9.228209
v 26.798882 0.015672 -7.890394
v 28.970043 0.015672 -8.200907
v 26.842621 0.015672 -7.138731
v 29.037067 0.015672 -7.049067
v 26.781292 0.015672 -6.702897
v 28.907276 0.015672 -6.126716
v 28.569809 0.015672 -5.304618
v 26.411140 0.015672 -6.035014
v 26.641323 0.015672 -6.361925
v 28.091080 0.015672 -4.624722
v 27.540321 0.015672 -4.071574
v 25.642941 0.015672 -5.349912
v 26.076340 0.015672 -5.698764
v 26.966362 0.015672 -3.609583
v 25.132862 0.015672 -4.983778
v 25.875118 0.015671 -2.830929
v 26.402122 0.015672 -3.204575
v 25.411751 0.015671 -2.472083
v 23.993050 0.015672 -4.137681
v 24.573418 0.015672 -4.587132
v 25.035080 0.015671 -2.119709
v 24.756981 0.015671 -1.769064
v 22.907837 0.015671 -2.954679
v 23.423534 0.015672 -3.604900
v 24.571575 0.015671 -1.403852
v 22.506672 0.015671 -2.164459
v 24.468964 0.015671 -0.977345
v 22.284771 0.015671 -1.242118
v 24.464355 0.015671 -0.085970
v 22.277401 0.015671 0.183269
v 20.908421 0.015674 -15.789667
v 23.020702 0.015674 -16.417177
v 22.156822 0.015674 -18.369213
v 20.240440 0.015674 -17.299038
v 19.219112 0.015674 -18.785683
v 20.949650 0.015674 -20.126373
v -1.397521 0.015671 0.383928
v 24.675014 0.015673 -14.206436
vt 0.352693 0.439540
vt 0.363548 0.477127
vt 0.374400 0.459552
vt 0.378342 0.420664
vt 0.409138 0.408362
vt 0.392536 0.446205
vt 0.417982 0.436041
vt 0.443213 0.400078
vt 0.449145 0.428465
vt 0.479128 0.393784
vt 0.484004 0.422355
vt 0.515319 0.387773
vt 0.550057 0.380510
vt 0.520661 0.416267
vt 0.557386 0.408589
vt 0.581494 0.370630
vt 0.592565 0.397533
vt 0.607841 0.357039
vt 0.627881 0.338793
vt 0.624527 0.381045
vt 0.651028 0.356916
vt 0.665915 0.329222
vt 0.672152 0.326030
vt 0.641296 0.314022
vt 0.645636 0.291261
vt 0.684224 0.285298
vt 0.676856 0.276155
vt 0.678136 0.324929
vt 0.700312 0.302510
vt 0.687661 0.331036
vt 0.708625 0.311018
vt 0.695084 0.338990
vt 0.716811 0.319790
vt 0.701553 0.346724
vt 0.724605 0.329107
vt 0.706890 0.354383
vt 0.731683 0.339265
vt 0.737641 0.350528
vt 0.710995 0.362144
vt 0.713839 0.370294
vt 0.742008 0.363049
vt 0.715359 0.379270
vt 0.744344 0.376832
vt 0.715359 0.389255
vt 0.744344 0.392133
vt 0.714212 0.394978
vt 0.741915 0.404245
vt 0.736814 0.414869
vt 0.712096 0.399385
vt 0.708797 0.403536
vt 0.729952 0.423501
vt 0.722234 0.430401
vt 0.704105 0.407730
vt 0.698098 0.412014
vt 0.714279 0.436075
vt 0.691063 0.416469
vt 0.699231 0.445543
vt 0.706496 0.441002
vt 0.692820 0.449937
vt 0.683350 0.421289
vt 0.675320 0.426792
vt 0.687562 0.454312
vt 0.683610 0.458740
vt 0.667370 0.433407
vt 0.660041 0.441619
vt 0.680874 0.463433
vt 0.654121 0.451772
vt 0.650473 0.463812
vt 0.679186 0.469000
vt 0.678439 0.480798
vt 0.649277 0.482678
vt 0.643458 0.270149
vt 0.671908 0.263469
vt 0.661974 0.236959
vt 0.635778 0.249651
vt 0.647346 0.212765
vt 0.623401 0.229182
vt 0.335678 0.467095
vt 0.692107 0.294012
vn -0.000000 1.000000 0.000000
usemtl Material.043
s 1
f 1/1/1 3/2/1 2/3/1
f 2/3/1 4/4/1 1/1/1
f 5/5/1 7/6/1 6/7/1
f 6/7/1 8/8/1 5/5/1
f 9/9/1 10/10/1 8/8/1
f 11/11/1 12/12/1 10/10/1
f 13/13/1 15/14/1 14/15/1
f 16/16/1 14/15/1 17/17/1
f 17/17/1 18/18/1 16/16/1
f 19/19/1 21/20/1 20/21/1
f 22/22/1 19/19/1 20/21/1
f 23/23/1 24/24/1 22/22/1
f 25/25/1 27/26/1 26/27/1
f 28/28/1 27/26/1 23/23/1
f 29/29/1 28/28/1 30/30/1
f 31/31/1 30/30/1 32/32/1
f 33/33/1 32/32/1 34/34/1
f 35/35/1 34/34/1 36/36/1
f 36/36/1 37/37/1 35/35/1
f 38/38/1 40/39/1 39/40/1
f 41/41/1 39/40/1 42/42/1
f 42/42/1 43/43/1 41/41/1
f 44/44/1 45/45/1 43/43/1
f 46/46/1 47/47/1 45/45/1
f 48/48/1 50/49/1 49/50/1
f 49/50/1 51/51/1 48/48/1
f 52/52/1 54/53/1 53/54/1
f 55/55/1 53/54/1 56/56/1
f 57/57/1 58/58/1 56/56/1
f 59/59/1 61/60/1 60/61/1
f 60/61/1 62/62/1 59/59/1
f 63/63/1 65/64/1 64/65/1
f 66/66/1 64/65/1 67/67/1
f 66/66/1 69/68/1 68/69/1
f 70/70/1 69/68/1 71/71/1
f 72/72/1 26/27/1 73/73/1
f 74/74/1 72/72/1 73/73/1
f 75/75/1 77/76/1 76/77/1
f 78/78/1 3/2/1 1/1/1
f 7/6/1 4/4/1 2/3/1
f 4/4/1 7/6/1 5/5/1
f 9/9/1 8/8/1 6/7/1
f 11/11/1 10/10/1 9/9/1
f 15/14/1 12/12/1 11/11/1
f 12/12/1 15/14/1 13/13/1
f 13/13/1 14/15/1 16/16/1
f 21/20/1 18/18/1 17/17/1
f 18/18/1 21/20/1 19/19/1
f 24/24/1 19/19/1 22/22/1
f 25/25/1 24/24/1 23/23/1
f 23/23/1 27/26/1 25/25/1
f 79/79/1 27/26/1 28/28/1
f 79/79/1 28/28/1 29/29/1
f 29/29/1 30/30/1 31/31/1
f 31/31/1 32/32/1 33/33/1
f 33/33/1 34/34/1 35/35/1
f 40/39/1 37/37/1 36/36/1
f 37/37/1 40/39/1 38/38/1
f 38/38/1 39/40/1 41/41/1
f 44/44/1 43/43/1 42/42/1
f 46/46/1 45/45/1 44/44/1
f 50/49/1 47/47/1 46/46/1
f 47/47/1 50/49/1 48/48/1
f 54/53/1 51/51/1 49/50/1
f 51/51/1 54/53/1 52/52/1
f 52/52/1 53/54/1 55/55/1
f 56/56/1 61/60/1 57/57/1
f 56/56/1 58/58/1 55/55/1
f 57/57/1 61/60/1 59/59/1
f 65/64/1 62/62/1 60/61/1
f 62/62/1 65/64/1 63/63/1
f 63/63/1 64/65/1 66/66/1
f 67/67/1 69/68/1 66/66/1
f 68/69/1 69/68/1 70/70/1
f 25/25/1 26/27/1 72/72/1
f 75/75/1 72/72/1 74/74/1
f 74/74/1 77/76/1 75/75/1
