# Blender v2.74 (sub 0) OBJ File: 'Rennstrecke_Parted.blend'
# www.blender.org
mtllib 08_CP_3.mtl
o 08_CP_3_Mesh.030
v -18.861336 -0.080977 -28.861267
v -18.861336 -0.058003 -28.861206
v -18.861320 -0.038847 -28.860802
v -18.861286 -0.023165 -28.859695
v -18.861214 -0.010607 -28.857552
v -18.861099 -0.000827 -28.854012
v -18.860928 0.006523 -28.848740
v -18.860683 0.011789 -28.841370
v -18.860363 0.015319 -28.831573
v -18.859951 0.017460 -28.818985
v -18.859436 0.018560 -28.803268
v -18.858807 0.018965 -28.784073
v -18.858051 0.019023 -28.761047
v -18.853935 0.019023 -28.635490
v -18.849762 0.019023 -28.508194
v -18.845470 0.019023 -28.377419
v -18.841011 0.019023 -28.241417
v -18.836327 0.019023 -28.098457
v -18.831352 0.019023 -27.946808
v -18.826038 0.019023 -27.784706
v -18.820324 0.019023 -27.610435
v -18.814152 0.019023 -27.422241
v -18.807468 0.019023 -27.218391
v -18.800213 0.019023 -26.997139
v -18.792332 0.019023 -26.756752
v -18.791576 0.018965 -26.733734
v -18.790947 0.018560 -26.714539
v -18.790432 0.017460 -26.698822
v -18.790020 0.015319 -26.686234
v -18.789700 0.011789 -26.676430
v -18.789455 0.006523 -26.669067
v -18.789284 -0.000827 -26.663788
v -18.789169 -0.010607 -26.660255
v -18.789097 -0.023165 -26.658104
v -18.789062 -0.038847 -26.657005
v -18.789047 -0.058003 -26.656601
v -18.789047 -0.080977 -26.656540
v -17.144260 -0.080977 -28.791824
v -17.144272 -0.058003 -28.791763
v -17.144329 -0.038847 -28.791359
v -17.144493 -0.023165 -28.790268
v -17.144806 -0.010607 -28.788139
v -17.145329 -0.000827 -28.784622
v -17.146103 0.006523 -28.779388
v -17.147186 0.011789 -28.772072
v -17.148628 0.015319 -28.762344
v -17.150478 0.017460 -28.749847
v -17.152790 0.018560 -28.734245
v -17.155617 0.018965 -28.715195
v -17.159000 0.019023 -28.692337
v -17.177471 0.019023 -28.567688
v -17.196194 0.019023 -28.441315
v -17.215427 0.019023 -28.311493
v -17.235432 0.019023 -28.176483
v -17.256458 0.019023 -28.034569
v -17.278767 0.019023 -27.884010
v -17.302608 0.019023 -27.723099
v -17.328243 0.019023 -27.550095
v -17.355923 0.019023 -27.363266
v -17.385906 0.019023 -27.160896
v -17.418449 0.019023 -26.941261
v -17.453808 0.019023 -26.702621
v -17.457191 0.018965 -26.679764
v -17.460018 0.018560 -26.660706
v -17.462330 0.017460 -26.645103
v -17.464180 0.015319 -26.632614
v -17.465622 0.011789 -26.622887
v -17.466705 0.006523 -26.615570
v -17.467480 -0.000827 -26.610329
v -17.468002 -0.010607 -26.606819
v -17.468315 -0.023165 -26.604691
v -17.468479 -0.038847 -26.603600
v -17.468536 -0.058003 -26.603195
v -17.468548 -0.080977 -26.603134
vt 0.277847 0.716497
vt 0.277324 0.716462
vt 0.277440 0.689160
vt 0.278332 0.716526
vt 0.277910 0.689213
vt 0.278768 0.716549
vt 0.278378 0.689266
vt 0.279178 0.716565
vt 0.278846 0.689316
vt 0.279588 0.716573
vt 0.279312 0.689366
vt 0.280000 0.716567
vt 0.279777 0.689415
vt 0.280414 0.716548
vt 0.280242 0.689464
vt 0.280828 0.716523
vt 0.280705 0.689515
vt 0.281242 0.716498
vt 0.281168 0.689564
vt 0.281674 0.716474
vt 0.281629 0.689614
vt 0.282153 0.716448
vt 0.282090 0.689662
vt 0.282666 0.716421
vt 0.282550 0.689712
vt 0.284886 0.716502
vt 0.283010 0.689761
vt 0.287137 0.716536
vt 0.285026 0.689932
vt 0.289448 0.716526
vt 0.287077 0.690111
vt 0.291848 0.716472
vt 0.290729 0.690221
vt 0.294365 0.716371
vt 0.292935 0.690417
vt 0.297028 0.716217
vt 0.295259 0.690624
vt 0.299866 0.716001
vt 0.297729 0.690843
vt 0.302905 0.715712
vt 0.300374 0.691077
vt 0.306172 0.715332
vt 0.303221 0.691327
vt 0.309692 0.714835
vt 0.306295 0.691598
vt 0.312028 0.714106
vt 0.309622 0.691894
vt 0.316123 0.713231
vt 0.312226 0.692150
vt 0.316514 0.713164
vt 0.316124 0.692311
vt 0.316877 0.713107
vt 0.316490 0.692799
vt 0.317202 0.713060
vt 0.316855 0.692827
vt 0.317499 0.713021
vt 0.317218 0.692853
vt 0.317795 0.712984
vt 0.317579 0.692881
vt 0.318088 0.712948
vt 0.317938 0.692906
vt 0.318379 0.712914
vt 0.318294 0.692934
vt 0.318670 0.712881
vt 0.318650 0.692960
vt 0.318962 0.712851
vt 0.319004 0.692985
vt 0.319281 0.712816
vt 0.319359 0.693012
vt 0.319635 0.712774
vt 0.319714 0.693039
vt 0.320023 0.712719
vt 0.320068 0.693067
vt 0.320430 0.693096
vn 0.040400 0.011900 -0.999100
vn 0.040400 0.002700 -0.999200
vn 0.040400 0.002600 -0.999200
vn 0.040300 0.045400 -0.998100
vn 0.040400 0.011800 -0.999100
vn 0.040100 0.118600 -0.992100
vn 0.040300 0.045600 -0.998100
vn 0.039100 0.253500 -0.966600
vn 0.040100 0.118900 -0.992100
vn 0.035800 0.461500 -0.886400
vn 0.039100 0.253800 -0.966500
vn 0.028800 0.701400 -0.712100
vn 0.035800 0.462600 -0.885800
vn 0.019100 0.881300 -0.472200
vn 0.028700 0.703200 -0.710400
vn 0.010500 0.965500 -0.260200
vn 0.019000 0.882500 -0.470000
vn 0.004900 0.992500 -0.122300
vn 0.010400 0.965900 -0.258500
vn 0.001900 0.998900 -0.047200
vn 0.004900 0.992600 -0.121300
vn 0.000500 0.999900 -0.012500
vn 0.001900 0.998900 -0.046600
vn 0.000000 1.000000 -0.001300
vn 0.000500 0.999900 -0.012200
vn 0.000000 1.000000 0.000000
vn -0.000000 1.000000 0.001200
vn -0.000400 0.999900 0.011200
vn -0.001800 0.999000 0.043900
vn -0.000500 0.999900 0.011400
vn -0.004700 0.993300 0.115800
vn -0.001800 0.999000 0.044400
vn -0.010100 0.968400 0.249000
vn -0.004700 0.993100 0.116800
vn -0.018500 0.888900 0.457600
vn -0.010100 0.968000 0.250600
vn -0.028300 0.712700 0.700800
vn -0.018600 0.887700 0.460000
vn -0.035700 0.469200 0.882400
vn -0.028400 0.710900 0.702700
vn -0.039100 0.256100 0.965800
vn -0.035700 0.467800 0.883100
vn -0.040100 0.119400 0.992000
vn -0.039100 0.255800 0.965900
vn -0.040300 0.045600 0.998100
vn -0.040100 0.119500 0.992000
vn -0.040400 0.011900 0.999100
vn -0.040300 0.045400 0.998100
vn -0.040400 0.002700 0.999200
vn -0.040400 0.011800 0.999100
usemtl Material
s 1
f 39/1/1 38/2/2 1/3/3
f 40/4/4 39/1/1 2/5/5
f 41/6/6 40/4/4 3/7/7
f 42/8/8 41/6/6 4/9/9
f 43/10/10 42/8/8 5/11/11
f 44/12/12 43/10/10 6/13/13
f 45/14/14 44/12/12 7/15/15
f 46/16/16 45/14/14 8/17/17
f 47/18/18 46/16/16 9/19/19
f 48/20/20 47/18/18 10/21/21
f 49/22/22 48/20/20 11/23/23
f 50/24/24 49/22/22 12/25/25
f 51/26/26 50/24/24 13/27/24
f 52/28/26 51/26/26 14/29/26
f 53/30/26 52/28/26 15/31/26
f 54/32/26 53/30/26 16/33/26
f 55/34/26 54/32/26 17/35/26
f 56/36/26 55/34/26 18/37/26
f 57/38/26 56/36/26 19/39/26
f 58/40/26 57/38/26 20/41/26
f 59/42/26 58/40/26 21/43/26
f 60/44/26 59/42/26 22/45/26
f 61/46/26 60/44/26 23/47/26
f 62/48/27 61/46/26 24/49/26
f 63/50/28 62/48/27 25/51/27
f 64/52/29 63/50/28 26/53/30
f 65/54/31 64/52/29 27/55/32
f 66/56/33 65/54/31 28/57/34
f 67/58/35 66/56/33 29/59/36
f 68/60/37 67/58/35 30/61/38
f 69/62/39 68/60/37 31/63/40
f 70/64/41 69/62/39 32/65/42
f 71/66/43 70/64/41 33/67/44
f 72/68/45 71/66/43 34/69/46
f 73/70/47 72/68/45 35/71/48
f 74/72/49 73/70/47 36/73/50
f 2/5/5 39/1/1 1/3/3
f 3/7/7 40/4/4 2/5/5
f 4/9/9 41/6/6 3/7/7
f 5/11/11 42/8/8 4/9/9
f 6/13/13 43/10/10 5/11/11
f 7/15/15 44/12/12 6/13/13
f 8/17/17 45/14/14 7/15/15
f 9/19/19 46/16/16 8/17/17
f 10/21/21 47/18/18 9/19/19
f 11/23/23 48/20/20 10/21/21
f 12/25/25 49/22/22 11/23/23
f 13/27/24 50/24/24 12/25/25
f 14/29/26 51/26/26 13/27/24
f 15/31/26 52/28/26 14/29/26
f 16/33/26 53/30/26 15/31/26
f 17/35/26 54/32/26 16/33/26
f 18/37/26 55/34/26 17/35/26
f 19/39/26 56/36/26 18/37/26
f 20/41/26 57/38/26 19/39/26
f 21/43/26 58/40/26 20/41/26
f 22/45/26 59/42/26 21/43/26
f 23/47/26 60/44/26 22/45/26
f 24/49/26 61/46/26 23/47/26
f 25/51/27 62/48/27 24/49/26
f 26/53/30 63/50/28 25/51/27
f 27/55/32 64/52/29 26/53/30
f 28/57/34 65/54/31 27/55/32
f 29/59/36 66/56/33 28/57/34
f 30/61/38 67/58/35 29/59/36
f 31/63/40 68/60/37 30/61/38
f 32/65/42 69/62/39 31/63/40
f 33/67/44 70/64/41 32/65/42
f 34/69/46 71/66/43 33/67/44
f 35/71/48 72/68/45 34/69/46
f 36/73/50 73/70/47 35/71/48
f 37/74/49 74/72/49 36/73/50
