# Blender v2.74 (sub 0) OBJ File: ''
# www.blender.org
o 14_Sekt_3.005_Mesh.004
v 1.674225 0.015756 0.873154
v 1.711506 0.015756 -1.325317
v -1.106113 0.015756 -1.058188
v 4.637024 0.015756 -0.952332
v 6.458427 0.015756 -0.473557
v 4.219246 0.015756 1.197624
v 5.856781 0.015756 1.628067
v 7.566967 0.015756 2.158203
v 9.256359 0.015756 2.776413
v 10.068661 0.015756 0.746391
v 8.266491 0.015756 0.086914
v 10.879406 0.015755 3.482727
v 11.824482 0.015756 1.510490
v 12.390244 0.015755 4.275558
v 13.493805 0.015756 2.386490
v 14.888805 0.015755 3.288845
v -1.428507 0.015758 -9.746330
v -1.978103 0.015757 -6.169865
v -0.335909 0.015757 -6.232555
v 0.363383 0.015758 -9.429298
v 1.112225 0.015757 -6.120220
v 3.466784 0.015757 -8.266556
v 1.870754 0.015757 -8.892509
v 4.834455 0.015757 -7.672062
v 2.400423 0.015757 -5.555677
v 6.109636 0.015757 -6.587044
v 3.498579 0.015757 -4.469404
v 8.156942 0.015757 -6.381912
v 4.868092 0.015757 -3.566250
v 9.597691 0.015757 -5.508728
v 6.166937 0.015756 -2.146233
v 11.050291 0.015757 -4.515217
v 8.729767 0.015756 -0.833254
v 9.539728 0.015756 -0.408886
v 10.571659 0.015756 -1.122688
v 12.520819 0.015757 -3.400593
v 11.443523 0.015756 -0.425156
v 13.429327 0.015756 -2.673748
v 12.260536 0.015756 0.251251
v 14.364918 0.015756 -1.832851
v 13.009586 0.015756 0.910488
v 13.687584 0.015756 1.563519
v 15.936523 0.015756 -0.386475
v 15.175594 0.015756 -1.119377
v 14.292824 0.015756 2.221401
v 14.825291 0.015756 2.896042
v 17.286331 0.015756 1.196667
v 16.642422 0.015756 0.380829
v 17.859776 0.015756 2.073399
v 12.281827 0.015753 17.788307
v 14.375734 0.015753 17.595726
v 13.755743 0.015754 14.395093
v 16.894558 0.015753 16.598583
v 14.940016 0.015754 13.927995
v 18.414921 0.015754 15.173194
v 15.859831 0.015754 13.065640
v 19.436058 0.015754 13.062064
v 16.421553 0.015754 11.946368
v 19.798637 0.015754 11.177850
v 16.677938 0.015754 10.614018
v 19.769886 0.015755 8.831568
v 16.238089 0.015755 8.281439
v 16.603968 0.015754 9.402075
v 19.395679 0.015755 6.729277
v 19.178959 0.015755 5.526468
v 15.804787 0.015755 7.112122
v 18.865700 0.015755 4.415731
v 14.894119 0.015755 6.100128
v 18.459187 0.015755 3.389872
v 13.743149 0.015755 5.150688
v -0.696262 0.015756 1.098626
v 12.155019 0.015754 14.540730
vt 0.699560 0.783590
vt 0.687255 0.807577
vt 0.657944 0.789253
vt 0.719772 0.820732
vt 0.742697 0.827392
vt 0.727088 0.793554
vt 0.750181 0.800089
vt 0.773757 0.805133
vt 0.796207 0.809123
vt 0.791638 0.837207
vt 0.767063 0.833446
vt 0.818856 0.811890
vt 0.816859 0.840876
vt 0.842031 0.812183
vt 0.841204 0.841932
vt 0.866645 0.841868
vt 0.604733 0.883214
vt 0.611976 0.859295
vt 0.631452 0.864189
vt 0.624798 0.888921
vt 0.649559 0.868356
vt 0.663830 0.896448
vt 0.644554 0.893167
vt 0.682792 0.898568
vt 0.666345 0.870941
vt 0.702644 0.899513
vt 0.685169 0.872301
vt 0.722852 0.899453
vt 0.703665 0.874000
vt 0.743240 0.898217
vt 0.722592 0.874466
vt 0.763811 0.897724
vt 0.741484 0.873336
vt 0.761952 0.872499
vt 0.782062 0.869863
vt 0.784640 0.896754
vt 0.797675 0.868644
vt 0.800082 0.895622
vt 0.812418 0.865934
vt 0.816912 0.894082
vt 0.826038 0.863445
vt 0.838675 0.859827
vt 0.846458 0.887944
vt 0.831590 0.891226
vt 0.850397 0.856092
vt 0.860980 0.850831
vt 0.875932 0.877413
vt 0.861088 0.883028
vt 0.888214 0.870624
vt 0.961253 0.639119
vt 0.970508 0.666008
vt 0.935130 0.679310
vt 0.979020 0.693898
vt 0.944872 0.702760
vt 0.980367 0.723835
vt 0.949230 0.724235
vt 0.975552 0.752999
vt 0.946701 0.745533
vt 0.966852 0.777679
vt 0.940144 0.763306
vt 0.953963 0.798392
vt 0.916491 0.790860
vt 0.929598 0.778555
vt 0.938492 0.821184
vt 0.926248 0.836141
vt 0.902384 0.800175
vt 0.914358 0.849652
vt 0.886539 0.805858
vt 0.904416 0.859548
vt 0.864799 0.810949
vt 0.000000 0.000000
vt 0.674700 0.767736
vt 0.926605 0.648790
vn 0.000000 1.000000 0.000000
s 1
f 1/1/1 2/2/1 3/3/1
f 4/4/1 2/2/1 1/1/1
f 5/5/1 4/4/1 6/6/1
f 5/5/1 7/7/1 8/8/1
f 9/9/1 10/10/1 11/11/1
f 12/12/1 13/13/1 10/10/1
f 14/14/1 15/15/1 13/13/1
f 16/16/1 15/15/1 14/14/1
f 17/17/1 18/18/1 19/19/1
f 20/20/1 19/19/1 21/21/1
f 22/22/1 23/23/1 21/21/1
f 24/24/1 22/22/1 25/25/1
f 26/26/1 24/24/1 27/27/1
f 28/28/1 26/26/1 29/29/1
f 30/30/1 28/28/1 31/31/1
f 32/32/1 30/30/1 33/33/1
f 32/32/1 34/34/1 35/35/1
f 36/36/1 35/35/1 37/37/1
f 38/38/1 37/37/1 39/39/1
f 40/40/1 39/39/1 41/41/1
f 42/42/1 43/43/1 44/44/1
f 43/43/1 42/42/1 45/45/1
f 46/46/1 47/47/1 48/48/1
f 46/46/1 16/16/1 49/49/1
f 50/50/1 51/51/1 52/52/1
f 51/51/1 53/53/1 54/54/1
f 53/53/1 55/55/1 56/56/1
f 56/56/1 55/55/1 57/57/1
f 58/58/1 57/57/1 59/59/1
f 60/60/1 59/59/1 61/61/1
f 62/62/1 63/63/1 61/61/1
f 64/64/1 65/65/1 66/66/1
f 66/66/1 65/65/1 67/67/1
f 68/68/1 67/67/1 69/69/1
f 16/16/1 70/70/1 69/69/1
f 31/29/1 29/71/1 4/5/1
f 33/31/1 31/71/1 5/11/1
f 34/33/1 33/71/1 11/10/1
f 10/71/1 37/35/1 35/34/1
f 13/71/1 39/37/1 37/71/1
f 41/39/1 39/71/1 13/15/1
f 15/71/1 45/42/1 42/41/1
f 46/45/1 45/71/1 15/16/1
f 71/72/1 1/1/1 3/3/1
f 6/6/1 4/4/1 1/1/1
f 7/7/1 5/5/1 6/6/1
f 11/11/1 5/5/1 8/8/1
f 8/8/1 9/9/1 11/11/1
f 9/9/1 12/12/1 10/10/1
f 12/12/1 14/14/1 13/13/1
f 70/70/1 16/16/1 14/14/1
f 20/20/1 17/17/1 19/19/1
f 23/23/1 20/20/1 21/21/1
f 25/25/1 22/22/1 21/21/1
f 27/27/1 24/24/1 25/25/1
f 29/29/1 26/26/1 27/27/1
f 31/31/1 28/28/1 29/29/1
f 33/33/1 30/30/1 31/31/1
f 34/34/1 32/32/1 33/33/1
f 36/36/1 32/32/1 35/35/1
f 38/38/1 36/36/1 37/37/1
f 40/40/1 38/38/1 39/39/1
f 44/44/1 40/40/1 41/41/1
f 41/41/1 42/42/1 44/44/1
f 48/48/1 43/43/1 45/45/1
f 45/45/1 46/46/1 48/48/1
f 47/47/1 46/46/1 49/49/1
f 72/73/1 50/50/1 52/52/1
f 52/52/1 51/51/1 54/54/1
f 54/54/1 53/53/1 56/56/1
f 58/58/1 56/56/1 57/57/1
f 60/60/1 58/58/1 59/59/1
f 63/63/1 60/60/1 61/61/1
f 64/64/1 62/62/1 61/61/1
f 62/62/1 64/64/1 66/66/1
f 68/68/1 66/66/1 67/67/1
f 70/70/1 68/68/1 69/69/1
f 49/49/1 16/16/1 69/69/1
f 5/71/1 31/29/1 4/5/1
f 11/71/1 33/31/1 5/11/1
f 10/71/1 34/33/1 11/10/1
f 34/71/1 10/71/1 35/34/1
f 10/13/1 13/71/1 37/71/1
f 15/71/1 41/39/1 13/15/1
f 41/71/1 15/71/1 42/41/1
f 16/46/1 46/45/1 15/16/1
