# Blender v2.74 (sub 0) OBJ File: ''
# www.blender.org
mtllib 10_Abkz_2_p2.mtl
o 14_Sekt_3.005_Mesh.025
v -1.075768 0.015756 -1.060230
v -0.665917 0.015756 1.096584
v 1.712368 0.015756 -1.319988
v 1.675087 0.015756 0.878483
v 4.637886 0.015756 -0.947002
v 4.220108 0.015756 1.202953
v 6.459290 0.015756 -0.468227
v 5.857643 0.015756 1.633396
v 8.267353 0.015756 0.092243
v 7.567829 0.015756 2.163532
v 10.069523 0.015756 0.751720
v 9.257221 0.015756 2.781742
v 11.825344 0.015756 1.515820
v 10.880268 0.015756 3.488056
v 13.494667 0.015756 2.391819
v 12.391106 0.015756 4.280888
v 14.889668 0.015756 3.294174
v 13.744011 0.015756 5.156017
v 14.894981 0.015756 6.105457
v 15.805649 0.015756 7.117451
v 16.449791 0.015756 8.181347
v 18.980099 0.015756 8.889606
v 16.815670 0.015756 9.301983
v 19.087914 0.015756 10.656078
v 16.889641 0.015756 10.513927
v 18.725334 0.015756 12.540293
v 16.633255 0.015756 11.846277
v 17.704197 0.015756 14.651423
v 15.913403 0.015756 13.334520
v 16.183834 0.015756 16.076811
v 14.993587 0.015756 14.196875
v 14.323887 0.015756 16.810404
v 13.809315 0.015756 14.663973
v 12.300735 0.015756 17.002985
v 12.279346 0.015756 14.809610
v -1.482624 0.015756 -8.869217
v -1.804747 0.015756 -6.706879
v 0.122656 0.015756 -8.589386
v -0.313084 0.015756 -6.446854
v 1.673952 0.015756 -8.228298
v 1.113087 0.015756 -6.114891
v 3.182131 0.015756 -7.778046
v 2.489136 0.015756 -5.704086
v 4.657553 0.015756 -7.231369
v 3.830944 0.015756 -5.206917
v 6.110498 0.015756 -6.581715
v 5.154469 0.015756 -4.615131
v 7.551640 0.015756 -5.823128
v 6.475277 0.015756 -3.919884
v 8.992388 0.015756 -4.949944
v 7.808197 0.015756 -3.112045
v 10.444988 0.015756 -3.956432
v 9.167225 0.015756 -2.182537
v 11.915516 0.015756 -2.841808
v 10.572521 0.015756 -1.117359
v 12.824024 0.015756 -2.114964
v 11.444386 0.015756 -0.419827
v 13.680550 0.015756 -1.405842
v 12.261398 0.015756 0.256580
v 14.491226 0.015756 -0.692368
v 13.010448 0.015756 0.915817
v 15.252155 0.015756 0.040535
v 13.688446 0.015756 1.568848
v 15.958054 0.015756 0.807838
v 14.293686 0.015756 2.226730
v 16.601963 0.015756 1.623676
v 14.826153 0.015756 2.901371
v 17.175407 0.015756 2.500408
v 17.669399 0.015756 3.447910
v 18.075912 0.015756 4.473770
v 18.389172 0.015756 5.584507
v 18.605892 0.015756 6.787315
vt 0.699560 0.783590
vt 0.687255 0.807577
vt 0.657944 0.789253
vt 0.719772 0.820732
vt 0.742697 0.827392
vt 0.727088 0.793554
vt 0.750181 0.800089
vt 0.773757 0.805133
vt 0.796207 0.809123
vt 0.791638 0.837207
vt 0.767063 0.833446
vt 0.818856 0.811890
vt 0.816859 0.840876
vt 0.842031 0.812183
vt 0.841204 0.841932
vt 0.866645 0.841868
vt 0.604733 0.883214
vt 0.611976 0.859295
vt 0.631452 0.864189
vt 0.624798 0.888921
vt 0.649559 0.868356
vt 0.666345 0.870941
vt 0.663830 0.896448
vt 0.644554 0.893167
vt 0.685169 0.872301
vt 0.702644 0.899513
vt 0.682792 0.898568
vt 0.722852 0.899453
vt 0.703665 0.874000
vt 0.743240 0.898217
vt 0.722592 0.874466
vt 0.763811 0.897724
vt 0.741484 0.873336
vt 0.784640 0.896754
vt 0.761952 0.872499
vt 0.800082 0.895622
vt 0.782062 0.869863
vt 0.797675 0.868644
vt 0.812418 0.865934
vt 0.816912 0.894082
vt 0.826038 0.863445
vt 0.838675 0.859827
vt 0.846458 0.887944
vt 0.831590 0.891226
vt 0.850397 0.856092
vt 0.860980 0.850831
vt 0.875932 0.877413
vt 0.861088 0.883028
vt 0.888214 0.870624
vt 0.961253 0.639119
vt 0.970508 0.666008
vt 0.935130 0.679310
vt 0.979020 0.693898
vt 0.944872 0.702760
vt 0.980367 0.723835
vt 0.949230 0.724235
vt 0.975552 0.752999
vt 0.946701 0.745533
vt 0.966852 0.777679
vt 0.953963 0.798392
vt 0.929598 0.778555
vt 0.916491 0.790860
vt 0.938492 0.821184
vt 0.926248 0.836141
vt 0.902384 0.800175
vt 0.914358 0.849652
vt 0.886539 0.805858
vt 0.904416 0.859548
vt 0.864799 0.810949
vt 0.674700 0.767736
vt 0.926605 0.648790
vt 0.940144 0.763306
vn 0.000000 1.000000 0.000000
usemtl Material.078
s off
f 4/1/1 3/2/1 1/3/1
f 5/4/1 3/2/1 4/1/1
f 7/5/1 5/4/1 6/6/1
f 7/5/1 8/7/1 10/8/1
f 12/9/1 11/10/1 9/11/1
f 14/12/1 13/13/1 11/10/1
f 16/14/1 15/15/1 13/13/1
f 17/16/1 15/15/1 16/14/1
f 36/17/1 37/18/1 39/19/1
f 38/20/1 39/19/1 41/21/1
f 43/22/1 42/23/1 40/24/1
f 42/23/1 43/22/1 45/25/1
f 46/26/1 44/27/1 45/25/1
f 48/28/1 46/26/1 47/29/1
f 50/30/1 48/28/1 49/31/1
f 52/32/1 50/30/1 51/33/1
f 54/34/1 52/32/1 53/35/1
f 56/36/1 54/34/1 55/37/1
f 56/36/1 57/38/1 59/39/1
f 58/40/1 59/39/1 61/41/1
f 63/42/1 62/43/1 60/44/1
f 62/43/1 63/42/1 65/45/1
f 67/46/1 66/47/1 64/48/1
f 67/46/1 17/16/1 68/49/1
f 34/50/1 32/51/1 33/52/1
f 32/51/1 30/53/1 31/54/1
f 31/54/1 30/53/1 28/55/1
f 29/56/1 28/55/1 26/57/1
f 27/58/1 26/57/1 24/59/1
f 24/59/1 22/60/1 23/61/1
f 21/62/1 23/61/1 22/60/1
f 72/63/1 71/64/1 20/65/1
f 71/64/1 70/66/1 19/67/1
f 19/67/1 70/66/1 69/68/1
f 17/16/1 18/69/1 69/68/1
f 2/70/1 4/1/1 1/3/1
f 6/6/1 5/4/1 4/1/1
f 8/7/1 7/5/1 6/6/1
f 9/11/1 7/5/1 10/8/1
f 10/8/1 12/9/1 9/11/1
f 12/9/1 14/12/1 11/10/1
f 14/12/1 16/14/1 13/13/1
f 18/69/1 17/16/1 16/14/1
f 38/20/1 36/17/1 39/19/1
f 40/24/1 38/20/1 41/21/1
f 41/21/1 43/22/1 40/24/1
f 44/27/1 42/23/1 45/25/1
f 47/29/1 46/26/1 45/25/1
f 49/31/1 48/28/1 47/29/1
f 51/33/1 50/30/1 49/31/1
f 53/35/1 52/32/1 51/33/1
f 55/37/1 54/34/1 53/35/1
f 57/38/1 56/36/1 55/37/1
f 58/40/1 56/36/1 59/39/1
f 60/44/1 58/40/1 61/41/1
f 61/41/1 63/42/1 60/44/1
f 64/48/1 62/43/1 65/45/1
f 65/45/1 67/46/1 64/48/1
f 66/47/1 67/46/1 68/49/1
f 35/71/1 34/50/1 33/52/1
f 33/52/1 32/51/1 31/54/1
f 29/56/1 31/54/1 28/55/1
f 27/58/1 29/56/1 26/57/1
f 25/72/1 27/58/1 24/59/1
f 25/72/1 24/59/1 23/61/1
f 72/63/1 21/62/1 22/60/1
f 21/62/1 72/63/1 20/65/1
f 20/65/1 71/64/1 19/67/1
f 18/69/1 19/67/1 69/68/1
f 68/49/1 17/16/1 69/68/1
