# Blender v2.74 (sub 0) OBJ File: ''
# www.blender.org
mtllib 10_Abkz_2_p2.mtl
o 14_Sekt_3_Mesh.014
v 1.667911 0.015756 0.877504
v 1.705192 0.015756 -1.320967
v -1.082944 0.015756 -1.061209
v 4.630711 0.015756 -0.947981
v 6.452114 0.015756 -0.469206
v 4.212933 0.015756 1.201975
v 5.850468 0.015756 1.632418
v 7.560654 0.015756 2.162554
v 9.250046 0.015756 2.780764
v 10.062347 0.015756 0.750742
v 8.260178 0.015756 0.091265
v 10.873093 0.015755 3.487078
v 11.818169 0.015756 1.514841
v 12.383930 0.015755 4.279909
v 13.487492 0.015756 2.390841
v 14.882491 0.015755 3.293196
v -0.320259 0.015757 -6.447832
v -1.811922 0.015757 -6.707857
v -1.489800 0.015757 -8.870195
v 1.105911 0.015757 -6.115870
v 0.115480 0.015757 -8.590364
v 2.481960 0.015757 -5.705065
v 1.666777 0.015757 -8.229277
v 3.823768 0.015757 -5.207895
v 3.174955 0.015757 -7.779024
v 4.650377 0.015757 -7.232347
v 6.103323 0.015757 -6.582693
v 5.147293 0.015757 -4.616110
v 7.544464 0.015757 -5.824106
v 8.985212 0.015757 -4.950922
v 7.801022 0.015757 -3.113024
v 6.468102 0.015757 -3.920862
v 10.437813 0.015757 -3.957411
v 9.160049 0.015756 -2.183516
v 11.908340 0.015756 -2.842787
v 10.565346 0.015756 -1.118338
v 12.816849 0.015756 -2.115942
v 11.437210 0.015756 -0.420805
v 12.254223 0.015756 0.255602
v 13.003273 0.015756 0.914839
v 13.673374 0.015756 -1.406820
v 13.681271 0.015756 1.567869
v 14.484050 0.015756 -0.693346
v 14.286510 0.015756 2.225752
v 15.244979 0.015756 0.039556
v 14.818976 0.015756 2.900393
v 15.950877 0.015756 0.806860
v 17.168232 0.015756 2.499430
v 12.293560 0.015753 17.002007
v 12.272171 0.015754 14.808632
v 13.802139 0.015754 14.662994
v 14.316710 0.015753 16.809425
v 14.986411 0.015754 14.195896
v 15.906226 0.015754 13.333542
v 17.697021 0.015754 14.650444
v 16.626080 0.015754 11.845299
v 18.718159 0.015754 12.539314
v 16.882465 0.015754 10.512949
v 19.080738 0.015754 10.655100
v 16.808495 0.015754 9.301004
v 18.972923 0.015755 8.888628
v 16.442616 0.015755 8.180368
v 18.598717 0.015755 6.786337
v 15.798472 0.015755 7.116472
v 18.381996 0.015755 5.583529
v 14.887805 0.015755 6.104479
v 18.068737 0.015755 4.472792
v 13.736835 0.015755 5.155039
v 17.662224 0.015755 3.446932
v -0.673093 0.015756 1.095606
v 16.594788 0.015756 1.622698
v 16.176659 0.015753 16.075832
vt 0.609683 0.903997
vt 0.633813 0.887623
vt 0.651170 0.920453
vt 0.608436 0.857862
vt 0.589900 0.841122
vt 0.587607 0.878106
vt 0.570942 0.863056
vt 0.552643 0.847924
vt 0.533518 0.833662
vt 0.550152 0.809910
vt 0.570554 0.825124
vt 0.513897 0.820776
vt 0.528925 0.795969
vt 0.494129 0.809763
vt 0.507084 0.783801
vt 0.486942 0.774869
vt 0.705418 0.872885
vt 0.740793 0.868280
vt 0.719132 0.887552
vt 0.691380 0.859466
vt 0.726033 0.852495
vt 0.676831 0.847176
vt 0.710764 0.837899
vt 0.661573 0.835893
vt 0.694819 0.824429
vt 0.660283 0.800613
vt 0.678041 0.812022
vt 0.645397 0.825500
vt 0.641402 0.790125
vt 0.621252 0.780474
vt 0.628092 0.815888
vt 0.609450 0.806958
vt 0.599680 0.771564
vt 0.589268 0.798623
vt 0.576634 0.763335
vt 0.567244 0.790759
vt 0.561972 0.758528
vt 0.553174 0.786146
vt 0.539735 0.781988
vt 0.526981 0.778461
vt 0.547884 0.754169
vt 0.514811 0.775676
vt 0.534080 0.750351
vt 0.503116 0.773735
vt 0.520422 0.747227
vt 0.491763 0.772723
vt 0.506782 0.744962
vt 0.479159 0.743739
vt 0.353588 0.903121
vt 0.368596 0.869398
vt 0.378086 0.887436
vt 0.341038 0.879269
vt 0.365183 0.852863
vt 0.340461 0.826079
vt 0.368077 0.836394
vt 0.356479 0.799420
vt 0.379368 0.817601
vt 0.374759 0.781718
vt 0.392294 0.805084
vt 0.406282 0.797107
vt 0.395147 0.770091
vt 0.421376 0.793032
vt 0.421196 0.758983
vt 0.437860 0.792458
vt 0.436119 0.752656
vt 0.455703 0.795219
vt 0.450720 0.748070
vt 0.465057 0.745134
vt 0.474595 0.801100
vt 0.624257 0.931562
vt 0.493052 0.743738
vt 0.335678 0.853300
vn -0.000000 1.000000 0.000000
usemtl Material.048
s 1
f 1/1/1 2/2/1 3/3/1
f 4/4/1 2/2/1 1/1/1
f 5/5/1 4/4/1 6/6/1
f 5/5/1 7/7/1 8/8/1
f 9/9/1 10/10/1 11/11/1
f 12/12/1 13/13/1 10/10/1
f 14/14/1 15/15/1 13/13/1
f 16/16/1 15/15/1 14/14/1
f 17/17/1 19/18/1 18/19/1
f 20/20/1 21/21/1 17/17/1
f 22/22/1 23/23/1 20/20/1
f 24/24/1 25/25/1 22/22/1
f 24/24/1 27/26/1 26/27/1
f 28/28/1 29/29/1 27/26/1
f 30/30/1 32/31/1 31/32/1
f 33/33/1 31/32/1 34/34/1
f 35/35/1 34/34/1 36/36/1
f 37/37/1 36/36/1 38/38/1
f 39/39/1 37/37/1 38/38/1
f 40/40/1 41/41/1 39/39/1
f 42/42/1 43/43/1 40/40/1
f 44/44/1 45/45/1 42/42/1
f 46/46/1 47/47/1 44/44/1
f 48/48/1 46/46/1 16/16/1
f 49/49/1 51/50/1 50/51/1
f 52/52/1 53/53/1 51/50/1
f 53/53/1 55/54/1 54/55/1
f 54/55/1 57/56/1 56/57/1
f 56/57/1 59/58/1 58/59/1
f 60/60/1 59/58/1 61/61/1
f 62/62/1 61/61/1 63/63/1
f 64/64/1 63/63/1 65/65/1
f 66/66/1 65/65/1 67/67/1
f 66/66/1 69/68/1 68/69/1
f 69/68/1 16/16/1 68/69/1
f 70/70/1 1/1/1 3/3/1
f 6/6/1 4/4/1 1/1/1
f 7/7/1 5/5/1 6/6/1
f 11/11/1 5/5/1 8/8/1
f 8/8/1 9/9/1 11/11/1
f 9/9/1 12/12/1 10/10/1
f 12/12/1 14/14/1 13/13/1
f 68/69/1 16/16/1 14/14/1
f 21/21/1 19/18/1 17/17/1
f 23/23/1 21/21/1 20/20/1
f 25/25/1 23/23/1 22/22/1
f 26/27/1 25/25/1 24/24/1
f 28/28/1 27/26/1 24/24/1
f 32/31/1 29/29/1 28/28/1
f 29/29/1 32/31/1 30/30/1
f 30/30/1 31/32/1 33/33/1
f 33/33/1 34/34/1 35/35/1
f 35/35/1 36/36/1 37/37/1
f 41/41/1 37/37/1 39/39/1
f 43/43/1 41/41/1 40/40/1
f 45/45/1 43/43/1 42/42/1
f 47/47/1 45/45/1 44/44/1
f 71/71/1 47/47/1 46/46/1
f 71/71/1 46/46/1 48/48/1
f 52/52/1 51/50/1 49/49/1
f 72/72/1 53/53/1 52/52/1
f 72/72/1 55/54/1 53/53/1
f 55/54/1 57/56/1 54/55/1
f 57/56/1 59/58/1 56/57/1
f 58/59/1 59/58/1 60/60/1
f 60/60/1 61/61/1 62/62/1
f 62/62/1 63/63/1 64/64/1
f 64/64/1 65/65/1 66/66/1
f 67/67/1 69/68/1 66/66/1
f 48/48/1 16/16/1 69/68/1
