# Blender v2.74 (sub 0) OBJ File: ''
# www.blender.org
mtllib 12_Abkz_3.mtl
o 14_Sekt_3.002_Mesh.027
v 0.393755 0.015671 1.256308
v 0.655933 0.015671 -0.915644
v -1.421040 0.015671 -1.261190
v -3.664949 0.015671 -1.709921
v -7.257030 0.015671 -0.106195
v -6.845146 0.015671 -2.256624
v -8.610998 0.015671 -0.281702
v -8.441542 0.015671 -2.463556
v -10.772742 0.015671 -0.338171
v -10.888316 0.015671 -2.527468
v -12.795159 0.015671 -0.070475
v -13.317315 0.015671 -2.205957
v -14.715283 0.015671 0.626112
v -15.596364 0.015671 -1.379152
v -15.963941 0.015671 1.276117
v -16.994541 0.015671 -0.651312
v -17.201370 0.015671 1.955481
v -18.285221 0.015671 0.057280
v -18.362881 0.015671 2.644712
v -19.521286 0.015671 0.790754
v -19.442554 0.015671 3.354250
v -20.696861 0.015671 1.563318
v -20.435268 0.015671 4.094202
v -21.805264 0.015671 2.389498
v -21.337109 0.015671 4.874697
v -22.838612 0.015671 3.283808
v -22.145638 0.015671 5.706537
v -23.787533 0.015671 4.260088
v -22.859798 0.015671 6.602053
v -24.641293 0.015671 5.330652
v -23.479126 0.015671 7.575823
v -25.388542 0.015671 6.505556
v -24.002460 0.015671 8.644735
v -26.018654 0.015671 7.792562
v -24.426689 0.015671 9.827078
v -26.522938 0.015671 9.198019
v -24.747509 0.015671 11.146177
v -26.893887 0.015671 10.723242
v -24.871994 0.015671 11.966887
v -27.046082 0.015671 11.726629
v -24.927616 0.015671 12.764868
v -27.114479 0.015671 12.707884
v -24.914211 0.015671 13.531141
v -27.097630 0.015671 13.671232
v -24.832741 0.015671 14.264412
v -26.992966 0.015671 14.613213
v -24.683960 0.015671 14.964125
v -26.798107 0.015671 15.529631
v -24.468140 0.015671 15.630465
v -26.511169 0.015671 16.415548
v -24.184742 0.015671 16.264172
v -26.131077 0.015671 17.265472
v -23.832211 0.015671 16.866177
v -25.657772 0.015671 18.073719
v -23.407974 0.015671 17.437140
v -25.092216 0.015671 18.834875
v -22.908669 0.015671 17.977005
v -24.436146 0.015671 19.544243
v -22.330559 0.015671 18.484756
v -23.691696 0.015671 20.198086
v -21.711025 0.015671 18.928911
v -22.819862 0.015671 20.823122
v -20.044964 0.015671 19.707592
v -20.693848 0.015671 21.816776
v -18.385654 0.015671 19.974863
v -18.481388 0.015671 22.173145
v -16.638386 0.015671 19.847685
v -16.300350 0.015671 22.014395
v -14.797694 0.015671 19.403332
v -14.179317 0.015671 21.502365
v -12.885409 0.015671 18.735228
v -12.119605 0.015671 20.782755
v -10.924319 0.015671 17.952639
v -10.121564 0.015671 19.985418
v -8.928378 0.015671 17.172699
v -8.194373 0.015671 19.232346
v -7.070179 0.015671 16.573023
v -6.358097 0.015671 18.639746
v -4.641415 0.015671 18.312075
v -2.736477 0.015671 16.148386
v -3.064243 0.015671 18.330280
v -0.676189 0.015671 1.090427
v -1.738811 0.015671 1.021690
v -2.697935 0.015671 1.038752
v -3.551552 0.015671 1.106350
v -4.311455 0.015671 1.224195
v -4.991909 0.015671 1.391977
v -5.610023 0.015671 1.610653
v -6.184853 0.015671 1.883835
v -7.223995 0.015671 -0.042107
v -6.735197 0.015671 2.218176
v -7.958197 0.015671 0.403933
v -7.277401 0.015671 2.622166
v -8.654880 0.015671 0.923019
v -7.824533 0.015671 3.104074
v -9.323826 0.015671 1.512220
v -8.387053 0.015671 3.670464
v -9.977418 0.015671 2.170311
v -8.969908 0.015671 4.321152
v -10.633556 0.015671 2.902811
v -9.393103 0.015671 4.842897
v -11.133183 0.015671 3.518789
v -9.760736 0.015671 5.358442
v -11.584538 0.015671 4.151739
v -10.074345 0.015671 5.870445
v -11.982530 0.015671 4.801506
v -10.334079 0.015671 6.379635
v -12.323459 0.015671 5.469872
v -10.540540 0.015671 6.887468
v -12.603170 0.015671 6.157881
v -10.694536 0.015671 7.396416
v -12.817304 0.015671 6.865574
v -10.796667 0.015671 7.910082
v -12.961708 0.015671 7.591856
v -10.846821 0.015671 8.433048
v -13.032944 0.015671 8.334648
v -10.843786 0.015671 8.970415
v -13.028669 0.015671 9.091360
v -10.785141 0.015671 9.527166
v -12.947756 0.015671 9.859514
v -10.667470 0.015671 10.107582
v -12.790064 0.015671 10.637341
v -10.491439 0.015671 10.699318
v -12.551377 0.015671 11.439693
v -10.196465 0.015671 11.395189
v -12.145425 0.015671 12.397374
v -9.850527 0.015671 11.960723
v -11.630825 0.015671 13.238633
v -9.447746 0.015671 12.442650
v -11.031147 0.015671 13.956146
v -8.982300 0.015671 12.868766
v -10.369896 0.015671 14.561522
v -8.449306 0.015671 13.259009
v -9.669645 0.015671 15.074227
v -7.848942 0.015671 13.628557
v -8.947899 0.015671 15.518490
v -7.186546 0.015671 13.991814
v -8.217010 0.015671 15.919309
v -6.470818 0.015671 14.364697
v -7.485962 0.015671 16.300173
v -5.712273 0.015671 14.765220
v -4.922577 0.015671 15.213192
v -4.114573 0.015671 15.729490
v -3.360657 0.015671 15.911783
vt 0.714807 0.293415
vt 0.693917 0.276313
vt 0.701704 0.259904
vt 0.680689 0.294721
vt 0.666411 0.312338
vt 0.697514 0.310479
vt 0.683089 0.325930
vt 0.669592 0.340907
vt 0.659762 0.353726
vt 0.641193 0.338617
vt 0.652632 0.326893
vt 0.631794 0.351351
vt 0.622520 0.364792
vt 0.650738 0.366047
vt 0.614791 0.377308
vt 0.642477 0.378526
vt 0.607687 0.389967
vt 0.635795 0.389406
vt 0.601043 0.402507
vt 0.628647 0.400937
vt 0.595220 0.414385
vt 0.622630 0.412675
vt 0.588812 0.427215
vt 0.617605 0.425707
vt 0.581570 0.439594
vt 0.612166 0.439325
vt 0.604777 0.454104
vt 0.594563 0.469488
vt 0.581925 0.483859
vt 0.562846 0.463596
vt 0.573151 0.452253
vt 0.569000 0.497060
vt 0.549561 0.474607
vt 0.557065 0.507415
vt 0.530630 0.485895
vt 0.540046 0.480843
vt 0.519538 0.490926
vt 0.545586 0.515216
vt 0.508514 0.494665
vt 0.531844 0.522078
vt 0.497794 0.496809
vt 0.517924 0.527209
vt 0.486126 0.497983
vt 0.502198 0.531312
vt 0.474957 0.497572
vt 0.487985 0.533376
vt 0.463691 0.496134
vt 0.472128 0.533457
vt 0.457182 0.532019
vt 0.440767 0.528700
vt 0.452115 0.493217
vt 0.425614 0.523355
vt 0.408916 0.514038
vt 0.428542 0.481829
vt 0.440454 0.488018
vt 0.415030 0.474270
vt 0.396396 0.458813
vt 0.393126 0.501804
vt 0.353006 0.452517
vt 0.382796 0.436803
vt 0.339599 0.422080
vt 0.372047 0.410931
vt 0.330760 0.389173
vt 0.364808 0.381914
vt 0.324503 0.354915
vt 0.319567 0.320816
vt 0.355334 0.316004
vt 0.360063 0.349751
vt 0.314072 0.286625
vt 0.346347 0.243928
vt 0.351084 0.281068
vt 0.279633 0.197959
vt 0.310030 0.174584
vt 0.321134 0.183325
vt 0.295287 0.223074
vt 0.331865 0.191910
vt 0.306522 0.253277
vt 0.363580 0.206752
vt 0.359488 0.249144
vt 0.377508 0.213813
vt 0.391232 0.221673
vt 0.387140 0.262472
vt 0.373879 0.255370
vt 0.404382 0.228518
vt 0.400229 0.270259
vt 0.417080 0.234325
vt 0.414709 0.276154
vt 0.429120 0.239701
vt 0.429570 0.281549
vt 0.440957 0.244019
vt 0.445974 0.285575
vt 0.453780 0.247541
vt 0.781331 0.179279
vt 0.795087 0.168418
vt 0.817074 0.197018
vt 0.724807 0.282677
vt 0.755753 0.249314
vt 0.700747 0.254768
vt 0.694704 0.219393
vt 0.723449 0.213079
vt 0.682828 0.221921
vt 0.688151 0.255268
vt 0.467429 0.249928
vt 0.479953 0.289467
vt 0.462557 0.288013
vt 0.482311 0.250992
vt 0.494124 0.251570
vt 0.508392 0.289922
vt 0.494456 0.290194
vt 0.507516 0.250560
vt 0.522121 0.289468
vt 0.519356 0.250258
vt 0.530662 0.249072
vt 0.548276 0.286947
vt 0.535372 0.288588
vt 0.541885 0.247700
vt 0.560730 0.284897
vt 0.553103 0.245169
vt 0.564972 0.243227
vt 0.585386 0.278992
vt 0.573140 0.282545
vt 0.576585 0.240804
vt 0.597852 0.275955
vt 0.587886 0.237501
vt 0.609873 0.272633
vt 0.601030 0.234762
vt 0.613803 0.232296
vt 0.635259 0.265695
vt 0.622829 0.269088
vt 0.627314 0.230371
vt 0.648992 0.262056
vt 0.643021 0.227392
vt 0.662740 0.258479
vt 0.657892 0.225058
vt 0.670863 0.223869
vt 0.675448 0.256807
vt 0.733419 0.208881
vt 0.742400 0.204677
vt 0.751084 0.199078
vt 0.802188 0.210426
vt 0.767363 0.189221
vt 0.372084 0.479957
vt 0.348655 0.198611
vn 0.000000 1.000000 0.000000
usemtl Material.082
s off
f 8/1/1 7/2/1 5/3/1
f 9/4/1 7/2/1 8/1/1
f 11/5/1 9/4/1 10/6/1
f 11/5/1 12/7/1 14/8/1
f 16/9/1 15/10/1 13/11/1
f 17/12/1 15/10/1 16/9/1
f 19/13/1 17/12/1 18/14/1
f 21/15/1 19/13/1 20/16/1
f 23/17/1 21/15/1 22/18/1
f 25/19/1 23/17/1 24/20/1
f 27/21/1 25/19/1 26/22/1
f 29/23/1 27/21/1 28/24/1
f 31/25/1 29/23/1 30/26/1
f 31/25/1 32/27/1 34/28/1
f 36/29/1 35/30/1 33/31/1
f 38/32/1 37/33/1 35/30/1
f 37/33/1 38/32/1 40/34/1
f 41/35/1 39/36/1 40/34/1
f 43/37/1 41/35/1 42/38/1
f 45/39/1 43/37/1 44/40/1
f 47/41/1 45/39/1 46/42/1
f 49/43/1 47/41/1 48/44/1
f 51/45/1 49/43/1 50/46/1
f 53/47/1 51/45/1 52/48/1
f 53/47/1 54/49/1 56/50/1
f 55/51/1 56/50/1 58/52/1
f 60/53/1 59/54/1 57/55/1
f 61/56/1 59/54/1 60/53/1
f 63/57/1 61/56/1 62/58/1
f 66/59/1 65/60/1 63/57/1
f 68/61/1 67/62/1 65/60/1
f 67/62/1 68/61/1 70/63/1
f 69/64/1 70/63/1 72/65/1
f 74/66/1 73/67/1 71/68/1
f 73/67/1 74/66/1 76/69/1
f 77/70/1 75/71/1 76/69/1
f 81/72/1 80/73/1 144/74/1
f 79/75/1 144/74/1 143/76/1
f 77/70/1 78/77/1 143/76/1
f 141/78/1 140/79/1 77/70/1
f 140/79/1 141/78/1 139/80/1
f 137/81/1 136/82/1 138/83/1
f 135/84/1 134/85/1 136/82/1
f 133/86/1 132/87/1 134/85/1
f 132/87/1 133/86/1 131/88/1
f 130/89/1 131/88/1 129/90/1
f 128/91/1 129/90/1 127/92/1
f 82/93/1 1/94/1 2/95/1
f 6/96/1 5/3/1 4/97/1
f 90/98/1 89/99/1 87/100/1
f 91/101/1 89/99/1 90/98/1
f 91/101/1 90/98/1 92/102/1
f 125/103/1 124/104/1 126/105/1
f 124/104/1 125/103/1 123/106/1
f 121/107/1 120/108/1 122/109/1
f 119/110/1 118/111/1 120/108/1
f 118/111/1 119/110/1 117/112/1
f 115/113/1 114/114/1 116/115/1
f 114/114/1 115/113/1 113/116/1
f 112/117/1 113/116/1 111/118/1
f 109/119/1 108/120/1 110/121/1
f 107/122/1 106/123/1 108/120/1
f 105/124/1 104/125/1 106/123/1
f 104/125/1 105/124/1 103/126/1
f 101/127/1 100/128/1 102/129/1
f 100/128/1 101/127/1 99/130/1
f 98/131/1 99/130/1 97/132/1
f 96/133/1 97/132/1 95/134/1
f 93/135/1 92/102/1 94/136/1
f 87/100/1 86/137/1 4/97/1
f 4/97/1 86/137/1 85/138/1
f 85/138/1 84/139/1 3/140/1
f 84/139/1 83/141/1 3/140/1
f 83/141/1 82/93/1 3/140/1
f 6/96/1 8/1/1 5/3/1
f 10/6/1 9/4/1 8/1/1
f 12/7/1 11/5/1 10/6/1
f 13/11/1 11/5/1 14/8/1
f 14/8/1 16/9/1 13/11/1
f 18/14/1 17/12/1 16/9/1
f 20/16/1 19/13/1 18/14/1
f 22/18/1 21/15/1 20/16/1
f 24/20/1 23/17/1 22/18/1
f 26/22/1 25/19/1 24/20/1
f 28/24/1 27/21/1 26/22/1
f 30/26/1 29/23/1 28/24/1
f 32/27/1 31/25/1 30/26/1
f 33/31/1 31/25/1 34/28/1
f 34/28/1 36/29/1 33/31/1
f 36/29/1 38/32/1 35/30/1
f 39/36/1 37/33/1 40/34/1
f 42/38/1 41/35/1 40/34/1
f 44/40/1 43/37/1 42/38/1
f 46/42/1 45/39/1 44/40/1
f 48/44/1 47/41/1 46/42/1
f 50/46/1 49/43/1 48/44/1
f 52/48/1 51/45/1 50/46/1
f 54/49/1 53/47/1 52/48/1
f 55/51/1 53/47/1 56/50/1
f 57/55/1 55/51/1 58/52/1
f 58/52/1 60/53/1 57/55/1
f 62/58/1 61/56/1 60/53/1
f 64/142/1 63/57/1 62/58/1
f 64/142/1 66/59/1 63/57/1
f 66/59/1 68/61/1 65/60/1
f 69/64/1 67/62/1 70/63/1
f 71/68/1 69/64/1 72/65/1
f 72/65/1 74/66/1 71/68/1
f 75/71/1 73/67/1 76/69/1
f 78/77/1 77/70/1 76/69/1
f 79/75/1 81/72/1 144/74/1
f 78/77/1 79/75/1 143/76/1
f 142/143/1 77/70/1 143/76/1
f 142/143/1 141/78/1 77/70/1
f 138/83/1 140/79/1 139/80/1
f 139/80/1 137/81/1 138/83/1
f 137/81/1 135/84/1 136/82/1
f 135/84/1 133/86/1 134/85/1
f 130/89/1 132/87/1 131/88/1
f 128/91/1 130/89/1 129/90/1
f 126/105/1 128/91/1 127/92/1
f 3/140/1 82/93/1 2/95/1
f 5/3/1 90/98/1 87/100/1
f 93/135/1 91/101/1 92/102/1
f 127/92/1 125/103/1 126/105/1
f 122/109/1 124/104/1 123/106/1
f 123/106/1 121/107/1 122/109/1
f 121/107/1 119/110/1 120/108/1
f 116/115/1 118/111/1 117/112/1
f 117/112/1 115/113/1 116/115/1
f 112/117/1 114/114/1 113/116/1
f 110/121/1 112/117/1 111/118/1
f 111/118/1 109/119/1 110/121/1
f 109/119/1 107/122/1 108/120/1
f 107/122/1 105/124/1 106/123/1
f 102/129/1 104/125/1 103/126/1
f 103/126/1 101/127/1 102/129/1
f 98/131/1 100/128/1 99/130/1
f 96/133/1 98/131/1 97/132/1
f 94/136/1 96/133/1 95/134/1
f 95/134/1 93/135/1 94/136/1
f 5/3/1 87/100/1 4/97/1
f 3/140/1 4/97/1 85/138/1
l 88 89
l 87 88
