# Blender v2.74 (sub 0) OBJ File: ''
# www.blender.org
o 14_Sekt_3.002_Mesh.001
v -8.937566 0.003375 0.019780
v -8.773448 0.003375 0.187026
v -6.846992 0.003375 -2.253565
v -10.890162 0.003375 -2.524408
v -10.648671 0.003375 -0.008117
v -12.671088 0.003375 0.259580
v -13.319161 0.003375 -2.202898
v -15.598210 0.003375 -1.376093
v -16.996387 0.003375 -0.648252
v -15.839869 0.003375 1.606172
v -14.591212 0.003375 0.956166
v -18.287067 0.003375 0.060339
v -17.077297 0.003375 2.285535
v -19.523132 0.003375 0.793814
v -18.238810 0.003375 2.974767
v -20.698708 0.003375 1.566378
v -21.807110 0.003375 2.392557
v -20.311199 0.003374 4.424256
v -19.318483 0.003374 3.684304
v -22.840458 0.003374 3.286867
v -21.897911 0.003374 5.950652
v -21.089382 0.003374 5.118812
v -24.643139 0.003374 5.333712
v -22.612072 0.003374 6.846168
v -25.390388 0.003374 6.508615
v -23.231400 0.003374 7.819938
v -26.020500 0.003374 7.795622
v -26.524784 0.003374 9.201078
v -24.178963 0.003373 10.071193
v -23.754734 0.003374 8.888850
v -26.895733 0.003373 10.726301
v -24.321590 0.003373 11.036401
v -24.396526 0.003373 11.863108
v -24.404093 0.003373 12.662989
v -27.555311 0.003373 11.801190
v -24.344666 0.003373 13.427071
v -27.623709 0.003373 12.782445
v -24.219276 0.003373 14.154120
v -27.606859 0.003373 13.745793
v -24.028717 0.003373 14.843629
v -27.494869 0.003373 14.870897
v -27.013073 0.003372 16.673233
v -23.773245 0.003372 15.495795
v -26.632984 0.003372 17.523157
v -23.452282 0.003372 16.111328
v -26.159679 0.003372 18.331404
v -23.064215 0.003372 16.691059
v -25.594120 0.003372 19.092560
v -22.606436 0.003372 17.235497
v -24.809278 0.003372 20.060013
v -24.064827 0.003372 20.713856
v -21.715851 0.003372 17.993649
v -22.323086 0.003372 17.521120
v -23.192995 0.003372 21.338894
v -21.066978 0.003371 22.332546
v -19.361706 0.003372 19.078617
v -21.071045 0.003372 18.400234
v -18.517859 0.003371 22.586227
v -17.689476 0.003372 19.246895
v -16.432512 0.003371 22.404129
v -15.952861 0.003372 19.016197
v -14.073671 0.003371 22.005913
v -14.925162 0.003372 18.733528
v -12.267961 0.003372 21.451006
v -10.269919 0.003372 20.653669
v -11.051787 0.003372 17.282837
v -13.012877 0.003372 18.065426
v -8.342729 0.003372 19.900597
v -8.513690 0.003372 16.292351
v -9.055846 0.003372 16.502895
v -2.461441 0.003372 15.476667
v -2.734352 0.003372 15.365202
v -4.789770 0.003372 18.980326
v -2.949371 0.003373 15.304947
v -3.168264 0.003373 15.200405
v -6.506453 0.003372 19.307997
v -4.006937 0.003373 14.852744
v -8.929473 0.003372 16.019501
v -4.808870 0.003373 14.548349
v -5.564920 0.003373 14.266132
v -9.527479 0.003372 15.576447
v -9.253326 0.003372 15.796095
v -6.266863 0.003373 13.986923
v -10.249226 0.003373 15.132184
v -6.908016 0.003373 13.693856
v -10.949476 0.003373 14.619479
v -7.484856 0.003373 13.371981
v -11.610727 0.003373 14.014103
v -7.999063 0.003373 13.006214
v -12.210405 0.003373 13.296590
v -8.457933 0.003373 12.577368
v -0.708538 0.003375 1.688274
v 0.409323 0.003375 1.899991
v 0.765790 0.003375 -1.212600
v -3.666796 0.003375 -1.706861
v -8.740413 0.003375 0.251115
v -6.217201 0.003375 2.481682
v -5.024258 0.003375 1.989824
v -6.640633 0.003375 2.951604
v -8.982648 0.003375 0.474242
v -9.081167 0.003373 12.023367
v -13.167600 0.003373 11.237629
v -12.725005 0.003373 12.455331
v -9.326214 0.003373 11.485261
v -9.542027 0.003373 10.906848
v -13.563978 0.003373 9.657450
v -13.406286 0.003373 10.435276
v -9.698848 0.003373 10.335764
v -13.644892 0.003374 8.889296
v -9.795172 0.003373 9.784282
v -9.834698 0.003373 9.248362
v -13.577930 0.003374 7.389792
v -13.649166 0.003374 8.132584
v -9.820182 0.003374 8.723197
v -13.433526 0.003374 6.663510
v -9.753177 0.003374 8.203781
v -9.743679 0.003374 7.870272
v -12.939681 0.003374 5.267807
v -13.219393 0.003374 5.955817
v -9.588827 0.003374 7.344404
v -12.598752 0.003374 4.599442
v -9.381104 0.003374 6.811881
v -12.200760 0.003374 3.949675
v -9.120055 0.003374 6.271194
v -8.805607 0.003374 5.721603
v -11.249779 0.003375 2.700747
v -11.749405 0.003374 3.316725
v -8.436491 0.003374 5.160309
v -10.593640 0.003375 1.968246
v -7.921356 0.003374 4.454815
v -9.940048 0.003375 1.310156
v -7.418060 0.003374 3.835225
v -6.921659 0.003374 3.301229
v -9.271102 0.003375 0.720955
v -4.343803 0.003375 1.822042
v -3.583900 0.003375 1.704197
v -2.730284 0.003375 1.636599
v -1.392384 0.003375 -1.456393
v -1.771160 0.003375 1.619537
v -8.443388 0.003375 -2.460497
v -23.789379 0.003374 4.263147
v -27.300011 0.003372 15.787315
v -3.120893 0.003372 19.059669
v -5.642372 0.003375 2.208500
vt 0.693917 0.276313
vt 0.701704 0.259904
vt 0.724807 0.282677
vt 0.697514 0.310479
vt 0.680689 0.294721
vt 0.666411 0.312338
vt 0.683089 0.325930
vt 0.669592 0.340907
vt 0.659762 0.353726
vt 0.641193 0.338617
vt 0.652632 0.326893
vt 0.650738 0.366047
vt 0.631794 0.351351
vt 0.642477 0.378526
vt 0.622520 0.364792
vt 0.635795 0.389406
vt 0.628647 0.400937
vt 0.607687 0.389967
vt 0.614791 0.377308
vt 0.622630 0.412675
vt 0.595220 0.414385
vt 0.601043 0.402507
vt 0.612166 0.439325
vt 0.588812 0.427215
vt 0.604777 0.454104
vt 0.581570 0.439594
vt 0.594563 0.469488
vt 0.581925 0.483859
vt 0.562846 0.463596
vt 0.573151 0.452253
vt 0.569000 0.497060
vt 0.549561 0.474607
vt 0.540046 0.480843
vt 0.530630 0.485895
vt 0.557065 0.507415
vt 0.519538 0.490926
vt 0.545586 0.515216
vt 0.508514 0.494665
vt 0.531844 0.522078
vt 0.497794 0.496809
vt 0.517924 0.527209
vt 0.487985 0.533376
vt 0.486126 0.497983
vt 0.472128 0.533457
vt 0.474957 0.497572
vt 0.457182 0.532019
vt 0.463691 0.496134
vt 0.440767 0.528700
vt 0.452115 0.493217
vt 0.425614 0.523355
vt 0.408916 0.514038
vt 0.428542 0.481829
vt 0.440454 0.488018
vt 0.393126 0.501804
vt 0.372084 0.479957
vt 0.396396 0.458813
vt 0.415030 0.474270
vt 0.353006 0.452517
vt 0.382796 0.436803
vt 0.339599 0.422080
vt 0.372047 0.410931
vt 0.330760 0.389173
vt 0.364808 0.381914
vt 0.324503 0.354915
vt 0.319567 0.320816
vt 0.355334 0.316004
vt 0.360063 0.349751
vt 0.314072 0.286625
vt 0.346347 0.243928
vt 0.351084 0.281068
vt 0.310030 0.174584
vt 0.321134 0.183325
vt 0.295287 0.223074
vt 0.331865 0.191910
vt 0.348655 0.198611
vt 0.306522 0.253277
vt 0.363580 0.206752
vt 0.359488 0.249144
vt 0.377508 0.213813
vt 0.391232 0.221673
vt 0.387140 0.262472
vt 0.373879 0.255370
vt 0.404382 0.228518
vt 0.400229 0.270259
vt 0.417080 0.234325
vt 0.414709 0.276154
vt 0.429120 0.239701
vt 0.429570 0.281549
vt 0.440957 0.244019
vt 0.445974 0.285575
vt 0.453780 0.247541
vt 0.781331 0.179279
vt 0.795087 0.168418
vt 0.817074 0.197018
vt 0.755753 0.249314
vt 0.700747 0.254768
vt 0.694704 0.219393
vt 0.723449 0.213079
vt 0.682828 0.221921
vt 0.688151 0.255268
vt 0.467429 0.249928
vt 0.479953 0.289467
vt 0.462557 0.288013
vt 0.482311 0.250992
vt 0.494124 0.251570
vt 0.508392 0.289922
vt 0.494456 0.290194
vt 0.507516 0.250560
vt 0.522121 0.289468
vt 0.519356 0.250258
vt 0.530662 0.249072
vt 0.548276 0.286947
vt 0.535372 0.288588
vt 0.541885 0.247700
vt 0.560730 0.284897
vt 0.553103 0.245169
vt 0.564972 0.243227
vt 0.585386 0.278992
vt 0.573140 0.282545
vt 0.576585 0.240804
vt 0.597852 0.275955
vt 0.587886 0.237501
vt 0.609873 0.272633
vt 0.601030 0.234762
vt 0.613803 0.232296
vt 0.635259 0.265695
vt 0.622829 0.269088
vt 0.627314 0.230371
vt 0.648992 0.262056
vt 0.643021 0.227392
vt 0.662740 0.258479
vt 0.657892 0.225058
vt 0.670863 0.223869
vt 0.675448 0.256807
vt 0.733419 0.208881
vt 0.742400 0.204677
vt 0.751084 0.199078
vt 0.802188 0.210426
vt 0.767363 0.189221
vt 0.714807 0.293415
vt 0.617605 0.425707
vt 0.502198 0.531312
vt 0.279633 0.197959
vn -0.000000 1.000000 0.000000
s 1
f 1/1/1 2/2/1 3/3/1
f 4/4/1 5/5/1 1/1/1
f 6/6/1 5/5/1 4/4/1
f 6/6/1 7/7/1 8/8/1
f 9/9/1 10/10/1 11/11/1
f 12/12/1 13/13/1 10/10/1
f 13/13/1 12/12/1 14/14/1
f 15/15/1 14/14/1 16/16/1
f 17/17/1 18/18/1 19/19/1
f 18/18/1 17/17/1 20/20/1
f 21/21/1 22/22/1 20/20/1
f 23/23/1 24/24/1 21/21/1
f 25/25/1 26/26/1 24/24/1
f 26/26/1 25/25/1 27/27/1
f 28/28/1 29/29/1 30/30/1
f 31/31/1 32/32/1 29/29/1
f 33/33/1 32/32/1 31/31/1
f 34/34/1 33/33/1 35/35/1
f 36/36/1 34/34/1 37/37/1
f 38/38/1 36/36/1 39/39/1
f 40/40/1 38/38/1 41/41/1
f 42/42/1 43/43/1 40/40/1
f 44/44/1 45/45/1 43/43/1
f 45/45/1 44/44/1 46/46/1
f 47/47/1 46/46/1 48/48/1
f 49/49/1 48/48/1 50/50/1
f 51/51/1 52/52/1 53/53/1
f 52/52/1 51/51/1 54/54/1
f 55/55/1 56/56/1 57/57/1
f 58/58/1 59/59/1 56/56/1
f 60/60/1 61/61/1 59/59/1
f 61/61/1 60/60/1 62/62/1
f 63/63/1 62/62/1 64/64/1
f 65/65/1 66/66/1 67/67/1
f 66/66/1 65/65/1 68/68/1
f 69/69/1 70/70/1 68/68/1
f 71/71/1 72/72/1 73/73/1
f 73/73/1 72/72/1 74/74/1
f 75/75/1 69/69/1 76/76/1
f 77/77/1 78/78/1 69/69/1
f 78/78/1 77/77/1 79/79/1
f 80/80/1 81/81/1 82/82/1
f 83/83/1 84/84/1 81/81/1
f 85/85/1 86/86/1 84/84/1
f 86/86/1 85/85/1 87/87/1
f 88/88/1 87/87/1 89/89/1
f 90/90/1 89/89/1 91/91/1
f 92/92/1 93/93/1 94/94/1
f 3/3/1 2/2/1 95/95/1
f 96/96/1 97/97/1 98/98/1
f 99/99/1 97/97/1 96/96/1
f 99/99/1 96/96/1 100/100/1
f 101/101/1 102/102/1 103/103/1
f 102/102/1 101/101/1 104/104/1
f 105/105/1 106/106/1 107/107/1
f 108/108/1 109/109/1 106/106/1
f 109/109/1 108/108/1 110/110/1
f 111/111/1 112/112/1 113/113/1
f 112/112/1 111/111/1 114/114/1
f 115/115/1 114/114/1 116/116/1
f 117/117/1 118/118/1 119/119/1
f 120/120/1 121/121/1 118/118/1
f 122/122/1 123/123/1 121/121/1
f 123/123/1 122/122/1 124/124/1
f 125/125/1 126/126/1 127/127/1
f 126/126/1 125/125/1 128/128/1
f 129/129/1 128/128/1 130/130/1
f 131/131/1 130/130/1 132/132/1
f 133/133/1 100/100/1 134/134/1
f 98/98/1 135/135/1 95/95/1
f 95/95/1 135/135/1 136/136/1
f 136/136/1 137/137/1 138/138/1
f 137/137/1 139/139/1 138/138/1
f 139/139/1 92/92/1 138/138/1
f 140/140/1 1/1/1 3/3/1
f 140/140/1 4/4/1 1/1/1
f 7/7/1 6/6/1 4/4/1
f 11/11/1 6/6/1 8/8/1
f 8/8/1 9/9/1 11/11/1
f 9/9/1 12/12/1 10/10/1
f 15/15/1 13/13/1 14/14/1
f 19/19/1 15/15/1 16/16/1
f 16/16/1 17/17/1 19/19/1
f 22/22/1 18/18/1 20/20/1
f 141/141/1 21/21/1 20/20/1
f 141/141/1 23/23/1 21/21/1
f 23/23/1 25/25/1 24/24/1
f 30/30/1 26/26/1 27/27/1
f 27/27/1 28/28/1 30/30/1
f 28/28/1 31/31/1 29/29/1
f 35/35/1 33/33/1 31/31/1
f 37/37/1 34/34/1 35/35/1
f 39/39/1 36/36/1 37/37/1
f 41/41/1 38/38/1 39/39/1
f 142/142/1 40/40/1 41/41/1
f 142/142/1 42/42/1 40/40/1
f 42/42/1 44/44/1 43/43/1
f 47/47/1 45/45/1 46/46/1
f 49/49/1 47/47/1 48/48/1
f 53/53/1 49/49/1 50/50/1
f 50/50/1 51/51/1 53/53/1
f 57/57/1 52/52/1 54/54/1
f 54/54/1 55/55/1 57/57/1
f 55/55/1 58/58/1 56/56/1
f 58/58/1 60/60/1 59/59/1
f 63/63/1 61/61/1 62/62/1
f 67/67/1 63/63/1 64/64/1
f 64/64/1 65/65/1 67/67/1
f 70/70/1 66/66/1 68/68/1
f 76/76/1 69/69/1 68/68/1
f 143/143/1 71/71/1 73/73/1
f 76/76/1 73/73/1 74/74/1
f 74/74/1 75/75/1 76/76/1
f 75/75/1 77/77/1 69/69/1
f 82/82/1 78/78/1 79/79/1
f 79/79/1 80/80/1 82/82/1
f 80/80/1 83/83/1 81/81/1
f 83/83/1 85/85/1 84/84/1
f 88/88/1 86/86/1 87/87/1
f 90/90/1 88/88/1 89/89/1
f 103/103/1 90/90/1 91/91/1
f 138/138/1 92/92/1 94/94/1
f 2/2/1 96/96/1 98/98/1
f 133/133/1 99/99/1 100/100/1
f 91/91/1 101/101/1 103/103/1
f 107/107/1 102/102/1 104/104/1
f 104/104/1 105/105/1 107/107/1
f 105/105/1 108/108/1 106/106/1
f 113/113/1 109/109/1 110/110/1
f 110/110/1 111/111/1 113/113/1
f 115/115/1 112/112/1 114/114/1
f 119/119/1 115/115/1 116/116/1
f 116/116/1 117/117/1 119/119/1
f 117/117/1 120/120/1 118/118/1
f 120/120/1 122/122/1 121/121/1
f 127/127/1 123/123/1 124/124/1
f 124/124/1 125/125/1 127/127/1
f 129/129/1 126/126/1 128/128/1
f 131/131/1 129/129/1 130/130/1
f 134/134/1 131/131/1 132/132/1
f 132/132/1 133/133/1 134/134/1
f 2/2/1 98/98/1 95/95/1
f 138/138/1 95/95/1 136/136/1
l 98 144
l 144 97
