# Blender v2.74 (sub 0) OBJ File: 'Rennstrecke_Parted.blend'
# www.blender.org
mtllib 13_CP_5.mtl
o 13_CP_5_Mesh.035
v 21.400028 -0.080977 5.624472
v 21.400021 -0.058003 5.624529
v 21.399960 -0.038847 5.624933
v 21.399794 -0.023165 5.626032
v 21.399471 -0.010607 5.628170
v 21.398945 -0.000827 5.631693
v 21.398153 0.006523 5.636951
v 21.397053 0.011789 5.644289
v 21.395584 0.015319 5.654053
v 21.393700 0.017460 5.666590
v 21.391350 0.018560 5.682245
v 21.388477 0.018965 5.701368
v 21.385033 0.019023 5.724306
v 21.366241 0.019023 5.849386
v 21.347191 0.019023 5.976200
v 21.327621 0.019023 6.106482
v 21.307270 0.019023 6.241961
v 21.285877 0.019023 6.384375
v 21.263180 0.019023 6.535454
v 21.238922 0.019023 6.696932
v 21.212845 0.019023 6.870543
v 21.184681 0.019023 7.058020
v 21.154175 0.019023 7.261095
v 21.121063 0.019023 7.481503
v 21.085091 0.019023 7.720976
v 21.081646 0.018965 7.743912
v 21.078773 0.018560 7.763037
v 21.076420 0.017460 7.778692
v 21.074539 0.015319 7.791229
v 21.073071 0.011789 7.800993
v 21.071968 0.006523 7.808331
v 21.071178 -0.000827 7.813587
v 21.070648 -0.010607 7.817112
v 21.070328 -0.023165 7.819250
v 21.070164 -0.038847 7.820347
v 21.070103 -0.058003 7.820751
v 21.070095 -0.080977 7.820810
v 23.482826 -0.080977 6.238453
v 23.482803 -0.058003 6.238506
v 23.482628 -0.038847 6.238876
v 23.482155 -0.023165 6.239883
v 23.481232 -0.010607 6.241844
v 23.479710 -0.000827 6.245077
v 23.477444 0.006523 6.249897
v 23.474277 0.011789 6.256626
v 23.470062 0.015319 6.265581
v 23.464653 0.017460 6.277079
v 23.457897 0.018560 6.291437
v 23.449646 0.018965 6.308973
v 23.439747 0.019023 6.330008
v 23.385773 0.019023 6.444717
v 23.331049 0.019023 6.561014
v 23.274830 0.019023 6.680492
v 23.216368 0.019023 6.804737
v 23.154915 0.019023 6.935341
v 23.089720 0.019023 7.073893
v 23.020039 0.019023 7.221981
v 22.945122 0.019023 7.381195
v 22.864220 0.019023 7.553125
v 22.776588 0.019023 7.739361
v 22.681480 0.019023 7.941492
v 22.578140 0.019023 8.161108
v 22.568245 0.018965 8.182142
v 22.559990 0.018560 8.199678
v 22.553234 0.017460 8.214037
v 22.547825 0.015319 8.225534
v 22.543613 0.011789 8.234489
v 22.540447 0.006523 8.241219
v 22.538177 -0.000827 8.246038
v 22.536655 -0.010607 8.249271
v 22.535734 -0.023165 8.251232
v 22.535259 -0.038847 8.252239
v 22.535086 -0.058003 8.252609
v 22.535061 -0.080977 8.252663
vt 0.411922 0.676842
vt 0.410292 0.712020
vt 0.409677 0.712107
vt 0.410904 0.711932
vt 0.411514 0.711844
vt 0.412472 0.676800
vt 0.412123 0.711756
vt 0.412952 0.676766
vt 0.412730 0.711667
vt 0.413358 0.676742
vt 0.413336 0.711577
vt 0.413734 0.676728
vt 0.413940 0.711486
vt 0.414114 0.676725
vt 0.414543 0.711395
vt 0.414496 0.676735
vt 0.415144 0.711303
vt 0.414880 0.676749
vt 0.415744 0.711210
vt 0.415285 0.676763
vt 0.416344 0.711117
vt 0.415763 0.676774
vt 0.416942 0.711023
vt 0.416308 0.676781
vt 0.418896 0.710734
vt 0.416907 0.676784
vt 0.420898 0.710440
vt 0.418764 0.676724
vt 0.422977 0.710141
vt 0.420124 0.676805
vt 0.425159 0.709832
vt 0.421417 0.676946
vt 0.427476 0.709511
vt 0.423156 0.677055
vt 0.429957 0.709178
vt 0.425709 0.677070
vt 0.432634 0.708832
vt 0.428501 0.677107
vt 0.435538 0.708475
vt 0.431499 0.677186
vt 0.438700 0.708114
vt 0.434734 0.677312
vt 0.442153 0.707760
vt 0.438243 0.677493
vt 0.445927 0.707434
vt 0.441969 0.677761
vt 0.450048 0.707178
vt 0.445367 0.678277
vt 0.450541 0.707121
vt 0.449307 0.678827
vt 0.451031 0.707064
vt 0.449831 0.678904
vt 0.451518 0.707008
vt 0.450352 0.678980
vt 0.452003 0.706952
vt 0.450871 0.679056
vt 0.452484 0.706897
vt 0.451387 0.679133
vt 0.452962 0.706842
vt 0.451899 0.679210
vt 0.453434 0.706788
vt 0.452406 0.679287
vt 0.453905 0.706735
vt 0.452911 0.679365
vt 0.454375 0.706682
vt 0.453414 0.679444
vt 0.454843 0.706630
vt 0.453916 0.679524
vt 0.455311 0.706578
vt 0.454418 0.679606
vt 0.455777 0.706526
vt 0.454918 0.679689
vt 0.411316 0.676892
vt 0.455431 0.679774
vn 0.282700 0.011800 -0.959100
vn 0.282800 0.002500 -0.959200
vn 0.282400 0.045400 -0.958200
vn 0.280700 0.118600 -0.952400
vn 0.273600 0.252700 -0.928000
vn 0.280700 0.118700 -0.952400
vn 0.251100 0.459700 -0.851800
vn 0.273600 0.252800 -0.928000
vn 0.202200 0.698900 -0.686000
vn 0.251000 0.460300 -0.851500
vn 0.134600 0.879500 -0.456500
vn 0.201900 0.699900 -0.685100
vn 0.074300 0.964800 -0.252100
vn 0.134300 0.880100 -0.455500
vn 0.035000 0.992300 -0.118800
vn 0.074100 0.965000 -0.251400
vn 0.013600 0.998800 -0.046000
vn 0.034900 0.992300 -0.118400
vn 0.003600 0.999900 -0.012200
vn 0.013500 0.998800 -0.045700
vn 0.000400 1.000000 -0.001300
vn 0.003600 0.999900 -0.012100
vn 0.000000 1.000000 0.000000
vn -0.000300 1.000000 0.001100
vn -0.003100 0.999900 0.010500
vn -0.012200 0.999100 0.041400
vn -0.003100 0.999900 0.010600
vn -0.032300 0.993400 0.109700
vn -0.012300 0.999100 0.041600
vn -0.069700 0.969100 0.236600
vn -0.032500 0.993400 0.110200
vn -0.128600 0.890500 0.436300
vn -0.070000 0.968900 0.237400
vn -0.197700 0.715000 0.670600
vn -0.128900 0.890000 0.437400
vn -0.249400 0.470900 0.846200
vn -0.197900 0.714100 0.671500
vn -0.273200 0.257000 0.927000
vn -0.249500 0.470300 0.846500
vn -0.280700 0.119700 0.952300
vn -0.273300 0.256800 0.927000
vn -0.282400 0.045700 0.958200
vn -0.280700 0.119600 0.952300
vn -0.282700 0.011800 0.959100
vn -0.282400 0.045600 0.958200
vn -0.282800 0.002500 0.959200
vn -0.282700 0.011900 0.959100
vn 0.282800 0.002400 -0.959200
vn -0.282800 0.002600 0.959200
usemtl Material
s 1
f 2/1/1 39/2/1 38/3/2
f 40/4/3 39/2/1 2/1/1
f 41/5/4 40/4/3 3/6/3
f 42/7/5 41/5/4 4/8/6
f 43/9/7 42/7/5 5/10/8
f 44/11/9 43/9/7 6/12/10
f 45/13/11 44/11/9 7/14/12
f 46/15/13 45/13/11 8/16/14
f 47/17/15 46/15/13 9/18/16
f 48/19/17 47/17/15 10/20/18
f 49/21/19 48/19/17 11/22/20
f 50/23/21 49/21/19 12/24/22
f 51/25/23 50/23/21 13/26/21
f 52/27/23 51/25/23 14/28/23
f 53/29/23 52/27/23 15/30/23
f 54/31/23 53/29/23 16/32/23
f 55/33/23 54/31/23 17/34/23
f 56/35/23 55/33/23 18/36/23
f 57/37/23 56/35/23 19/38/23
f 58/39/23 57/37/23 20/40/23
f 59/41/23 58/39/23 21/42/23
f 60/43/23 59/41/23 22/44/23
f 61/45/23 60/43/23 23/46/23
f 62/47/24 61/45/23 24/48/23
f 63/49/25 62/47/24 25/50/24
f 64/51/26 63/49/25 26/52/27
f 65/53/28 64/51/26 27/54/29
f 66/55/30 65/53/28 28/56/31
f 67/57/32 66/55/30 29/58/33
f 68/59/34 67/57/32 30/60/35
f 69/61/36 68/59/34 31/62/37
f 70/63/38 69/61/36 32/64/39
f 71/65/40 70/63/38 33/66/41
f 72/67/42 71/65/40 34/68/43
f 73/69/44 72/67/42 35/70/45
f 74/71/46 73/69/44 36/72/47
f 1/73/48 2/1/1 38/3/2
f 3/6/3 40/4/3 2/1/1
f 4/8/6 41/5/4 3/6/3
f 5/10/8 42/7/5 4/8/6
f 6/12/10 43/9/7 5/10/8
f 7/14/12 44/11/9 6/12/10
f 8/16/14 45/13/11 7/14/12
f 9/18/16 46/15/13 8/16/14
f 10/20/18 47/17/15 9/18/16
f 11/22/20 48/19/17 10/20/18
f 12/24/22 49/21/19 11/22/20
f 13/26/21 50/23/21 12/24/22
f 14/28/23 51/25/23 13/26/21
f 15/30/23 52/27/23 14/28/23
f 16/32/23 53/29/23 15/30/23
f 17/34/23 54/31/23 16/32/23
f 18/36/23 55/33/23 17/34/23
f 19/38/23 56/35/23 18/36/23
f 20/40/23 57/37/23 19/38/23
f 21/42/23 58/39/23 20/40/23
f 22/44/23 59/41/23 21/42/23
f 23/46/23 60/43/23 22/44/23
f 24/48/23 61/45/23 23/46/23
f 25/50/24 62/47/24 24/48/23
f 26/52/27 63/49/25 25/50/24
f 27/54/29 64/51/26 26/52/27
f 28/56/31 65/53/28 27/54/29
f 29/58/33 66/55/30 28/56/31
f 30/60/35 67/57/32 29/58/33
f 31/62/37 68/59/34 30/60/35
f 32/64/39 69/61/36 31/62/37
f 33/66/41 70/63/38 32/64/39
f 34/68/43 71/65/40 33/66/41
f 35/70/45 72/67/42 34/68/43
f 36/72/47 73/69/44 35/70/45
f 37/74/49 74/71/46 36/72/47
