# Blender v2.74 (sub 0) OBJ File: ''
# www.blender.org
mtllib 14_Sekt_3.mtl
o 14_Sekt_3_Mesh.019
v 0.458231 0.015659 17.207499
v 0.928766 0.015660 14.770881
v 3.068560 0.015660 15.216838
v 1.236391 0.015660 13.396379
v 3.365721 0.015660 13.889068
v 1.556097 0.015660 12.058595
v 1.862051 0.015660 10.762397
v 3.994398 0.015660 11.242156
v 3.682478 0.015660 12.563634
v 2.129480 0.015660 9.512685
v 4.275999 0.015660 9.926221
v 2.334791 0.015661 8.315417
v 2.456224 0.015661 7.177274
v 4.639749 0.015661 7.312345
v 4.500619 0.015661 8.616347
v 2.474752 0.015661 6.104480
v 4.662164 0.015661 6.014465
v 2.374472 0.015661 5.100217
v 4.533506 0.015661 4.726015
v 2.140909 0.015661 4.160877
v 1.755800 0.015661 3.274056
v 3.683626 0.015662 2.226556
v 4.217992 0.015661 3.457084
v 1.190981 0.015662 2.422723
v 2.908312 0.015662 1.057950
v 0.433103 0.015662 1.620910
v -1.024691 0.015662 0.638614
v -0.083159 0.015662 -1.362348
v 1.855135 0.015662 -0.056287
v 2.608324 0.015659 17.600100
vt 0.062068 0.536263
vt 0.024806 0.499364
vt 0.064443 0.502228
vt 0.065298 0.474355
vt 0.025610 0.472361
vt 0.066219 0.447372
vt 0.067942 0.421953
vt 0.026522 0.445609
vt 0.028267 0.419718
vt 0.070108 0.397539
vt 0.030514 0.394075
vt 0.073866 0.374198
vt 0.079010 0.352564
vt 0.034496 0.368669
vt 0.040346 0.343228
vt 0.084112 0.332052
vt 0.046955 0.317779
vt 0.098723 0.315936
vt 0.062835 0.298636
vt 0.107487 0.300675
vt 0.118639 0.287087
vt 0.074674 0.278020
vt 0.090149 0.259166
vt 0.109528 0.242595
vt 0.132757 0.275015
vt 0.150004 0.264771
vt 0.180388 0.254859
vt 0.133495 0.228360
vt 0.173894 0.215180
vt 0.022516 0.532416
vn -0.000000 1.000000 0.000000
usemtl Material.053
s 1
f 1/1/1 3/2/1 2/3/1
f 4/4/1 3/2/1 5/5/1
f 5/5/1 6/6/1 4/4/1
f 7/7/1 9/8/1 8/9/1
f 8/9/1 10/10/1 7/7/1
f 11/11/1 12/12/1 10/10/1
f 13/13/1 15/14/1 14/15/1
f 16/16/1 14/15/1 17/17/1
f 18/18/1 17/17/1 19/19/1
f 19/19/1 20/20/1 18/18/1
f 21/21/1 23/22/1 22/23/1
f 21/21/1 25/24/1 24/25/1
f 25/24/1 26/26/1 24/25/1
f 27/27/1 29/28/1 28/29/1
f 30/30/1 3/2/1 1/1/1
f 2/3/1 3/2/1 4/4/1
f 9/8/1 6/6/1 5/5/1
f 6/6/1 9/8/1 7/7/1
f 11/11/1 10/10/1 8/9/1
f 15/14/1 12/12/1 11/11/1
f 12/12/1 15/14/1 13/13/1
f 13/13/1 14/15/1 16/16/1
f 16/16/1 17/17/1 18/18/1
f 23/22/1 20/20/1 19/19/1
f 20/20/1 23/22/1 21/21/1
f 22/23/1 25/24/1 21/21/1
f 29/28/1 26/26/1 25/24/1
f 26/26/1 29/28/1 27/27/1
