# Blender v2.74 (sub 0) OBJ File: ''
# www.blender.org
mtllib 14_Sekt_3.mtl
o 14_Sekt_3_Mesh.029
v 1.855211 0.015662 -0.055969
v 0.433180 0.015662 1.621227
v 2.908388 0.015662 1.058268
v 1.191057 0.015662 2.423040
v 3.683702 0.015662 2.226873
v 1.755877 0.015662 3.274374
v 4.218069 0.015662 3.457401
v 2.140985 0.015662 4.161194
v 4.533583 0.015662 4.726332
v 2.374548 0.015662 5.100534
v 4.662241 0.015662 6.014782
v 2.474829 0.015662 6.104797
v 4.639826 0.015662 7.312662
v 2.456301 0.015662 7.177591
v 4.500696 0.015662 8.616665
v 2.334867 0.015662 8.315735
v 4.276075 0.015662 9.926538
v 2.129557 0.015662 9.513002
v 3.994474 0.015662 11.242474
v 1.862127 0.015662 10.762714
v 3.682554 0.015662 12.563951
v 1.556173 0.015662 12.058912
v 3.365797 0.015662 13.889385
v 1.236467 0.015662 13.396696
v 3.068636 0.015662 15.217155
v 0.928843 0.015662 14.771198
v 2.608400 0.015662 17.600416
v 0.458307 0.015662 17.207815
v -0.083082 0.015662 -1.362030
v -1.024614 0.015662 0.638931
vt 0.058225 0.535341
vt 0.025941 0.534276
vt 0.025728 0.499672
vt 0.024688 0.472669
vt 0.064990 0.474355
vt 0.024985 0.445609
vt 0.066526 0.447372
vt 0.026422 0.419564
vt 0.067942 0.421953
vt 0.028771 0.392720
vt 0.070108 0.397539
vt 0.032656 0.366732
vt 0.074060 0.374392
vt 0.038215 0.341969
vt 0.079107 0.353048
vt 0.045696 0.317489
vt 0.086049 0.332052
vt 0.056831 0.293891
vt 0.094559 0.314096
vt 0.070510 0.272887
vt 0.104775 0.298545
vt 0.089374 0.253646
vt 0.117574 0.284182
vt 0.111562 0.238431
vt 0.133144 0.272110
vt 0.137175 0.227101
vt 0.150972 0.261769
vt 0.173512 0.253890
vt 0.061984 0.501613
vt 0.171183 0.218763
vn 0.000000 1.000000 -0.000000
usemtl Material.086
s off
f 28/1/1 27/2/1 25/3/1
f 25/3/1 23/4/1 24/5/1
f 23/4/1 21/6/1 22/7/1
f 21/6/1 19/8/1 20/9/1
f 19/8/1 17/10/1 18/11/1
f 17/10/1 15/12/1 16/13/1
f 15/12/1 13/14/1 14/15/1
f 13/14/1 11/16/1 12/17/1
f 11/16/1 9/18/1 10/19/1
f 9/18/1 7/20/1 8/21/1
f 7/20/1 5/22/1 6/23/1
f 3/24/1 4/25/1 6/23/1
f 3/24/1 1/26/1 2/27/1
f 30/28/1 2/27/1 1/26/1
f 26/29/1 28/1/1 25/3/1
f 26/29/1 25/3/1 24/5/1
f 24/5/1 23/4/1 22/7/1
f 22/7/1 21/6/1 20/9/1
f 20/9/1 19/8/1 18/11/1
f 18/11/1 17/10/1 16/13/1
f 16/13/1 15/12/1 14/15/1
f 14/15/1 13/14/1 12/17/1
f 12/17/1 11/16/1 10/19/1
f 10/19/1 9/18/1 8/21/1
f 8/21/1 7/20/1 6/23/1
f 5/22/1 3/24/1 6/23/1
f 4/25/1 3/24/1 2/27/1
f 29/30/1 30/28/1 1/26/1
