# Blender v2.74 (sub 0) OBJ File: ''
# www.blender.org
mtllib 04_Abkz_1_p1.mtl
o 14_Sekt_3.011_Mesh.019
v -0.418121 0.015662 1.259670
v 1.358326 0.015662 -0.014462
v -1.788379 0.015662 -0.559162
v -0.101165 0.015662 -1.951736
v -3.279293 0.015662 -2.210518
v -1.754272 0.015662 -3.782742
v -4.937458 0.015662 -3.618275
v -3.668689 0.015662 -5.408052
v -7.143289 0.015662 -4.286503
v -5.874763 0.015662 -6.698973
v -8.923637 0.015662 -4.586403
v -7.906607 0.015662 -7.534096
v -10.762201 0.015662 -4.909523
v -9.835310 0.015662 -8.144775
v -12.315220 0.015662 -5.124924
v -11.699514 0.015662 -8.578461
v -13.421108 0.015662 -5.303833
v -12.890123 0.015662 -8.771091
v -16.064234 0.015662 -5.610487
v -15.683432 0.015662 -9.096153
v -17.357313 0.015662 -5.707594
v -17.016172 0.015662 -9.196239
v -19.075258 0.015662 -5.813046
v -18.741640 0.015662 -9.302155
v -20.736082 0.015662 -6.089544
v -20.470850 0.015662 -9.420017
v -22.692923 0.015662 -6.808613
v -22.222387 0.015662 -9.585314
v -24.376299 0.015662 -7.676270
v -24.016199 0.015662 -9.832821
v -26.365370 0.015662 -8.066641
v -25.873350 0.015662 -10.197304
v -28.409075 0.015662 -8.610512
v -27.859827 0.015662 -10.725945
v -29.961981 0.015662 -9.003670
v -29.501570 0.015662 -11.141592
v -31.556093 0.015662 -9.287605
v -31.218279 0.015662 -11.447365
v -33.203373 0.015662 -9.509743
v -32.927837 0.015662 -11.677902
v -34.867760 0.015662 -9.708355
v -34.596153 0.015662 -11.876982
v -36.515781 0.015662 -9.924520
v -36.186527 0.015662 -12.085585
v -38.117165 0.015662 -10.202660
v -37.659081 0.015662 -12.341347
v -39.644531 0.015662 -10.592712
v -38.971024 0.015662 -12.676388
v -41.069679 0.015662 -11.154068
v -40.080406 0.015662 -13.113369
v -42.350288 0.015662 -11.956772
v -40.959373 0.015662 -13.664314
v -43.409790 0.015662 -13.063568
v -41.614349 0.015662 -14.348524
v -44.150215 0.015662 -14.490076
v -42.073143 0.015662 -15.232443
v -44.520477 0.015662 -16.246576
v -42.316696 0.015662 -16.387842
v -44.304070 0.015662 -18.955259
v -42.162148 0.015662 -18.322165
v -18.442194 0.015662 -19.425158
v -20.629148 0.015662 -19.155918
v -18.259672 0.015662 -18.710815
v -20.311239 0.015662 -17.911718
v -17.916174 0.015662 -18.070982
v -19.747473 0.015662 -16.861589
v -17.409899 0.015662 -17.437969
v -19.045252 0.015662 -15.983580
v -16.759897 0.015662 -16.779835
v -18.291113 0.015662 -15.220001
v -16.010847 0.015662 -16.066952
v -17.545965 0.015662 -14.510836
v -15.220343 0.015662 -15.258619
v -16.857805 0.015662 -13.807154
v -14.455561 0.015662 -14.305628
v -16.265047 0.015662 -13.068520
v -13.795803 0.015662 -13.161600
v -15.793976 0.015662 -12.251678
v -13.326323 0.015662 -11.797733
v -15.464933 0.015662 -11.295792
v -13.118624 0.015662 -10.203384
v -15.312002 0.015662 -10.121866
v -13.166798 0.015662 -9.381496
v -15.336794 0.015662 -9.622538
vt 0.404146 0.931687
vt 0.398774 0.881697
vt 0.430948 0.878862
vt 0.374520 0.929404
vt 0.364946 0.888208
vt 0.340745 0.930390
vt 0.308754 0.943372
vt 0.293973 0.913176
vt 0.279403 0.960745
vt 0.261390 0.931659
vt 0.250500 0.980479
vt 0.230672 0.952113
vt 0.485077 0.938437
vt 0.483355 0.876188
vt 0.535322 0.884967
vt 0.460290 0.937486
vt 0.433288 0.934029
vt 0.460356 0.876680
vt 0.628044 0.737688
vt 0.659487 0.756035
vt 0.646712 0.772474
vt 0.518607 0.942072
vt 0.555965 0.893206
vt 0.543905 0.947357
vt 0.580437 0.899818
vt 0.596601 0.953773
vt 0.570496 0.952101
vt 0.624412 0.951750
vt 0.605018 0.905891
vt 0.631744 0.785140
vt 0.611082 0.757020
vt 0.620402 0.747526
vt 0.616728 0.794604
vt 0.599740 0.763701
vt 0.601760 0.802817
vt 0.585884 0.771647
vt 0.586809 0.809939
vt 0.570738 0.779291
vt 0.573299 0.817129
vt 0.554559 0.788454
vt 0.560483 0.826236
vt 0.538551 0.798925
vt 0.549383 0.836532
vt 0.540368 0.848238
vt 0.510945 0.830981
vt 0.523983 0.813320
vt 0.499912 0.850563
vt 0.494042 0.864692
vt 0.533791 0.863118
vt 0.652353 0.947506
vt 0.630331 0.911690
vt 0.656724 0.916237
vt 0.683786 0.920011
vt 0.708743 0.952973
vt 0.680528 0.949887
vt 0.733194 0.956171
vt 0.711800 0.921977
vt 0.737804 0.924016
vt 0.763188 0.928443
vt 0.757423 0.959943
vt 0.788022 0.933124
vt 0.781240 0.964450
vt 0.812028 0.938540
vt 0.834978 0.943164
vt 0.829182 0.974932
vt 0.805286 0.969854
vt 0.856971 0.946665
vt 0.853002 0.979498
vt 0.877262 0.947712
vt 0.895366 0.946949
vt 0.900515 0.981100
vt 0.876691 0.981458
vt 0.911430 0.942816
vt 0.925926 0.935652
vt 0.946401 0.963489
vt 0.924498 0.975397
vt 0.964526 0.945956
vt 0.948717 0.908125
vt 0.978104 0.921152
vt 0.955043 0.885898
vt 0.328892 0.898599
vt 0.531917 0.872725
vt 0.937429 0.923778
vt 0.985936 0.887411
vn 0.000000 1.000000 0.000000
usemtl Material.066
s off
f 11/1/1 12/2/1 14/3/1
f 12/2/1 11/1/1 9/4/1
f 10/5/1 9/4/1 7/6/1
f 7/6/1 5/7/1 6/8/1
f 5/7/1 3/9/1 4/10/1
f 3/9/1 1/11/1 2/12/1
f 17/13/1 18/14/1 20/15/1
f 18/14/1 17/13/1 15/16/1
f 13/17/1 14/3/1 16/18/1
f 61/19/1 62/20/1 64/21/1
f 19/22/1 20/15/1 22/23/1
f 21/24/1 22/23/1 24/25/1
f 25/26/1 23/27/1 24/25/1
f 27/28/1 25/26/1 26/29/1
f 66/30/1 65/31/1 63/32/1
f 68/33/1 67/34/1 65/31/1
f 70/35/1 69/36/1 67/34/1
f 69/36/1 70/35/1 72/37/1
f 71/38/1 72/37/1 74/39/1
f 73/40/1 74/39/1 76/41/1
f 75/42/1 76/41/1 78/43/1
f 80/44/1 79/45/1 77/46/1
f 81/47/1 79/45/1 80/44/1
f 83/48/1 81/47/1 82/49/1
f 20/15/1 18/14/1 83/48/1
f 29/50/1 27/28/1 28/51/1
f 29/50/1 30/52/1 32/53/1
f 33/54/1 31/55/1 32/53/1
f 35/56/1 33/54/1 34/57/1
f 35/56/1 36/58/1 38/59/1
f 37/60/1 38/59/1 40/61/1
f 39/62/1 40/61/1 42/63/1
f 44/64/1 43/65/1 41/66/1
f 43/65/1 44/64/1 46/67/1
f 45/68/1 46/67/1 48/69/1
f 50/70/1 49/71/1 47/72/1
f 49/71/1 50/70/1 52/73/1
f 54/74/1 53/75/1 51/76/1
f 55/77/1 53/75/1 54/74/1
f 58/78/1 57/79/1 55/77/1
f 57/79/1 58/78/1 60/80/1
f 13/17/1 11/1/1 14/3/1
f 10/5/1 12/2/1 9/4/1
f 8/81/1 10/5/1 7/6/1
f 8/81/1 7/6/1 6/8/1
f 6/8/1 5/7/1 4/10/1
f 4/10/1 3/9/1 2/12/1
f 19/22/1 17/13/1 20/15/1
f 16/18/1 18/14/1 15/16/1
f 15/16/1 13/17/1 16/18/1
f 63/32/1 61/19/1 64/21/1
f 21/24/1 19/22/1 22/23/1
f 23/27/1 21/24/1 24/25/1
f 26/29/1 25/26/1 24/25/1
f 28/51/1 27/28/1 26/29/1
f 64/21/1 66/30/1 63/32/1
f 66/30/1 68/33/1 65/31/1
f 68/33/1 70/35/1 67/34/1
f 71/38/1 69/36/1 72/37/1
f 73/40/1 71/38/1 74/39/1
f 75/42/1 73/40/1 76/41/1
f 77/46/1 75/42/1 78/43/1
f 78/43/1 80/44/1 77/46/1
f 82/49/1 81/47/1 80/44/1
f 84/82/1 83/48/1 82/49/1
f 84/82/1 20/15/1 83/48/1
f 30/52/1 29/50/1 28/51/1
f 31/55/1 29/50/1 32/53/1
f 34/57/1 33/54/1 32/53/1
f 36/58/1 35/56/1 34/57/1
f 37/60/1 35/56/1 38/59/1
f 39/62/1 37/60/1 40/61/1
f 41/66/1 39/62/1 42/63/1
f 42/63/1 44/64/1 41/66/1
f 45/68/1 43/65/1 46/67/1
f 47/72/1 45/68/1 48/69/1
f 48/69/1 50/70/1 47/72/1
f 51/76/1 49/71/1 52/73/1
f 52/73/1 54/74/1 51/76/1
f 56/83/1 55/77/1 54/74/1
f 56/83/1 58/78/1 55/77/1
f 59/84/1 57/79/1 60/80/1
