# Blender v2.74 (sub 0) OBJ File: ''
# www.blender.org
mtllib 07_Sekt_2.mtl
o 14_Sekt_3.008_Mesh.022
v -0.481434 0.015662 1.243690
v 1.127857 0.015662 -0.236275
v -1.931545 0.015662 -0.249409
v -0.365528 0.015662 -1.773930
v -3.430267 0.015662 -1.785306
v -1.828659 0.015662 -3.273343
v -4.863670 0.015662 -3.405957
v -3.149376 0.015662 -4.766598
v -6.112728 0.015662 -5.164410
v -4.220615 0.015662 -6.274708
v -7.040939 0.015662 -7.117276
v -4.952782 0.015662 -7.815110
v -7.485775 0.015662 -9.296747
v -5.282314 0.015662 -9.429667
v -7.296215 0.015662 -11.636683
v -5.134155 0.015662 -11.258562
v -6.849438 0.015662 -13.280092
v -4.768162 0.015662 -12.604815
v -6.270878 0.015662 -14.807734
v -4.265354 0.015662 -13.932444
v -5.553463 0.015662 -16.252092
v -3.646076 0.015662 -15.179224
v -4.702530 0.015662 -17.598131
v -2.918259 0.015662 -16.330515
v -3.723106 0.015662 -18.830202
v -2.090141 0.015662 -17.372248
v -2.620155 0.015662 -19.931780
v -1.170029 0.015662 -18.291216
v -1.399002 0.015662 -20.885286
v -0.165863 0.015662 -19.075296
v -0.066010 0.015662 -21.672022
v 0.915451 0.015662 -19.713488
v 1.370686 0.015662 -22.272516
v 2.068783 0.015662 -20.195543
v 2.900574 0.015662 -22.667406
v 3.291367 0.015662 -20.511118
v 4.510891 0.015662 -22.838701
v 4.582706 0.015662 -20.648478
vt 0.199278 0.977101
vt 0.166518 0.965997
vt 0.177969 0.933981
vt 0.133041 0.953740
vt 0.147336 0.921581
vt 0.100853 0.938079
vt 0.071544 0.918401
vt 0.095942 0.890698
vt 0.119843 0.907769
vt 0.047359 0.893349
vt 0.075715 0.870141
vt 0.029168 0.861249
vt 0.017974 0.824359
vt 0.051558 0.818139
vt 0.060703 0.846656
vt 0.013674 0.786291
vt 0.049052 0.786876
vt 0.017132 0.749817
vt 0.052397 0.756994
vt 0.027567 0.714531
vt 0.044684 0.682872
vt 0.075029 0.701885
vt 0.092743 0.677158
vt 0.066059 0.654554
vt 0.090755 0.628736
vt 0.111629 0.610454
vt 0.133933 0.636738
vt 0.114575 0.653585
vt 0.134494 0.592032
vt 0.153696 0.620651
vt 0.156428 0.576564
vt 0.176075 0.604083
vt 0.178412 0.561414
vt 0.198557 0.586841
vt 0.204781 0.543000
vt 0.210706 0.945549
vt 0.061303 0.728345
vt 0.222106 0.569851
vn 0.000000 1.000000 0.000000
usemtl Material.072
s off
f 37/1/1 35/2/1 36/3/1
f 36/3/1 35/2/1 33/4/1
f 34/5/1 33/4/1 31/6/1
f 29/7/1 30/8/1 32/9/1
f 27/10/1 28/11/1 30/8/1
f 28/11/1 27/10/1 25/12/1
f 23/13/1 24/14/1 26/15/1
f 21/16/1 22/17/1 24/14/1
f 22/17/1 21/16/1 19/18/1
f 20/19/1 19/18/1 17/20/1
f 17/20/1 15/21/1 16/22/1
f 14/23/1 16/22/1 15/21/1
f 14/23/1 13/24/1 11/25/1
f 9/26/1 10/27/1 12/28/1
f 7/29/1 8/30/1 10/27/1
f 8/30/1 7/29/1 5/31/1
f 6/32/1 5/31/1 3/33/1
f 4/34/1 3/33/1 1/35/1
f 38/36/1 37/1/1 36/3/1
f 34/5/1 36/3/1 33/4/1
f 32/9/1 34/5/1 31/6/1
f 31/6/1 29/7/1 32/9/1
f 29/7/1 27/10/1 30/8/1
f 26/15/1 28/11/1 25/12/1
f 25/12/1 23/13/1 26/15/1
f 23/13/1 21/16/1 24/14/1
f 20/19/1 22/17/1 19/18/1
f 18/37/1 20/19/1 17/20/1
f 18/37/1 17/20/1 16/22/1
f 13/24/1 14/23/1 15/21/1
f 12/28/1 14/23/1 11/25/1
f 11/25/1 9/26/1 12/28/1
f 9/26/1 7/29/1 10/27/1
f 6/32/1 8/30/1 5/31/1
f 4/34/1 6/32/1 3/33/1
f 2/38/1 4/34/1 1/35/1
