# Blender v2.74 (sub 0) OBJ File: ''
# www.blender.org
mtllib 09_Abkz_2_p1.mtl
o 14_Sekt_3.006_Mesh.024
v -0.528419 0.015638 -1.364565
v -0.850571 0.015638 0.809729
v -0.092739 0.015638 1.006277
v 0.442566 0.015638 1.345968
v 2.888137 0.015638 0.811777
v 1.053813 0.015638 2.007891
v 3.269443 0.015638 1.617842
v 1.298488 0.015638 2.572546
v 3.709624 0.015638 2.697500
v 1.659736 0.015638 3.458609
v 4.074286 0.015638 3.783697
v 1.999053 0.015638 4.469305
v 4.416472 0.015638 4.836432
v 2.351737 0.015638 5.554335
v 4.777701 0.015638 5.810949
v 2.764602 0.015638 6.668158
v 5.188144 0.015638 6.660299
v 3.295817 0.015638 7.767439
v 5.666564 0.015638 7.346884
v 4.014953 0.015638 8.799475
v 6.234683 0.015638 7.862135
v 4.988627 0.015638 9.682531
v 6.964915 0.015638 8.227446
v 6.232745 0.015638 10.304922
v 9.373797 0.015638 8.750517
v 9.160853 0.015638 10.940741
v 11.640326 0.015638 8.705221
v 11.914199 0.015638 10.885717
v 13.826737 0.015638 8.193487
v 14.496396 0.015638 10.281347
v 15.983518 0.015638 7.304831
v 16.922806 0.015638 9.281599
v 18.138889 0.015638 6.137587
v 19.231060 0.015638 8.031561
v 20.316288 0.015638 4.803144
v 21.463577 0.015638 6.663336
v 22.543770 0.015638 3.420614
v 23.658154 0.015638 5.301229
v 24.856197 0.015638 2.113791
v 25.845776 0.015638 4.064939
v 27.293667 0.015638 1.012518
v 28.052200 0.015638 3.068052
v 29.894806 0.015638 0.257002
v 30.304657 0.015638 2.413816
v 0.291080 0.015638 -1.410055
v 2.107610 0.015638 -1.723825
v 3.014396 0.015638 0.261942
v 4.049104 0.015638 -2.257521
v 4.678586 0.015638 -0.163458
v 6.018540 0.015638 -2.918303
v 6.762826 0.015638 -0.862753
v 7.903392 0.015638 -3.651728
v 8.724246 0.015638 -1.625978
v 9.741119 0.015638 -4.426302
v 10.595821 0.015638 -2.414820
v 11.568326 0.015638 -5.208979
v 12.411387 0.015638 -3.192507
v 13.420959 0.015638 -5.964674
v 14.205433 0.015638 -3.924307
v 15.334083 0.015638 -6.656099
v 16.013332 0.015638 -4.577700
v 17.341190 0.015638 -7.243998
v 17.872028 0.015638 -5.122126
v 19.473444 0.015638 -7.688112
v 19.820797 0.015638 -5.528025
v 21.759605 0.015638 -7.948782
v 21.901314 0.015638 -5.765249
v 24.208614 0.015638 -7.988180
v 24.175076 0.015638 -5.801825
v 26.068125 0.015638 -7.901163
v 25.928375 0.015638 -5.719782
v 27.817055 0.015638 -7.758852
v 27.594063 0.015638 -5.584238
v 29.487949 0.015638 -7.551985
v 29.165829 0.015638 -5.389647
vt 0.892836 0.756753
vt 0.920522 0.729834
vt 0.927721 0.738670
vt 0.882371 0.753230
vt 0.899957 0.700758
vt 0.868348 0.752321
vt 0.863949 0.716745
vt 0.745111 0.407727
vt 0.725080 0.428685
vt 0.711853 0.413627
vt 0.759509 0.423286
vt 0.775342 0.440264
vt 0.753563 0.459411
vt 0.791128 0.460789
vt 0.769302 0.479913
vt 0.807491 0.483865
vt 0.782701 0.498942
vt 0.820579 0.506155
vt 0.795446 0.520638
vt 0.832467 0.529851
vt 0.806081 0.541881
vt 0.842847 0.552743
vt 0.816570 0.564989
vt 0.851491 0.577547
vt 0.826402 0.587479
vt 0.860186 0.601409
vt 0.835923 0.612166
vt 0.869381 0.626840
vt 0.847125 0.634997
vt 0.878235 0.651323
vt 0.889321 0.676604
vt 0.863756 0.686029
vt 0.855028 0.660862
vt 0.871983 0.709579
vt 0.613691 0.464578
vt 0.638021 0.452711
vt 0.650476 0.483756
vt 0.623718 0.491820
vt 0.658431 0.516335
vt 0.631050 0.521873
vt 0.663955 0.549433
vt 0.636481 0.553927
vt 0.668394 0.583372
vt 0.639624 0.586874
vt 0.672653 0.615232
vt 0.679154 0.646333
vt 0.651035 0.653685
vt 0.644489 0.619981
vt 0.687871 0.675313
vt 0.661905 0.685820
vt 0.700299 0.701175
vt 0.716996 0.723572
vt 0.697850 0.741698
vt 0.676977 0.715432
vt 0.737701 0.739217
vt 0.750883 0.743271
vt 0.741232 0.775503
vt 0.721815 0.763437
vt 0.764097 0.745875
vt 0.760344 0.779297
vt 0.777314 0.745232
vt 0.779813 0.778892
vt 0.790980 0.743544
vt 0.797475 0.774884
vt 0.804532 0.739588
vt 0.814614 0.769469
vt 0.819490 0.734767
vt 0.829554 0.764389
vt 0.834372 0.728929
vt 0.845453 0.758772
vt 0.848708 0.723824
vt 0.859241 0.755230
vt 0.903945 0.764013
vt 0.730906 0.391773
vt 0.738694 0.443463
vn 0.000000 1.000000 0.000000
usemtl Material.076
s off
f 3/1/1 45/2/1 1/3/1
f 4/4/1 46/5/1 45/2/1
f 4/4/1 6/6/1 5/7/1
f 72/8/1 73/9/1 75/10/1
f 73/9/1 72/8/1 70/11/1
f 70/11/1 68/12/1 69/13/1
f 68/12/1 66/14/1 67/15/1
f 64/16/1 65/17/1 67/15/1
f 62/18/1 63/19/1 65/17/1
f 60/20/1 61/21/1 63/19/1
f 61/21/1 60/20/1 58/22/1
f 59/23/1 58/22/1 56/24/1
f 57/25/1 56/24/1 54/26/1
f 55/27/1 54/26/1 52/28/1
f 53/29/1 52/28/1 50/30/1
f 48/31/1 49/32/1 51/33/1
f 48/31/1 46/5/1 47/34/1
f 44/35/1 43/36/1 41/37/1
f 42/38/1 41/37/1 39/39/1
f 40/40/1 39/39/1 37/41/1
f 38/42/1 37/41/1 35/43/1
f 36/44/1 35/43/1 33/45/1
f 31/46/1 32/47/1 34/48/1
f 32/47/1 31/46/1 29/49/1
f 30/50/1 29/49/1 27/51/1
f 25/52/1 26/53/1 28/54/1
f 26/53/1 25/52/1 23/55/1
f 21/56/1 22/57/1 24/58/1
f 21/56/1 19/59/1 20/60/1
f 19/59/1 17/61/1 18/62/1
f 17/61/1 15/63/1 16/64/1
f 15/63/1 13/65/1 14/66/1
f 13/65/1 11/67/1 12/68/1
f 11/67/1 9/69/1 10/70/1
f 9/69/1 7/71/1 8/72/1
f 7/71/1 5/7/1 6/6/1
f 46/5/1 4/4/1 47/34/1
f 2/73/1 3/1/1 1/3/1
f 3/1/1 4/4/1 45/2/1
f 47/34/1 4/4/1 5/7/1
f 74/74/1 72/8/1 75/10/1
f 71/75/1 73/9/1 70/11/1
f 71/75/1 70/11/1 69/13/1
f 69/13/1 68/12/1 67/15/1
f 66/14/1 64/16/1 67/15/1
f 64/16/1 62/18/1 65/17/1
f 62/18/1 60/20/1 63/19/1
f 59/23/1 61/21/1 58/22/1
f 57/25/1 59/23/1 56/24/1
f 55/27/1 57/25/1 54/26/1
f 53/29/1 55/27/1 52/28/1
f 51/33/1 53/29/1 50/30/1
f 50/30/1 48/31/1 51/33/1
f 49/32/1 48/31/1 47/34/1
f 42/38/1 44/35/1 41/37/1
f 40/40/1 42/38/1 39/39/1
f 38/42/1 40/40/1 37/41/1
f 36/44/1 38/42/1 35/43/1
f 34/48/1 36/44/1 33/45/1
f 33/45/1 31/46/1 34/48/1
f 30/50/1 32/47/1 29/49/1
f 28/54/1 30/50/1 27/51/1
f 27/51/1 25/52/1 28/54/1
f 24/58/1 26/53/1 23/55/1
f 23/55/1 21/56/1 24/58/1
f 22/57/1 21/56/1 20/60/1
f 20/60/1 19/59/1 18/62/1
f 18/62/1 17/61/1 16/64/1
f 16/64/1 15/63/1 14/66/1
f 14/66/1 13/65/1 12/68/1
f 12/68/1 11/67/1 10/70/1
f 10/70/1 9/69/1 8/72/1
f 8/72/1 7/71/1 6/6/1
