# This file uses centimeters as units for non-parametric coordinates.

mtllib Bay.mtl
g softMod149Set5 softMod150Set5 softMod151Set5 softMod152Set5 softMod153Set5 softMod154Set5 softMod155Set5 softMod156Set5 softMod157Set5 softMod158Set5 softMod162Set5 softMod163Set5 softMod164Set5 softMod165Set5 softMod166Set5 softMod167Set5 softMod168Set5 softMod169Set5 softMod170Set5 softMod171Set5 softMod172Set5 tweakSet7
v 41.484145 0.031943 33.421699
v 23.769671 0.031943 57.519943
v 24.180204 0.031943 71.902641
v 29.761486 0.031943 23.095006
v 31.291581 0.031943 27.623915
v 33.916328 0.031943 6.947724
v 30.313053 0.031943 4.657253
v 40.052899 0.031943 36.019203
v 23.407382 0.031943 40.957846
v 21.706517 0.031943 42.920788
v 24.664341 0.031943 51.676371
v 40.744929 0.031943 4.856578
v 33.716670 0.031943 10.599191
v 42.450310 0.031943 22.239975
v 42.374580 0.031943 -5.231367
v 39.044085 0.031943 -1.791816
v 41.772287 0.031943 -0.646248
v 24.692342 0.031943 5.302878
v 23.305104 0.031943 -8.013712
v 18.243331 0.031943 -6.323296
v 26.046919 0.031943 38.985471
v 36.904171 0.031943 41.311007
v 25.229898 0.031943 49.728515
v 16.380491 0.031943 58.562123
v 38.319149 0.031943 1.084009
v 39.378900 0.031943 4.922252
v 40.617107 0.031943 -5.427648
v 16.339163 0.031943 -1.502854
v 44.362210 0.031943 6.947724
v 22.283253 0.031943 -7.888594
v 43.237346 0.031943 3.866808
v 41.756285 0.031943 -7.416290
v 35.707267 0.031943 -0.387104
v 29.935501 0.031943 24.320013
v 33.475739 0.031943 -8.189221
v 17.135977 0.031943 -4.190618
v 32.053615 0.031943 3.663288
v 27.716956 0.031943 5.782933
v 32.898708 0.031943 34.818510
v 32.616555 0.069731 3.823511
v 43.429121 0.031943 3.296257
v 39.600693 0.031943 -8.476035
v 42.011445 0.031943 0.397163
v 29.444024 0.031943 4.739123
v 36.601177 0.031943 -8.044292
v 30.675785 0.031943 -7.963927
v 27.303214 0.031943 -7.235079
v 26.562187 0.031943 47.305697
v 17.162791 0.031943 47.580986
v 16.931483 0.031943 53.882372
v 16.650546 0.031943 56.402925
v 44.166819 0.031943 8.164879
v 26.777346 0.031943 5.350929
v 32.140526 0.031943 44.294631
v 19.576570 0.031943 44.409855
v 42.070243 0.031943 -3.026336
v 38.355894 0.031943 1.909453
v 20.538616 0.031943 4.190858
v 17.977723 0.031943 45.894819
v 41.077681 0.031943 -4.849974
v 41.938096 0.031943 4.635364
v 16.449059 0.031943 -0.102301
v 22.694322 0.031943 42.032397
v 16.381034 0.031943 72.045881
v 24.180204 0.031943 61.115616
v 41.618627 0.031943 -4.884163
v 41.986265 0.031943 -6.672538
v 41.336454 0.031943 -8.020519
v 32.249779 0.031943 32.290276
v 41.521790 0.031943 27.133543
v 17.332998 0.031943 1.885131
v 27.660505 0.031943 -0.593733
v 30.447609 0.031943 36.838778
v 43.155210 0.031943 10.599191
v 30.155389 0.031943 22.066473
vt 0.696323 0.556451
vt 0.652443 0.868299
vt 0.687410 0.554330
vt 0.642735 0.550651
vt 0.696323 0.567226
vt 0.696323 0.570818
vt 0.600666 0.906419
vt 0.623960 0.570216
vt 0.615881 0.853489
vt 0.624144 0.563799
vt 0.601167 0.852506
vt 0.630503 0.970746
vt 0.659738 0.963595
vt 0.624757 0.550407
vt 0.660638 0.551474
vt 0.615968 0.992515
vt 0.615722 0.963332
vt 0.630558 0.992515
vt 0.659738 0.934675
vt 0.572198 0.992515
vt 0.600515 0.932254
vt 0.600786 0.963307
vt 0.601378 0.992515
vt 0.561030 0.917356
vt 0.659738 0.585436
vt 0.659738 0.749349
vt 0.543019 0.712924
vt 0.659738 0.876836
vt 0.659738 0.803986
vt 0.630533 0.856799
vt 0.659738 0.822199
vt 0.531808 0.876836
vt 0.543019 0.822199
vt 0.600761 0.896949
vt 0.543019 0.731136
vt 0.543019 0.767561
vt 0.543019 0.676499
vt 0.543019 0.621862
vt 0.659738 0.676499
vt 0.543019 0.992515
vt 0.464546 0.992515
vt 0.498177 0.992515
vt 0.520598 0.992515
vt 0.363653 0.992515
vt 0.363653 0.920215
vt 0.363653 0.963595
vt 0.363653 0.934675
vt 0.408494 0.992515
vt 0.419705 0.992515
vt 0.363653 0.898526
vt 0.386074 0.876836
vt 0.430915 0.876836
vt 0.453336 0.876836
vt 0.520598 0.876836
vt 0.498177 0.876836
vt 0.464546 0.876836
vt 0.474041 0.934668
vt 0.486967 0.876836
vt 0.543019 0.585436
vt 0.499668 0.536401
vt 0.638322 0.547484
vt 0.411237 0.476514
vt 0.444399 0.498972
vt 0.468306 0.374698
vt 0.529757 0.419342
vt 0.591208 0.463986
vt 0.393078 0.449928
vt 0.374918 0.423341
vt 0.402158 0.463221
vt 0.356758 0.396755
vt 0.338598 0.370168
vt 0.450807 0.338034
vt 0.290927 0.238164
vt 0.284117 0.205856
vt 0.304547 0.275879
vt 0.400817 0.221450
vt 0.438310 0.308888
vt 0.284117 0.004096
vt 0.400817 0.006240
vt 0.400817 0.167648
vt 0.624261 0.561447
vt 0.696323 0.585185
vt 0.660669 0.585185
vt 0.651583 0.577943
vt 0.696323 0.578001
vt 0.660602 0.579778
vt 0.625015 0.585185
vt 0.642842 0.585185
vt 0.624291 0.577930
vt 0.642540 0.577936
vt 0.659738 0.767561
vt 0.543019 0.749349
vn 0.000000 1.000000 0.000000
vn 0.000000 1.000000 0.000000
vn 0.000000 1.000000 0.000000
vn 0.000000 1.000000 0.000000
vn 0.000000 1.000000 0.000000
vn 0.000000 1.000000 0.000000
vn 0.000000 1.000000 -0.000000
vn 0.000000 1.000000 0.000000
vn 0.000000 1.000000 -0.000000
vn 0.002355 0.999997 -0.000190
vn 0.000000 1.000000 0.000000
vn 0.000000 1.000000 0.000000
vn 0.000000 1.000000 0.000000
vn 0.000000 1.000000 0.000000
vn 0.000000 1.000000 0.000000
vn 0.000000 1.000000 0.000000
vn 0.000000 1.000000 0.000000
vn 0.000000 1.000000 0.000000
vn 0.000000 1.000000 0.000000
vn 0.000000 1.000000 0.000000
vn 0.000000 1.000000 0.000000
vn 0.000720 0.999999 -0.001032
vn 0.000000 1.000000 0.000000
vn 0.000000 1.000000 0.000000
vn 0.000000 1.000000 0.000000
vn 0.000000 1.000000 0.000000
vn 0.000000 1.000000 0.000000
vn 0.000000 1.000000 0.000000
vn 0.000000 1.000000 0.000000
vn 0.003519 0.999989 0.003101
vn 0.000929 0.999998 -0.001607
vn 0.000000 1.000000 0.000000
vn 0.000000 1.000000 0.000000
vn 0.000000 1.000000 0.000000
vn 0.000000 1.000000 -0.000000
vn 0.000000 1.000000 0.000000
vn 0.000000 1.000000 0.000000
vn 0.000000 1.000000 0.000000
vn 0.000000 1.000000 0.000000
vn -0.001737 0.999997 -0.001567
vn 0.000000 1.000000 0.000000
vn 0.000000 1.000000 0.000000
vn 0.000000 1.000000 0.000000
vn 0.000000 1.000000 0.000000
vn 0.000000 1.000000 0.000000
vn 0.000000 1.000000 0.000000
vn 0.000000 1.000000 0.000000
vn 0.000000 1.000000 0.000000
vn 0.000000 1.000000 0.000000
vn 0.000000 1.000000 0.000000
vn 0.000000 1.000000 0.000000
vn -0.000000 1.000000 -0.000000
vn 0.000000 1.000000 -0.000000
vn 0.000000 1.000000 0.000000
vn 0.000000 1.000000 0.000000
vn 0.000000 1.000000 0.000000
vn 0.000000 1.000000 0.000000
vn 0.000000 1.000000 0.000000
vn 0.000000 1.000000 0.000000
vn 0.000000 1.000000 0.000000
vn 0.000000 1.000000 0.000000
vn 0.000000 1.000000 0.000000
vn 0.000000 1.000000 0.000000
vn 0.000000 1.000000 0.000000
vn 0.000000 1.000000 0.000000
vn 0.000000 1.000000 0.000000
vn 0.000000 1.000000 0.000000
vn 0.000000 1.000000 -0.000000
vn 0.000000 1.000000 -0.000000
vn 0.000000 1.000000 0.000000
vn 0.000000 1.000000 -0.000000
vn 0.000000 1.000000 0.000000
vn 0.000000 1.000000 0.000000
vn 0.000000 1.000000 0.000000
vn 0.000000 1.000000 0.000000
s 1
g pPlane7
usemtl initialShadingGroup
f 41/1/1 43/5/2 12/4/3
f 61/15/4 31/3/5 41/1/1
f 25/10/6 17/6/7 16/8/8
f 43/5/2 17/6/7 12/4/3
f 17/6/7 26/14/9 12/4/3
f 61/15/4 41/1/1 12/4/3
f 57/81/10 26/14/9 17/6/7
f 17/6/7 25/10/6 57/81/10
f 15/82/11 67/83/12 56/85/13
f 67/83/12 66/86/14 56/85/13
f 66/86/14 60/84/15 56/85/13
f 68/87/16 27/89/17 32/88/18
f 60/90/15 32/88/18 27/89/17
f 32/16/18 60/17/15 67/18/12
f 67/18/12 60/17/15 66/12/14
f 60/17/15 27/22/17 16/21/8
f 60/17/15 16/21/8 56/13/13
f 17/19/7 56/13/13 16/21/8
f 16/21/8 27/22/17 45/40/19
f 45/40/19 27/22/17 42/20/20
f 27/22/17 68/23/16 42/20/20
f 13/36/21 26/11/9 57/34/10
f 25/7/6 16/21/8 33/24/22
f 35/43/23 33/24/22 16/21/8
f 14/26/24 34/27/25 70/39/26
f 41/28/1 31/2/5 29/31/27
f 31/2/5 61/30/4 29/31/27
f 26/11/9 52/29/28 12/9/3
f 52/29/28 61/30/4 12/9/3
f 29/31/27 61/30/4 52/29/28
f 26/11/9 74/91/29 52/29/28
f 6/33/30 57/34/10 40/32/31
f 40/32/31 57/34/10 33/24/22
f 57/34/10 6/33/30 13/36/21
f 25/7/6 33/24/22 57/34/10
f 4/35/32 34/27/25 75/92/33
f 70/39/26 69/38/34 39/59/35
f 70/39/26 5/37/36 69/38/34
f 34/27/25 5/37/36 70/39/26
f 45/40/19 35/43/23 16/21/8
f 46/42/37 47/41/38 72/57/39
f 72/57/39 35/43/23 46/42/37
f 35/43/23 72/57/39 37/54/40
f 20/44/41 36/46/42 62/45/43
f 30/48/44 20/44/41 62/45/43
f 62/45/43 36/46/42 28/47/45
f 72/57/39 30/48/44 62/45/43
f 47/41/38 19/49/46 72/57/39
f 72/57/39 19/49/46 30/48/44
f 58/51/47 62/45/43 71/50/48
f 62/45/43 18/52/49 53/53/50
f 62/45/43 58/51/47 18/52/49
f 40/32/31 33/24/22 37/54/40
f 37/54/40 33/24/22 35/43/23
f 62/45/43 53/53/50 72/57/39
f 53/53/50 38/56/51 72/57/39
f 7/55/52 37/54/40 44/58/53
f 44/58/53 37/54/40 72/57/39
f 38/56/51 44/58/53 72/57/39
f 8/61/54 39/59/35 73/60/55
f 73/60/55 22/66/56 8/61/54
f 39/59/35 1/25/57 70/39/26
f 39/59/35 8/61/54 1/25/57
f 9/62/58 63/69/59 48/64/60
f 9/62/58 48/64/60 21/63/61
f 48/64/60 73/60/55 21/63/61
f 73/60/55 48/64/60 54/65/62
f 22/66/56 73/60/55 54/65/62
f 10/67/63 48/64/60 63/69/59
f 10/67/63 55/68/64 48/64/60
f 48/64/60 55/68/64 49/71/65
f 55/68/64 59/70/66 49/71/65
f 49/71/65 23/72/67 48/64/60
f 49/71/65 50/75/68 11/77/69
f 50/75/68 51/73/70 2/76/71
f 2/76/71 51/73/70 24/74/72
f 11/77/69 50/75/68 2/76/71
f 49/71/65 11/77/69 23/72/67
f 65/80/73 24/74/72 64/78/74
f 64/78/74 3/79/75 65/80/73
f 65/80/73 2/76/71 24/74/72
f 14/26/24 75/92/33 34/27/25
f 74/91/29 75/92/33 14/26/24
f 74/91/29 26/11/9 75/92/33
f 13/36/21 75/92/33 26/11/9
