# This file uses centimeters as units for non-parametric coordinates.

mtllib Beerbarrel.mtl
g default
v 0.822968 0.000000 -1.134574
v -0.832831 0.000000 -1.134574
v -1.344501 0.000000 0.440184
v -0.004932 0.000000 1.413438
v 1.334637 0.000000 0.440184
v 0.822968 4.768892 -1.134574
v -0.832831 4.768892 -1.134574
v -1.344501 4.768892 0.440184
v -0.004932 4.768892 1.413438
v 1.334637 4.768892 0.440184
v 1.669310 3.600530 0.548927
v -0.004932 3.600530 1.765335
v -1.679175 3.600530 0.548927
v -1.039671 3.600530 -1.419264
v 1.029807 3.600530 -1.419264
v 1.669310 1.009656 0.548927
v -0.004932 1.009656 1.765335
v -1.679175 1.009656 0.548927
v -1.039671 1.009656 -1.419264
v 1.029807 1.009656 -1.419264
v -0.004932 3.348584 1.765335
v -1.679175 3.348584 0.548927
v -1.039671 3.348584 -1.419264
v 1.029807 3.348584 -1.419264
v 1.669310 3.348584 0.548927
v -0.004932 1.292533 1.765335
v -1.679175 1.292533 0.548927
v -1.039671 1.292533 -1.419264
v 1.029807 1.292533 -1.419264
v 1.669310 1.292533 0.548927
v -0.004932 4.584101 1.469095
v -1.397434 4.584100 0.457383
v -0.865546 4.584100 -1.179601
v 0.855682 4.584101 -1.179601
v 1.387570 4.584101 0.457383
v -0.004932 0.180862 1.476474
v -1.404452 0.180862 0.459664
v -0.869883 0.180862 -1.185571
v 0.860019 0.180862 -1.185571
v 1.394587 0.180862 0.459663
v 0.846448 -0.013923 -1.166892
v 0.883499 0.166939 -1.217889
v -0.856312 -0.013923 -1.166891
v -0.893363 0.166939 -1.217888
v -1.382493 -0.013923 0.452529
v -1.442443 0.166939 0.472008
v -0.004932 -0.013923 1.453385
v -0.004932 0.166939 1.516421
v 1.372628 -0.013923 0.452529
v 1.432579 0.166939 0.472008
v 1.709490 1.009656 0.561982
v 1.709490 1.292533 0.561982
v -0.004932 1.009656 1.807582
v -0.004932 1.292533 1.807582
v -1.719354 1.009656 0.561982
v -1.719354 1.292533 0.561982
v -1.064503 1.009656 -1.453443
v -1.064503 1.292533 -1.453443
v 1.054640 1.009656 -1.453443
v 1.054640 1.292533 -1.453443
v -0.004932 3.348584 1.807582
v -0.004932 3.600530 1.807582
v -1.719354 3.348584 0.561982
v -1.719354 3.600530 0.561982
v -1.064503 3.348584 -1.453443
v -1.064503 3.600530 -1.453443
v 1.054640 3.348584 -1.453443
v 1.054640 3.600530 -1.453443
v 1.709490 3.348584 0.561982
v 1.709490 3.600530 0.561982
v -0.004932 4.596296 1.509589
v -0.004932 4.781089 1.453932
v -1.435946 4.596296 0.469897
v -1.383013 4.781089 0.452698
v -0.889347 4.596296 -1.212361
v -0.856633 4.781089 -1.167334
v 0.879484 4.596296 -1.212361
v 0.846769 4.781089 -1.167334
v 1.426081 4.596296 0.469897
v 1.373148 4.781089 0.452698
v -0.004932 0.142232 0.004932
v 0.822968 0.142232 -1.134574
v -0.832831 0.142232 -1.134574
v -1.344501 0.142232 0.440184
v -0.004932 0.142232 1.413438
v 1.334637 0.142232 0.440184
v -0.004932 4.626660 0.004932
v 0.822968 4.626660 -1.134574
v -0.832831 4.626660 -1.134574
v -1.344501 4.626660 0.440184
v -0.004932 4.626660 1.413438
v 1.334637 4.626660 0.440184
vt 1.300032 0.000000
vt 1.300032 0.037719
vt -0.299968 0.000000
vt -0.299968 0.037719
vt 0.100032 0.000000
vt 0.100032 0.037719
vt 0.500032 0.000000
vt 0.500032 0.037719
vt 0.900032 0.000000
vt 0.900032 0.037719
vt 0.900032 0.213467
vt 0.900032 0.272461
vt 0.500032 0.213467
vt 0.500032 0.272461
vt 0.100032 0.213467
vt 0.100032 0.272461
vt -0.299968 0.213467
vt -0.299968 0.272461
vt 1.300032 0.213467
vt 1.300032 0.272461
vt 0.752384 0.099077
vt 0.957507 0.098355
vt 0.753793 0.499074
vt 0.958915 0.498352
vt 0.755201 0.899072
vt 0.960324 0.898350
vt 0.756610 1.299070
vt 0.961732 1.298347
vt 0.750975 -0.300920
vt 0.956098 -0.301643
vt 0.500032 0.701251
vt 0.500032 0.753794
vt 0.100032 0.701251
vt 0.100032 0.753794
vt -0.299968 0.701251
vt -0.299968 0.753794
vt 1.300032 0.701251
vt 1.300032 0.753794
vt 0.900032 0.701251
vt 0.900032 0.753794
vt 0.500032 0.961462
vt 0.500032 1.000000
vt 0.100032 0.961462
vt 0.100032 1.000000
vt -0.299968 0.961462
vt -0.299968 1.000000
vt 1.300032 0.961462
vt 1.300032 1.000000
vt 0.900032 0.961462
vt 0.900032 1.000000
vt 0.272463 0.500769
vt 0.701250 0.499259
vt 0.273871 0.900767
vt 0.702658 0.899257
vt 0.275280 1.300765
vt 0.704067 1.299255
vt 0.269646 -0.299226
vt 0.698432 -0.300735
vt 0.271054 0.100772
vt 0.699841 0.099262
vt 1.300032 0.002904
vt 1.300032 0.040622
vt -0.299968 0.002904
vt -0.299968 0.040622
vt 0.100032 0.002904
vt 0.100032 0.040622
vt 0.500032 0.002904
vt 0.500032 0.040622
vt 0.040625 0.501586
vt 0.213469 0.500977
vt 0.042034 0.901583
vt 0.214878 0.900975
vt 0.043442 1.301581
vt 0.216286 1.300972
vt 0.037808 -0.298409
vt 0.210652 -0.299018
vt 0.039216 0.101588
vt 0.212060 0.100980
vt 0.900032 0.002904
vt 0.900032 0.040622
vt 0.900032 0.213467
vt 0.900032 0.272461
vt 0.500032 0.213467
vt 0.500032 0.272461
vt 0.100032 0.213467
vt 0.100032 0.272461
vt -0.299968 0.213467
vt -0.299968 0.272461
vt 1.300032 0.213467
vt 1.300032 0.272461
vt 0.500032 0.701251
vt 0.500032 0.753794
vt 0.500000 0.500000
vt 0.793893 0.904508
vt 0.206107 0.904508
vt 0.024472 0.345491
vt 0.500000 0.000000
vt 0.975528 0.345491
vt 0.500000 0.500000
vt 0.793893 0.904508
vt 0.206107 0.904508
vt 0.024472 0.345491
vt 0.500000 0.000000
vt 0.975528 0.345491
vt 0.100032 0.701251
vt 0.100032 0.753794
vt -0.299968 0.701251
vt -0.299968 0.753794
vt 1.300032 0.701251
vt 1.300032 0.753794
vt 0.900032 0.701251
vt 0.900032 0.753794
vt 0.500032 0.958918
vt 0.500032 0.997456
vt 0.100032 0.958918
vt 0.100032 0.997456
vt -0.299968 0.958918
vt -0.299968 0.997456
vt 1.300032 0.958918
vt 1.300032 0.997456
vt 0.900032 0.958918
vt 0.900032 0.997456
vt 1.300032 0.032566
vt -0.299968 0.032566
vt 0.100032 0.032566
vt 0.500032 0.032566
vt 0.900032 0.032566
vt 1.300032 0.967794
vt -0.299968 0.967794
vt 0.100032 0.967794
vt 0.500032 0.967794
vt 0.900032 0.967794
vn 0.555040 -0.329114 -0.763947
vn 0.555040 -0.329114 -0.763947
vn -0.565867 -0.329085 -0.755975
vn -0.566101 -0.329084 -0.755800
vn -0.893837 -0.329084 0.304563
vn -0.893743 -0.329083 0.304840
vn 0.013445 -0.329085 0.944205
vn 0.013737 -0.329083 0.944201
vn 0.898073 -0.329114 0.291802
vn 0.898073 -0.329114 0.291801
vn 0.000000 -1.000000 0.000000
vn 0.000000 -1.000000 0.000000
vn 0.000000 -1.000000 0.000000
vn 0.000000 -1.000000 -0.000000
vn 0.000000 -1.000000 0.000000
vn 0.000000 -1.000000 0.000000
vn -0.000000 1.000000 -0.000000
vn 0.000000 1.000000 -0.000000
vn -0.000000 1.000000 -0.000000
vn -0.000000 1.000000 0.000000
vn 0.000000 1.000000 0.000000
vn 0.000000 1.000000 0.000000
vn 0.924185 0.288072 0.250792
vn 0.047072 0.288072 0.956451
vn 0.922334 0.288158 0.257419
vn 0.040197 0.288158 0.956739
vn -0.895093 0.288072 0.340327
vn -0.897491 0.288158 0.333878
vn -0.600270 0.288072 -0.746117
vn -0.594877 0.288158 -0.750391
vn 0.524106 0.288072 -0.801453
vn 0.529837 0.288158 -0.797645
vn 0.951057 0.000000 0.309017
vn 0.000000 0.000000 1.000000
vn 0.951057 0.000000 0.309017
vn -0.000000 0.000000 1.000000
vn -0.951057 0.000000 0.309017
vn -0.951057 0.000000 0.309017
vn -0.587785 0.000000 -0.809017
vn -0.587785 0.000000 -0.809017
vn 0.587785 0.000000 -0.809017
vn 0.587785 0.000000 -0.809017
vn -0.000000 0.000000 1.000000
vn -0.000000 0.000000 1.000000
vn 0.951056 0.000000 0.309017
vn 0.951056 0.000000 0.309017
vn -0.951057 0.000000 0.309017
vn -0.951057 0.000000 0.309017
vn -0.587785 0.000000 -0.809017
vn -0.587785 0.000000 -0.809017
vn 0.587786 0.000000 -0.809017
vn 0.587786 0.000000 -0.809017
vn 0.000000 0.000000 1.000000
vn 0.000000 0.000000 1.000000
vn 0.951057 0.000000 0.309017
vn 0.951057 0.000000 0.309017
vn -0.951057 0.000000 0.309017
vn -0.951057 0.000000 0.309017
vn -0.587785 0.000000 -0.809017
vn -0.587785 0.000000 -0.809017
vn 0.587785 0.000000 -0.809017
vn 0.587785 0.000000 -0.809017
vn 0.914381 0.288368 0.284167
vn 0.012301 0.288368 0.957441
vn 0.914312 0.288369 0.284389
vn 0.012069 0.288369 0.957443
vn -0.906779 0.288369 0.307564
vn -0.906853 0.288370 0.307344
vn -0.572721 0.288368 -0.767356
vn -0.572535 0.288369 -0.767494
vn 0.552817 0.288368 -0.781816
vn 0.553007 0.288369 -0.781682
vn 0.884586 -0.328836 0.330719
vn -0.041180 -0.328836 0.943489
vn 0.882378 -0.328743 0.336655
vn -0.047508 -0.328743 0.943224
vn -0.910037 -0.328836 0.252389
vn -0.911740 -0.328743 0.246289
vn -0.521253 -0.328836 -0.787504
vn -0.515978 -0.328743 -0.791008
vn 0.587885 -0.328836 -0.739093
vn 0.592848 -0.328743 -0.735160
vn 0.193449 0.944290 -0.266258
vn 0.193449 0.944290 -0.266258
vn 0.313006 0.944290 0.101703
vn 0.313006 0.944290 0.101703
vn -0.193449 -0.944291 0.266257
vn -0.193449 -0.944291 0.266257
vn 0.196094 -0.944285 0.264334
vn 0.196126 -0.944285 0.264311
vn -0.195984 0.944285 -0.264417
vn -0.196015 0.944285 -0.264395
vn 0.311995 -0.944285 -0.104812
vn 0.311983 -0.944285 -0.104850
vn -0.312035 0.944286 0.104680
vn -0.312024 0.944286 0.104716
vn -0.003271 -0.944286 -0.329109
vn -0.003311 -0.944286 -0.329109
vn 0.003136 0.944285 0.329114
vn 0.003173 0.944285 0.329114
vn -0.313007 -0.944290 -0.101702
vn -0.313007 -0.944290 -0.101702
vn 0.000000 1.000000 -0.000002
vn 0.000000 1.000000 -0.000002
vn 0.000000 1.000000 0.000000
vn 0.000000 1.000000 0.000000
vn 0.000000 -1.000000 -0.000001
vn 0.000000 -1.000000 0.000000
vn 0.000000 -1.000000 -0.000001
vn 0.000000 -1.000000 0.000000
vn 0.000000 1.000000 0.000001
vn 0.000000 1.000000 0.000001
vn 0.000000 -1.000000 0.000002
vn 0.000000 -1.000000 0.000002
vn 0.000000 1.000000 0.000000
vn 0.000000 1.000000 0.000000
vn 0.000000 -1.000000 -0.000001
vn 0.000000 -1.000000 -0.000001
vn 0.000000 1.000000 -0.000000
vn 0.000000 1.000000 -0.000000
vn 0.000000 -1.000000 0.000003
vn 0.000000 -1.000000 0.000003
vn 0.000000 -1.000000 0.000006
vn 0.000000 -1.000000 0.000006
vn 0.000005 -1.000000 0.000003
vn 0.000005 -1.000000 0.000003
vn -0.000000 1.000000 -0.000007
vn -0.000000 1.000000 -0.000007
vn 0.000000 1.000000 0.000000
vn 0.000000 1.000000 0.000000
vn -0.000000 -1.000000 -0.000000
vn 0.000000 -1.000000 -0.000000
vn -0.000000 1.000000 -0.000004
vn -0.000000 1.000000 -0.000004
vn 0.000000 -1.000000 0.000002
vn 0.000000 -1.000000 0.000001
vn -0.000003 1.000000 0.000007
vn -0.000003 1.000000 0.000007
vn 0.000003 -1.000000 -0.000008
vn 0.000003 -1.000000 -0.000008
vn -0.000005 1.000000 -0.000001
vn -0.000005 1.000000 -0.000001
vn 0.273398 -0.957513 0.091775
vn -0.002798 -0.957513 0.288375
vn 0.273387 -0.957513 0.091806
vn -0.002832 -0.957513 0.288375
vn 0.002905 0.957503 -0.288409
vn 0.002941 0.957503 -0.288409
vn 0.275189 0.957503 -0.086362
vn 0.275201 0.957503 -0.086328
vn -0.275137 -0.957510 0.086460
vn -0.275147 -0.957509 0.086428
vn 0.167173 0.957504 0.235030
vn 0.167143 0.957504 0.235052
vn -0.167246 -0.957510 -0.234953
vn -0.167219 -0.957510 -0.234972
vn -0.171872 0.957502 0.231623
vn -0.171902 0.957502 0.231602
vn 0.171767 -0.957513 -0.231656
vn 0.171794 -0.957513 -0.231636
vn -0.273395 0.957503 -0.091886
vn -0.273383 0.957503 -0.091920
vn -0.587785 0.000000 0.809017
vn -0.587785 0.000000 0.809017
vn -0.951057 0.000000 -0.309017
vn -0.951057 0.000000 -0.309017
vn 0.587785 0.000000 0.809017
vn 0.587785 0.000000 0.809017
vn 0.951056 0.000000 -0.309018
vn 0.951056 0.000000 -0.309018
vn -0.000000 0.000000 -1.000000
vn 0.000000 0.000000 -1.000000
vn -0.587785 0.000001 0.809017
vn -0.587785 0.000001 0.809017
vn 0.587786 0.000000 0.809017
vn 0.587786 0.000000 0.809017
vn 0.951057 0.000000 -0.309017
vn 0.951057 0.000000 -0.309016
vn -0.000000 0.000000 -1.000000
vn 0.000000 0.000000 -1.000000
vn -0.951057 0.000000 -0.309016
vn -0.951057 0.000000 -0.309017
s 1
g pCylinder1
usemtl phong2SG
f 42/2/1 41/1/2 44/4/3
f 44/4/3 41/1/2 43/3/4
f 44/4/3 43/3/4 46/6/5
f 46/6/5 43/3/4 45/5/6
f 46/6/5 45/5/6 48/8/7
f 48/8/7 45/5/6 47/7/8
f 48/8/7 47/7/8 50/10/9
f 50/10/9 47/7/8 49/9/10
f 42/2/1 50/10/9 41/1/2
f 41/1/2 50/10/9 49/9/10
s 2
usemtl phong1SG
f 82/100/11 81/99/12 83/101/13
f 83/101/13 81/99/12 84/102/14
f 84/102/14 81/99/12 85/103/15
f 85/103/15 81/99/12 86/104/16
f 82/100/11 86/104/16 81/99/12
s 3
f 87/93/17 88/94/18 89/95/19
f 87/93/17 89/95/19 90/96/20
f 87/93/17 90/96/20 91/97/21
f 87/93/17 91/97/21 92/98/22
f 87/93/17 92/98/22 88/94/18
s 4
f 35/22/23 31/24/24 11/21/25
f 11/21/25 31/24/24 12/23/26
f 31/24/24 32/26/27 12/23/26
f 12/23/26 32/26/27 13/25/28
f 32/26/27 33/28/29 13/25/28
f 13/25/28 33/28/29 14/27/30
f 33/28/29 34/30/31 14/27/30
f 14/27/30 34/30/31 15/29/32
f 34/30/31 35/22/23 15/29/32
f 15/29/32 35/22/23 11/21/25
s 5
usemtl phong2SG
f 52/12/33 54/14/34 51/11/35
f 51/11/35 54/14/34 53/13/36
f 54/14/34 56/16/37 53/13/36
f 53/13/36 56/16/37 55/15/38
f 56/16/37 58/18/39 55/15/38
f 55/15/38 58/18/39 57/17/40
f 58/18/39 60/20/41 57/17/40
f 57/17/40 60/20/41 59/19/42
f 60/20/41 52/12/33 59/19/42
f 59/19/42 52/12/33 51/11/35
s 6
f 62/32/43 61/31/44 70/40/45
f 70/40/45 61/31/44 69/39/46
f 62/32/43 64/34/47 61/31/44
f 61/31/44 64/34/47 63/33/48
f 64/34/47 66/36/49 63/33/48
f 63/33/48 66/36/49 65/35/50
f 66/36/49 68/38/51 65/35/50
f 65/35/50 68/38/51 67/37/52
f 68/38/51 70/40/45 67/37/52
f 67/37/52 70/40/45 69/39/46
s 7
usemtl phong1SG
f 21/52/53 26/51/54 25/60/55
f 25/60/55 26/51/54 30/59/56
f 21/52/53 22/54/57 26/51/54
f 26/51/54 22/54/57 27/53/58
f 22/54/57 23/56/59 27/53/58
f 27/53/58 23/56/59 28/55/60
f 23/56/59 24/58/61 28/55/60
f 28/55/60 24/58/61 29/57/62
f 24/58/61 25/60/55 29/57/62
f 29/57/62 25/60/55 30/59/56
s 8
usemtl phong2SG
f 80/50/63 72/42/64 79/49/65
f 79/49/65 72/42/64 71/41/66
f 72/42/64 74/44/67 71/41/66
f 71/41/66 74/44/67 73/43/68
f 74/44/67 76/46/69 73/43/68
f 73/43/68 76/46/69 75/45/70
f 76/46/69 78/48/71 75/45/70
f 75/45/70 78/48/71 77/47/72
f 78/48/71 80/50/63 77/47/72
f 77/47/72 80/50/63 79/49/65
s 9
usemtl phong1SG
f 16/78/73 17/70/74 40/77/75
f 40/77/75 17/70/74 36/69/76
f 17/70/74 18/72/77 36/69/76
f 36/69/76 18/72/77 37/71/78
f 18/72/77 19/74/79 37/71/78
f 37/71/78 19/74/79 38/73/80
f 19/74/79 20/76/81 38/73/80
f 38/73/80 20/76/81 39/75/82
f 20/76/81 16/78/73 39/75/82
f 39/75/82 16/78/73 40/77/75
s 10
usemtl phong2SG
f 42/2/83 39/62/84 50/10/85
f 50/10/85 39/62/84 40/80/86
s 11
f 41/1/87 1/61/88 43/3/89
f 43/3/89 1/61/88 2/63/90
s 10
f 42/2/83 44/4/91 39/62/84
f 39/62/84 44/4/91 38/64/92
s 11
f 43/3/89 2/63/90 45/5/93
f 45/5/93 2/63/90 3/65/94
s 10
f 44/4/91 46/6/95 38/64/92
f 38/64/92 46/6/95 37/66/96
s 11
f 45/5/93 3/65/94 47/7/97
f 47/7/97 3/65/94 4/67/98
s 10
f 46/6/95 48/8/99 37/66/96
f 37/66/96 48/8/99 36/68/100
s 11
f 47/7/97 4/67/98 49/9/101
f 49/9/101 4/67/98 5/79/102
s 10
f 48/8/99 50/10/85 36/68/100
f 36/68/100 50/10/85 40/80/86
s 11
f 41/1/87 49/9/101 1/61/88
f 1/61/88 49/9/101 5/79/102
s 12
f 52/12/103 30/82/104 54/14/105
f 54/14/105 30/82/104 26/84/106
s 13
f 51/11/107 53/13/108 16/81/109
f 16/81/109 53/13/108 17/83/110
s 12
f 54/14/105 26/84/106 56/16/111
f 56/16/111 26/84/106 27/86/112
s 13
f 53/13/108 55/15/113 17/83/110
f 17/83/110 55/15/113 18/85/114
s 12
f 56/16/111 27/86/112 58/18/115
f 58/18/115 27/86/112 28/88/116
s 13
f 55/15/113 57/17/117 18/85/114
f 18/85/114 57/17/117 19/87/118
s 12
f 58/18/115 28/88/116 60/20/119
f 60/20/119 28/88/116 29/90/120
s 13
f 57/17/117 59/19/121 19/87/118
f 19/87/118 59/19/121 20/89/122
s 12
f 60/20/119 29/90/120 52/12/103
f 52/12/103 29/90/120 30/82/104
s 13
f 59/19/121 51/11/107 20/89/122
f 20/89/122 51/11/107 16/81/109
s 14
f 61/31/123 21/91/124 69/39/125
f 69/39/125 21/91/124 25/111/126
s 15
f 62/32/127 12/92/128 64/34/129
f 64/34/129 12/92/128 13/106/130
s 14
f 61/31/123 63/33/131 21/91/124
f 21/91/124 63/33/131 22/105/132
s 15
f 64/34/129 13/106/130 66/36/133
f 66/36/133 13/106/130 14/108/134
s 14
f 63/33/131 65/35/135 22/105/132
f 22/105/132 65/35/135 23/107/136
s 15
f 66/36/133 14/108/134 68/38/137
f 68/38/137 14/108/134 15/110/138
s 14
f 65/35/135 67/37/139 23/107/136
f 23/107/136 67/37/139 24/109/140
s 15
f 68/38/137 15/110/138 70/40/141
f 70/40/141 15/110/138 11/112/142
s 14
f 67/37/139 69/39/125 24/109/140
f 24/109/140 69/39/125 25/111/126
s 15
f 62/32/127 70/40/141 12/92/128
f 12/92/128 70/40/141 11/112/142
s 16
f 79/49/143 71/41/144 35/121/145
f 35/121/145 71/41/144 31/113/146
s 17
f 72/42/147 9/114/148 74/44/149
f 74/44/149 9/114/148 8/116/150
s 16
f 71/41/144 73/43/151 31/113/146
f 31/113/146 73/43/151 32/115/152
s 17
f 74/44/149 8/116/150 76/46/153
f 76/46/153 8/116/150 7/118/154
s 16
f 73/43/151 75/45/155 32/115/152
f 32/115/152 75/45/155 33/117/156
s 17
f 76/46/153 7/118/154 78/48/157
f 78/48/157 7/118/154 6/120/158
s 16
f 75/45/155 77/47/159 33/117/156
f 33/117/156 77/47/159 34/119/160
s 17
f 78/48/157 6/120/158 80/50/161
f 80/50/161 6/120/158 10/122/162
s 16
f 77/47/159 79/49/143 34/119/160
f 34/119/160 79/49/143 35/121/145
s 17
f 80/50/161 10/122/162 72/42/147
f 72/42/147 10/122/162 9/114/148
s 18
f 82/123/163 1/61/164 86/127/165
f 86/127/165 1/61/164 5/79/166
f 82/123/163 83/124/167 1/61/164
f 1/61/164 83/124/167 2/63/168
f 83/124/167 84/125/169 2/63/168
f 2/63/168 84/125/169 3/65/170
f 84/125/169 85/126/171 3/65/170
f 3/65/170 85/126/171 4/67/172
f 85/126/171 86/127/165 4/67/172
f 4/67/172 86/127/165 5/79/166
s 19
f 88/128/173 6/120/174 89/129/175
f 89/129/175 6/120/174 7/118/176
f 89/129/175 7/118/176 90/130/177
f 90/130/177 7/118/176 8/116/178
f 90/130/177 8/116/178 91/131/179
f 91/131/179 8/116/178 9/114/180
f 91/131/179 9/114/180 92/132/181
f 92/132/181 9/114/180 10/122/182
f 88/128/173 92/132/181 6/120/174
f 6/120/174 92/132/181 10/122/182
