# Blender v2.74 (sub 0) OBJ File: ''
# www.blender.org
mtllib Beerbarrel.mtl
o pCylinder1.001
v 0.883499 0.166939 -1.217889
v 0.846448 -0.013923 -1.166892
v -0.893363 0.166939 -1.217888
v -0.856312 -0.013923 -1.166891
v -1.442443 0.166939 0.472008
v -1.382493 -0.013923 0.452529
v -0.004932 0.166939 1.516421
v -0.004932 -0.013923 1.453385
v 1.432579 0.166939 0.472008
v 1.372628 -0.013923 0.452529
v 0.822968 0.142232 -1.134574
v -0.004932 0.142232 0.004932
v -0.832831 0.142232 -1.134574
v -1.344501 0.142232 0.440184
v -0.004932 0.142232 1.413438
v 1.334637 0.142232 0.440184
v -0.004932 4.626660 0.004933
v 0.822968 4.626660 -1.134573
v -0.832831 4.626660 -1.134573
v -1.344501 4.626660 0.440185
v -0.004932 4.626660 1.413439
v 1.334637 4.626660 0.440185
v 1.387570 4.584101 0.457384
v -0.004932 4.584101 1.469096
v 1.669310 3.600530 0.548928
v -0.004932 3.600530 1.765336
v -1.397434 4.584100 0.457384
v -1.679175 3.600530 0.548928
v -0.865546 4.584100 -1.179600
v -1.039671 3.600530 -1.419263
v 0.855682 4.584101 -1.179600
v 1.029807 3.600530 -1.419263
v 1.709490 1.292533 0.561982
v -0.004932 1.292533 1.807582
v 1.709490 1.009656 0.561982
v -0.004932 1.009656 1.807582
v -1.719354 1.292533 0.561982
v -1.719354 1.009656 0.561982
v -1.064503 1.292533 -1.453443
v -1.064503 1.009656 -1.453443
v 1.054640 1.292533 -1.453443
v 1.054640 1.009656 -1.453443
v -0.004932 3.600530 1.807583
v -0.004932 3.348584 1.807583
v 1.709490 3.600530 0.561983
v 1.709490 3.348584 0.561983
v -1.719354 3.600530 0.561983
v -1.719354 3.348584 0.561983
v -1.064503 3.600530 -1.453442
v -1.064503 3.348584 -1.453442
v 1.054640 3.600530 -1.453442
v 1.054640 3.348584 -1.453442
v -0.004932 3.348584 1.765336
v -0.004932 1.292533 1.765335
v 1.669310 3.348584 0.548928
v 1.669310 1.292533 0.548927
v -1.679175 3.348584 0.548928
v -1.679175 1.292533 0.548927
v -1.039671 3.348584 -1.419263
v -1.039671 1.292533 -1.419264
v 1.029807 3.348584 -1.419263
v 1.029807 1.292533 -1.419264
v 1.373148 4.781089 0.452699
v -0.004932 4.781089 1.453933
v 1.426081 4.596296 0.469898
v -0.004932 4.596295 1.509590
v -1.383013 4.781089 0.452699
v -1.435946 4.596296 0.469898
v -0.856633 4.781089 -1.167333
v -0.889347 4.596296 -1.212360
v 0.846769 4.781089 -1.167333
v 0.879484 4.596296 -1.212360
v 1.669310 1.009656 0.548927
v -0.004932 1.009656 1.765335
v 1.394587 0.180862 0.459663
v -0.004932 0.180862 1.476474
v -1.679175 1.009656 0.548927
v -1.404452 0.180862 0.459664
v -1.039671 1.009656 -1.419264
v -0.869883 0.180862 -1.185571
v 1.029807 1.009656 -1.419264
v 0.860019 0.180862 -1.185571
v 0.822968 0.000000 -1.134574
v -0.832831 0.000000 -1.134574
v -1.344501 -0.000000 0.440184
v -0.004932 -0.000000 1.413438
v 1.334637 -0.000000 0.440184
v -0.004932 4.768892 1.413439
v -1.344501 4.768892 0.440185
v -0.832831 4.768892 -1.134573
v 0.822968 4.768892 -1.134573
v 1.334637 4.768892 0.440185
vt 0.682179 0.747612
vt 0.516148 0.519090
vt 0.350117 0.747612
vt 0.247505 0.431802
vt 0.516148 0.236621
vt 0.784792 0.431802
vt 0.257584 0.227662
vt 0.498933 0.226812
vt 0.258019 0.351429
vt 0.499369 0.350578
vt 0.740284 0.225962
vt 0.740720 0.349729
vt 0.981634 0.225112
vt 0.982070 0.348879
vt 0.016233 0.228512
vt 0.016669 0.352279
vt 0.499481 0.382282
vt 0.500392 0.641003
vt 0.258131 0.383132
vt 0.259042 0.641853
vt 0.740831 0.381432
vt 0.741742 0.640153
vt 0.982182 0.380582
vt 0.983093 0.639303
vt 0.016781 0.383982
vt 0.017691 0.642703
vt 0.259167 0.677449
vt 0.500517 0.676599
vt 0.259534 0.781739
vt 0.500885 0.780889
vt 0.741868 0.675749
vt 0.742235 0.780039
vt 0.983218 0.674899
vt 0.983585 0.779190
vt 0.017817 0.678298
vt 0.018184 0.782589
vt 0.995571 0.853242
vt 0.995571 0.829936
vt 0.006954 0.853242
vt 0.006954 0.829936
vt 0.254108 0.853242
vt 0.254108 0.829936
vt 0.501262 0.853242
vt 0.501262 0.829936
vt 0.748417 0.853242
vt 0.748417 0.829936
vt 0.748417 0.900534
vt 0.501262 0.900534
vt 0.748417 0.864083
vt 0.501262 0.864083
vt 0.254108 0.900534
vt 0.254108 0.864083
vt 0.006954 0.900534
vt 0.006954 0.864083
vt 0.995571 0.900534
vt 0.995571 0.864083
vt 0.501262 0.948134
vt 0.501262 0.915668
vt 0.748417 0.948134
vt 0.748417 0.915668
vt 0.254108 0.948134
vt 0.254108 0.915668
vt 0.006954 0.948134
vt 0.006954 0.915668
vt 0.995571 0.948134
vt 0.995571 0.915668
vt 0.748417 0.988028
vt 0.501262 0.988028
vt 0.748417 0.964216
vt 0.501262 0.964216
vt 0.254108 0.988028
vt 0.254108 0.964216
vt 0.006954 0.988028
vt 0.006954 0.964216
vt 0.995571 0.988028
vt 0.995571 0.964216
vt 0.995571 0.855036
vt 0.748417 0.855036
vt 0.995571 0.831730
vt 0.006954 0.831730
vt 0.006954 0.855036
vt 0.254108 0.831730
vt 0.254108 0.855036
vt 0.501262 0.831730
vt 0.501262 0.855036
vt 0.748417 0.831730
vt 0.748417 0.962644
vt 0.501262 0.962644
vt 0.501262 0.986456
vt 0.254108 0.986456
vt 0.254108 0.962644
vt 0.006954 0.986456
vt 0.006954 0.962644
vt 0.995571 0.986456
vt 0.995571 0.962644
vt 0.748417 0.986456
vt 0.995571 0.850058
vt 0.748417 0.850058
vt 0.006954 0.850058
vt 0.254108 0.850058
vt 0.501262 0.850058
vt 0.995571 0.968128
vt 0.006954 0.968128
vt 0.254108 0.968128
vt 0.501262 0.968128
vt 0.748417 0.968128
vn -0.000000 -1.000000 -0.000000
vn 0.000000 1.000000 -0.000000
vn 0.924200 0.288100 0.250800
vn 0.047100 0.288100 0.956400
vn 0.922300 0.288200 0.257400
vn 0.040200 0.288200 0.956700
vn -0.895100 0.288100 0.340400
vn -0.897500 0.288200 0.333900
vn -0.600300 0.288100 -0.746100
vn -0.594900 0.288200 -0.750400
vn 0.524100 0.288100 -0.801500
vn 0.529800 0.288200 -0.797600
vn 0.000000 -0.000000 1.000000
vn 0.951100 -0.000000 0.309000
vn -0.951100 -0.000000 0.309000
vn -0.587800 0.000000 -0.809000
vn 0.587800 0.000000 -0.809000
vn 0.884600 -0.328800 0.330700
vn -0.041200 -0.328800 0.943500
vn 0.882400 -0.328700 0.336600
vn -0.047500 -0.328700 0.943200
vn -0.910000 -0.328800 0.252400
vn -0.911700 -0.328700 0.246300
vn -0.521300 -0.328800 -0.787500
vn -0.516000 -0.328700 -0.791000
vn 0.587900 -0.328800 -0.739100
vn 0.592800 -0.328700 -0.735200
vn 0.555000 -0.329100 -0.763900
vn -0.565800 -0.329100 -0.756000
vn -0.566100 -0.329100 -0.755800
vn -0.893800 -0.329100 0.304500
vn -0.893800 -0.329100 0.304800
vn 0.013400 -0.329100 0.944200
vn 0.013700 -0.329100 0.944200
vn 0.898100 -0.329100 0.291800
vn 0.914400 0.288400 0.284200
vn 0.012300 0.288400 0.957400
vn 0.914300 0.288400 0.284400
vn 0.012100 0.288400 0.957400
vn -0.906800 0.288400 0.307500
vn -0.906900 0.288400 0.307300
vn -0.572700 0.288400 -0.767400
vn -0.572500 0.288400 -0.767500
vn 0.552800 0.288400 -0.781800
vn 0.553000 0.288400 -0.781700
vn 0.193400 0.944300 -0.266300
vn 0.193500 0.944300 -0.266300
vn 0.313000 0.944300 0.101700
vn -0.193500 -0.944300 0.266300
vn 0.196100 -0.944300 0.264400
vn 0.196100 -0.944300 0.264300
vn -0.195900 0.944300 -0.264400
vn -0.196000 0.944300 -0.264400
vn 0.312000 -0.944300 -0.104800
vn -0.312000 0.944300 0.104700
vn -0.003200 -0.944300 -0.329100
vn -0.003300 -0.944300 -0.329100
vn 0.003100 0.944300 0.329100
vn 0.003200 0.944300 0.329100
vn -0.313000 -0.944300 -0.101700
vn 0.273400 -0.957500 0.091800
vn -0.002800 -0.957500 0.288400
vn -0.002900 -0.957500 0.288400
vn 0.002900 0.957500 -0.288400
vn 0.275200 0.957500 -0.086400
vn -0.275200 -0.957500 0.086400
vn -0.275100 -0.957500 0.086500
vn 0.167200 0.957500 0.235000
vn -0.167300 -0.957500 -0.234900
vn -0.167200 -0.957500 -0.235000
vn -0.171900 0.957500 0.231600
vn 0.171700 -0.957500 -0.231700
vn 0.171800 -0.957500 -0.231600
vn -0.273400 0.957500 -0.091800
vn -0.273400 0.957500 -0.091900
vn -0.587800 0.000000 0.809000
vn -0.951100 0.000000 -0.309000
vn 0.587800 0.000000 0.809000
vn 0.951100 0.000000 -0.309000
vn -0.000000 0.000000 -1.000000
usemtl phong1SG.001
s 1
f 11/1/1 12/2/1 13/3/1
f 13/3/1 12/2/1 14/4/1
f 14/4/1 12/2/1 15/5/1
f 15/5/1 12/2/1 16/6/1
f 11/1/1 16/6/1 12/2/1
f 17/2/2 18/1/2 19/3/2
f 17/2/2 19/3/2 20/4/2
f 17/2/2 20/4/2 21/5/2
f 17/2/2 21/5/2 22/6/2
f 17/2/2 22/6/2 18/1/2
f 23/7/3 24/8/4 25/9/5
f 25/9/5 24/8/4 26/10/6
f 24/8/4 27/11/7 26/10/6
f 26/10/6 27/11/7 28/12/8
f 27/11/7 29/13/9 28/12/8
f 28/12/8 29/13/9 30/14/10
f 29/13/9 31/15/11 30/14/10
f 30/14/10 31/15/11 32/16/12
f 31/15/11 23/7/3 32/16/12
f 32/16/12 23/7/3 25/9/5
f 53/17/13 54/18/13 55/19/14
f 55/19/14 54/18/13 56/20/14
f 53/17/13 57/21/15 54/18/13
f 54/18/13 57/21/15 58/22/15
f 57/21/15 59/23/16 58/22/15
f 58/22/15 59/23/16 60/24/16
f 59/23/16 61/25/17 60/24/16
f 60/24/16 61/25/17 62/26/17
f 61/25/17 55/19/14 62/26/17
f 62/26/17 55/19/14 56/20/14
f 73/27/18 74/28/19 75/29/20
f 75/29/20 74/28/19 76/30/21
f 74/28/19 77/31/22 76/30/21
f 76/30/21 77/31/22 78/32/23
f 77/31/22 79/33/24 78/32/23
f 78/32/23 79/33/24 80/34/25
f 79/33/24 81/35/26 80/34/25
f 80/34/25 81/35/26 82/36/27
f 81/35/26 73/27/18 82/36/27
f 82/36/27 73/27/18 75/29/20
usemtl phong2SG.001
f 1/37/28 2/38/28 3/39/29
f 3/39/29 2/38/28 4/40/30
f 3/39/29 4/40/30 5/41/31
f 5/41/31 4/40/30 6/42/32
f 5/41/31 6/42/32 7/43/33
f 7/43/33 6/42/32 8/44/34
f 7/43/33 8/44/34 9/45/35
f 9/45/35 8/44/34 10/46/35
f 1/37/28 9/45/35 2/38/28
f 2/38/28 9/45/35 10/46/35
f 33/47/14 34/48/13 35/49/14
f 35/49/14 34/48/13 36/50/13
f 34/48/13 37/51/15 36/50/13
f 36/50/13 37/51/15 38/52/15
f 37/51/15 39/53/16 38/52/15
f 38/52/15 39/53/16 40/54/16
f 39/53/16 41/55/17 40/54/16
f 40/54/16 41/55/17 42/56/17
f 41/55/17 33/47/14 42/56/17
f 42/56/17 33/47/14 35/49/14
f 43/57/13 44/58/13 45/59/14
f 45/59/14 44/58/13 46/60/14
f 43/57/13 47/61/15 44/58/13
f 44/58/13 47/61/15 48/62/15
f 47/61/15 49/63/16 48/62/15
f 48/62/15 49/63/16 50/64/16
f 49/63/16 51/65/17 50/64/16
f 50/64/16 51/65/17 52/66/17
f 51/65/17 45/59/14 52/66/17
f 52/66/17 45/59/14 46/60/14
f 63/67/36 64/68/37 65/69/38
f 65/69/38 64/68/37 66/70/39
f 64/68/37 67/71/40 66/70/39
f 66/70/39 67/71/40 68/72/41
f 67/71/40 69/73/42 68/72/41
f 68/72/41 69/73/42 70/74/43
f 69/73/42 71/75/44 70/74/43
f 70/74/43 71/75/44 72/76/45
f 71/75/44 63/67/36 72/76/45
f 72/76/45 63/67/36 65/69/38
f 1/37/46 82/77/47 9/45/48
f 9/45/48 82/77/47 75/78/48
f 2/38/49 83/79/49 4/40/50
f 4/40/50 83/79/49 84/80/51
f 1/37/46 3/39/52 82/77/47
f 82/77/47 3/39/52 80/81/53
f 4/40/50 84/80/51 6/42/54
f 6/42/54 84/80/51 85/82/54
f 3/39/52 5/41/55 80/81/53
f 80/81/53 5/41/55 78/83/55
f 6/42/54 85/82/54 8/44/56
f 8/44/56 85/82/54 86/84/57
f 5/41/55 7/43/58 78/83/55
f 78/83/55 7/43/58 76/85/59
f 8/44/56 86/84/57 10/46/60
f 10/46/60 86/84/57 87/86/60
f 7/43/58 9/45/48 76/85/59
f 76/85/59 9/45/48 75/78/48
f 2/38/49 10/46/60 83/79/49
f 83/79/49 10/46/60 87/86/60
f 33/47/2 56/47/2 34/48/2
f 34/48/2 56/47/2 54/48/2
f 35/49/1 36/50/1 73/49/1
f 73/49/1 36/50/1 74/50/1
f 34/48/2 54/48/2 37/51/2
f 37/51/2 54/48/2 58/51/2
f 36/50/1 38/52/1 74/50/1
f 74/50/1 38/52/1 77/52/1
f 37/51/2 58/51/2 39/53/2
f 39/53/2 58/51/2 60/53/2
f 38/52/1 40/54/1 77/52/1
f 77/52/1 40/54/1 79/54/1
f 39/53/2 60/53/2 41/55/2
f 41/55/2 60/53/2 62/55/2
f 40/54/1 42/56/1 79/54/1
f 79/54/1 42/56/1 81/56/1
f 41/55/2 62/55/2 33/47/2
f 33/47/2 62/55/2 56/47/2
f 42/56/1 35/49/1 81/56/1
f 81/56/1 35/49/1 73/49/1
f 44/58/1 53/58/1 46/60/1
f 46/60/1 53/58/1 55/60/1
f 43/57/2 26/57/2 47/61/2
f 47/61/2 26/57/2 28/61/2
f 44/58/1 48/62/1 53/58/1
f 53/58/1 48/62/1 57/62/1
f 47/61/2 28/61/2 49/63/2
f 49/63/2 28/61/2 30/63/2
f 48/62/1 50/64/1 57/62/1
f 57/62/1 50/64/1 59/64/1
f 49/63/2 30/63/2 51/65/2
f 51/65/2 30/63/2 32/65/2
f 50/64/1 52/66/1 59/64/1
f 59/64/1 52/66/1 61/66/1
f 51/65/2 32/65/2 45/59/2
f 45/59/2 32/65/2 25/59/2
f 52/66/1 46/60/1 61/66/1
f 61/66/1 46/60/1 55/60/1
f 43/57/2 45/59/2 26/57/2
f 26/57/2 45/59/2 25/59/2
f 65/69/61 66/70/62 23/87/61
f 23/87/61 66/70/62 24/88/63
f 64/68/64 88/89/64 67/71/65
f 67/71/65 88/89/64 89/90/65
f 66/70/62 68/72/66 24/88/63
f 24/88/63 68/72/66 27/91/67
f 67/71/65 89/90/65 69/73/68
f 69/73/68 89/90/65 90/92/68
f 68/72/66 70/74/69 27/91/67
f 27/91/67 70/74/69 29/93/70
f 69/73/68 90/92/68 71/75/71
f 71/75/71 90/92/68 91/94/71
f 70/74/69 72/76/72 29/93/70
f 29/93/70 72/76/72 31/95/73
f 71/75/71 91/94/71 63/67/74
f 63/67/74 91/94/71 92/96/75
f 72/76/72 65/69/61 31/95/73
f 31/95/73 65/69/61 23/87/61
f 63/67/74 92/96/75 64/68/64
f 64/68/64 92/96/75 88/89/64
f 11/97/76 83/79/76 16/98/77
f 16/98/77 83/79/76 87/86/77
f 11/97/76 13/99/78 83/79/76
f 83/79/76 13/99/78 84/80/78
f 13/99/78 14/100/79 84/80/78
f 84/80/78 14/100/79 85/82/79
f 14/100/79 15/101/80 85/82/79
f 85/82/79 15/101/80 86/84/80
f 15/101/80 16/98/77 86/84/80
f 86/84/80 16/98/77 87/86/77
f 18/102/76 91/94/76 19/103/78
f 19/103/78 91/94/76 90/92/78
f 19/103/78 90/92/78 20/104/79
f 20/104/79 90/92/78 89/90/79
f 20/104/79 89/90/79 21/105/80
f 21/105/80 89/90/79 88/89/80
f 21/105/80 88/89/80 22/106/77
f 22/106/77 88/89/80 92/96/77
f 18/102/76 22/106/77 91/94/76
f 91/94/76 22/106/77 92/96/77
