# This file uses centimeters as units for non-parametric coordinates.

mtllib TreeTrigger.mtl
g default
v 0.092960 -0.000000 -0.261197
v -0.185827 -0.000000 -0.166011
v -0.227853 -0.000000 0.160227
v 0.092960 -0.000000 0.304923
v 0.272450 -0.000000 -0.002892
v 0.075532 1.709686 -0.157260
v -0.112099 1.698748 -0.112421
v -0.107161 1.709686 0.112251
v 0.075532 1.709686 0.118169
v 0.168905 1.709686 -0.002892
v 0.007204 -0.000000 -0.002892
v 0.007204 1.770909 -0.002892
v 0.123075 0.439405 0.091891
v -0.070921 0.439405 0.085973
v -0.107244 0.439405 -0.102827
v 0.043060 0.439405 -0.173990
v 0.183975 0.439405 -0.002892
v 0.123075 1.496850 0.091891
v -0.070921 1.496850 0.085973
v -0.081117 1.487745 -0.098153
v 0.043060 1.496850 -0.147402
v 0.183975 1.496850 -0.002892
vt 0.548284 0.007647
vt 0.373591 0.064409
vt 0.373591 0.248091
vt 0.548284 0.304853
vt 0.656250 0.156250
vt 0.375000 0.312500
vt 0.425000 0.312500
vt 0.475000 0.312500
vt 0.525000 0.312500
vt 0.575000 0.312500
vt 0.625000 0.312500
vt 0.375000 0.688440
vt 0.425000 0.688440
vt 0.475000 0.688440
vt 0.525000 0.688440
vt 0.575000 0.688440
vt 0.625000 0.688440
vt 0.548284 0.695147
vt 0.373591 0.751909
vt 0.373591 0.935591
vt 0.548284 0.992353
vt 0.656250 0.843750
vt 0.500000 0.150000
vt 0.500000 0.837500
vt 0.525000 0.442923
vt 0.475000 0.442923
vt 0.425000 0.442923
vt 0.625000 0.442923
vt 0.375000 0.442923
vt 0.575000 0.442923
vt 0.525000 0.647303
vt 0.475000 0.647303
vt 0.425000 0.647303
vt 0.625000 0.647303
vt 0.375000 0.647303
vt 0.575000 0.647303
vn -0.319485 0.149429 -0.935735
vn -0.334602 0.157424 -0.929117
vn -0.405033 0.077292 -0.911029
vn -0.426744 0.074117 -0.901330
vn -0.941107 0.315627 -0.121232
vn -0.987479 0.103859 0.118735
vn -0.953934 0.291097 -0.072609
vn -0.980024 0.063273 0.188543
vn -0.393710 0.288123 0.872914
vn -0.334676 0.317310 0.887303
vn -0.109250 0.157327 0.981485
vn -0.030198 0.138393 0.989917
vn 0.849448 0.181923 0.495321
vn 0.848346 0.181075 0.497515
vn 0.845520 0.087609 0.526707
vn 0.840172 0.052001 0.539821
vn 0.810202 0.163136 -0.562991
vn 0.797952 0.173952 -0.577073
vn 0.774195 0.075122 -0.628474
vn 0.769649 0.076396 -0.633880
vn 0.000000 -1.000000 0.000000
vn 0.000000 -1.000000 0.000000
vn 0.000000 -1.000000 0.000000
vn 0.000000 -1.000000 -0.000000
vn 0.000000 -1.000000 -0.000000
vn 0.000000 -1.000000 0.000000
vn 0.094341 0.939021 -0.330665
vn -0.325900 0.912741 -0.246359
vn -0.065553 0.997668 -0.019029
vn -0.300244 0.933101 0.197930
vn 0.166537 0.914578 0.368527
vn 0.354066 0.935143 -0.012077
vn -0.030626 -0.023073 0.999265
vn -0.030486 -0.019279 0.999349
vn -0.997373 -0.021042 0.069320
vn -0.998067 -0.032349 0.053066
vn -0.374359 0.000159 -0.927284
vn -0.352773 0.005216 -0.935695
vn 0.722736 -0.020434 -0.690822
vn 0.726340 -0.009085 -0.687276
vn 0.836837 0.016240 0.547212
vn 0.841270 0.009778 0.540527
vn -0.031225 -0.128459 0.991223
vn -0.032110 -0.127857 0.991273
vn -0.986331 -0.159128 0.042782
vn -0.984749 -0.171379 0.029986
vn -0.269019 -0.040010 -0.962304
vn -0.231883 -0.009671 -0.972696
vn 0.788943 -0.042616 -0.612986
vn 0.854083 0.060475 -0.516609
vn 0.801176 0.090895 0.591485
vn 0.787794 0.100957 0.607609
s 1
g pCylinder1
usemtl initialShadingGroup
f 1/6/1 2/7/2 16/29/3
f 16/29/3 2/7/2 15/27/4
s 2
f 3/8/5 14/26/6 2/7/7
f 2/7/7 14/26/6 15/27/8
s 3
f 3/8/9 4/9/10 14/26/11
f 14/26/11 4/9/10 13/25/12
s 4
f 4/9/13 5/10/14 13/25/15
f 13/25/15 5/10/14 17/30/16
s 5
f 5/10/17 1/11/18 17/30/19
f 17/30/19 1/11/18 16/28/20
s 6
f 2/2/21 1/1/22 11/23/23
f 3/3/24 2/2/21 11/23/23
f 4/4/25 3/3/24 11/23/23
f 5/5/26 4/4/25 11/23/23
f 1/1/22 5/5/26 11/23/23
s 7
f 6/21/27 7/20/28 12/24/29
f 7/20/28 8/19/30 12/24/29
f 8/19/30 9/18/31 12/24/29
f 9/18/31 10/22/32 12/24/29
f 10/22/32 6/21/27 12/24/29
s 3
f 14/26/11 13/25/12 19/32/33
f 19/32/33 13/25/12 18/31/34
s 2
f 15/27/8 14/26/6 20/33/35
f 20/33/35 14/26/6 19/32/36
s 1
f 15/27/4 20/33/37 16/29/3
f 16/29/3 20/33/37 21/35/38
s 5
f 16/28/20 21/34/39 17/30/19
f 17/30/19 21/34/39 22/36/40
s 4
f 13/25/15 17/30/16 18/31/41
f 18/31/41 17/30/16 22/36/42
s 3
f 18/31/34 9/15/43 19/32/33
f 19/32/33 9/15/43 8/14/44
s 2
f 20/33/35 19/32/36 7/13/45
f 7/13/45 19/32/36 8/14/46
s 1
f 20/33/37 7/13/47 21/35/38
f 21/35/38 7/13/47 6/12/48
s 5
f 21/34/39 6/17/49 22/36/40
f 22/36/40 6/17/49 10/16/50
s 4
f 22/36/42 10/16/51 18/31/41
f 18/31/41 10/16/51 9/15/52
